<svg width="110" height="20" viewBox="0 0 110 20" fill="none" xmlns="http://www.w3.org/2000/svg">
<g clip-path="url(#clip0)">
<path d="M26.2059 8.25001C26.2059 6.90197 25.8823 5.94935 25.2173 5.37419C24.5523 4.79903 23.4559 4.51144 21.9281 4.51144C20.4003 4.51144 18.9804 4.87092 17.6503 5.5719C17.6324 5.80556 17.6324 6.03922 17.6324 6.25491C17.6324 7.04576 17.7582 7.67484 17.9918 8.17811H20.0948C20.2386 7.85458 20.3284 7.38726 20.3464 6.79412C20.634 6.70425 20.9935 6.66831 21.4428 6.66831C22.6291 6.66831 23.2222 7.2255 23.2222 8.33988V9.36439H20.8856C19.6274 9.36439 18.6928 9.63399 18.0458 10.1912C17.4167 10.7484 17.0931 11.4853 17.0931 12.4379C17.0931 13.3905 17.4346 14.1454 18.1176 14.7026C18.8007 15.2598 19.6095 15.5294 20.5621 15.5294C22.1797 15.5294 23.2761 15.0801 23.9052 14.1814C24.0131 14.7026 24.1209 15.152 24.2647 15.5294C25.6127 15.5294 26.6552 15.3497 27.3921 15.0082V13.1748C27.1046 13.0311 26.7091 12.9052 26.2238 12.8154V8.25001H26.2059ZM23.2222 12.7255C22.7908 13.1569 22.2157 13.3726 21.4967 13.3726C21.0654 13.3726 20.7418 13.2647 20.5261 13.0311C20.3105 12.7974 20.2026 12.5098 20.2026 12.1503C20.2026 11.3595 20.7239 10.982 21.7484 10.982H23.2402V12.7255H23.2222Z" fill="#C82C46"/>
<path d="M34.8693 4.51141C33.7909 4.51141 32.7664 4.85291 31.8138 5.51794V4.47546C31.4004 4.43951 30.8791 4.43951 30.2501 4.43951C29.621 4.43951 28.92 4.52938 28.1291 4.69115L27.9135 6.34474C28.201 6.6503 28.5965 6.90193 29.0818 7.0637V17.2908C28.4886 17.5245 28.0932 17.7581 27.9135 18.0098L28.1291 19.6634H33.5033L33.719 18.0098C33.4853 17.7042 32.9282 17.4526 32.1014 17.2189V15.3676C32.6226 15.4755 33.1798 15.5473 33.7729 15.5473C35.121 15.5473 36.2893 15.116 37.2778 14.2712C37.7991 13.8398 38.1945 13.2467 38.5001 12.4738C38.8056 11.7009 38.9494 10.8202 38.9494 9.79572C38.9494 7.90847 38.6259 6.54245 37.9788 5.73363C37.3318 4.92481 36.2893 4.51141 34.8693 4.51141ZM35.2288 12.4019C34.8154 13.031 34.2582 13.3545 33.5393 13.3545C33.018 13.3545 32.5327 13.3006 32.0834 13.1748V7.49507C32.6226 7.0637 33.3595 6.84801 34.2582 6.84801C34.8514 6.84801 35.2648 7.0637 35.4984 7.45912C35.7321 7.87252 35.8399 8.64539 35.8399 9.75977C35.8579 10.8921 35.6422 11.7728 35.2288 12.4019Z" fill="#C82C46"/>
<path d="M46.75 4.51141C45.6715 4.51141 44.647 4.85291 43.6944 5.51794V4.47546C43.281 4.43951 42.7598 4.43951 42.1307 4.43951C41.5016 4.43951 40.8006 4.52938 40.0098 4.69115L39.7941 6.34474C40.0816 6.6503 40.4771 6.90193 40.9624 7.0637V17.2908C40.3692 17.5245 39.9738 17.7581 39.7941 18.0098L40.0098 19.6634H45.3839L45.5996 18.0098C45.366 17.7042 44.8088 17.4526 43.982 17.2189V15.3676C44.5032 15.4755 45.0604 15.5473 45.6536 15.5473C47.0016 15.5473 48.1699 15.116 49.1585 14.2712C49.6797 13.8398 50.0751 13.2467 50.3807 12.4738C50.6862 11.7009 50.83 10.8202 50.83 9.79572C50.83 7.90847 50.5065 6.54245 49.8594 5.73363C49.2124 4.92481 48.1879 4.51141 46.75 4.51141ZM47.1274 12.4019C46.714 13.031 46.1568 13.3545 45.4379 13.3545C44.9166 13.3545 44.4313 13.3006 43.982 13.1748V7.49507C44.5212 7.0637 45.2581 6.84801 46.1568 6.84801C46.75 6.84801 47.1634 7.0637 47.397 7.45912C47.6307 7.87252 47.7385 8.64539 47.7385 9.75977C47.7385 10.8921 47.5408 11.7728 47.1274 12.4019Z" fill="#C82C46"/>
<path d="M56.9412 13.1928C56.4559 13.1928 56.1504 13.085 56.0246 12.8872C55.8988 12.6895 55.8269 12.348 55.8269 11.8987V6.47058H58.8824V4.67319H55.8269V1.97711H54.2631C53.6161 2.39051 53.2206 3.18136 53.0409 4.34966C52.322 4.61927 51.8546 4.88888 51.621 5.15848L51.8546 6.47058H52.8252V12.4738C52.8252 13.4085 53.0229 14.1274 53.4363 14.6307C53.8497 15.116 54.6226 15.3676 55.7729 15.3676C56.9233 15.3676 58.0376 15.098 59.134 14.5408L58.487 12.8693C57.9478 13.085 57.4265 13.1928 56.9412 13.1928Z" fill="#C82C46"/>
<path d="M71.8236 4.67319L71.6079 6.32678C71.8236 6.61436 72.2549 6.866 72.884 7.09966L72.7582 7.6928C72.5785 8.51959 72.219 10.1372 71.6977 12.5457H71.3922L70.853 10.1732L69.4151 4.72711H67.0245L65.5687 10.2271C65.353 11.018 65.1732 11.8088 65.0115 12.5637H64.7059L63.4657 7.11763C64.0768 6.90195 64.5082 6.65031 64.7778 6.34476L64.5621 4.69116H59.5654L59.3497 6.34476C59.5834 6.65031 59.9968 6.90195 60.6079 7.11763L63.304 15.5114H66.3415L67.3481 12.1144C67.6357 11.1797 67.8513 10.1732 67.9951 9.05881H68.3007L68.3726 9.58005C68.4984 10.6046 68.6781 11.4673 68.9118 12.1503L70.0082 15.5294H72.7941L75.4722 7.17155C76.1193 6.95587 76.5686 6.68626 76.8203 6.36273L76.5686 4.67319H71.8236Z" fill="#C82C46"/>
<path d="M86.5262 9.16667C86.5262 7.40523 86.1667 6.20099 85.4657 5.51798C84.7647 4.83497 83.7402 4.49347 82.4102 4.49347C81.0801 4.49347 79.9298 4.88889 78.9233 5.69772C78.402 6.11112 78.0066 6.70425 77.7011 7.45916C77.3955 8.21406 77.2517 9.13072 77.2517 10.1912C77.2517 11.9346 77.6831 13.2647 78.5458 14.1634C79.4086 15.0801 80.7027 15.5294 82.4102 15.5294C83.255 15.5294 84.0098 15.4036 84.6569 15.152C85.3219 14.9003 85.7353 14.7026 85.8971 14.5588C86.0589 14.415 86.1847 14.2892 86.2745 14.1814L85.6275 12.4739L85.3219 12.6536C85.1242 12.7614 84.8007 12.8873 84.3513 12.9951C83.902 13.1029 83.4527 13.1748 82.9674 13.1748C82.0867 13.1748 81.4396 12.9951 81.0262 12.6177C80.6128 12.2402 80.3791 11.6111 80.3252 10.7124H84.9625C86.0229 10.7124 86.5262 10.1912 86.5262 9.16667ZM83.7582 8.80719L80.3791 8.93301C80.487 8.12419 80.6847 7.54902 80.9723 7.20752C81.2778 6.86602 81.7092 6.68628 82.2664 6.68628C82.8236 6.68628 83.219 6.84804 83.4527 7.17157C83.6863 7.4951 83.7942 7.80066 83.7942 8.08824C83.8121 8.35785 83.7942 8.60948 83.7582 8.80719Z" fill="#C82C46"/>
<path d="M96.6095 8.25001C96.6095 6.90197 96.2859 5.94935 95.6209 5.37419C94.9559 4.79903 93.8595 4.51144 92.3317 4.51144C90.8039 4.51144 89.384 4.87092 88.0539 5.5719C88.0359 5.80556 88.0359 6.03922 88.0359 6.25491C88.0359 7.04576 88.1617 7.67484 88.3954 8.17811H90.4983C90.6421 7.85458 90.732 7.38726 90.75 6.79412C91.0376 6.70425 91.397 6.66831 91.8464 6.66831C93.0327 6.66831 93.6258 7.2255 93.6258 8.33988V9.36439H91.2892C90.031 9.36439 89.0964 9.63399 88.4493 10.1912C87.8202 10.7484 87.4967 11.4853 87.4967 12.4379C87.4967 13.3905 87.8382 14.1454 88.5212 14.7026C89.2042 15.2598 90.013 15.5294 90.9657 15.5294C92.5833 15.5294 93.6797 15.0801 94.3088 14.1814C94.4166 14.7026 94.5245 15.152 94.6683 15.5294C96.0163 15.5294 97.0588 15.3497 97.7957 15.0082V13.1748C97.5081 13.0311 97.1127 12.9052 96.6274 12.8154V8.25001H96.6095ZM93.6258 12.7255C93.1944 13.1569 92.6193 13.3726 91.9003 13.3726C91.4689 13.3726 91.1454 13.2647 90.9297 13.0311C90.714 12.7974 90.6062 12.5098 90.6062 12.1503C90.6062 11.3595 91.1274 10.982 92.1519 10.982H93.6438V12.7255H93.6258Z" fill="#C82C46"/>
<path d="M108.221 12.7974L105.812 9.616L107.861 7.26142C108.724 7.02776 109.317 6.72221 109.641 6.32678L109.425 4.67319H104.716L104.5 6.32678C104.608 6.48855 104.77 6.63234 105.021 6.77613L102.667 9.83169L106.459 15.3676H109.874L110.09 13.714C109.73 13.3186 109.101 13.0131 108.221 12.7974Z" fill="#C82C46"/>
<path d="M102.469 12.9951V-0.0179788C102.002 -0.0539266 101.426 -0.0898743 100.743 -0.0898743C100.06 -0.0898743 99.3235 -4.98444e-06 98.5146 0.179734L98.299 1.83333C98.5865 2.13888 98.982 2.39052 99.4673 2.55228V12.9771C98.8741 13.1928 98.4967 13.4265 98.299 13.6961L98.5146 15.3497H103.439L103.655 13.6961C103.421 13.4624 103.026 13.2108 102.469 12.9951Z" fill="#C82C46"/>
<path d="M8.0703 13.4983C7.98043 13.4983 7.89056 13.4624 7.81866 13.3905L4.61931 9.65191L0.0539551 14.8464V14.9542C0.0539551 15.7091 0.665066 16.3382 1.43794 16.3382H11.8089C12.5638 16.3382 13.1928 15.7271 13.1928 14.9542V6.75812L8.3399 13.3545C8.25003 13.4444 8.16016 13.4983 8.0703 13.4983Z" fill="#C82C46"/>
<path d="M11.7909 3.21729H1.42C0.665096 3.21729 0.0360107 3.8284 0.0360107 4.60127V13.2647L4.40366 8.0882C4.45758 8.0163 4.52948 7.98036 4.61934 7.98036C4.70921 7.98036 4.78111 8.01631 4.83503 8.07023L8.03438 11.8088L13.1749 4.87088V4.5833C13.1749 3.8284 12.5458 3.21729 11.7909 3.21729Z" fill="#C82C46"/>
</g>
<defs>
<clipPath id="clip0">
<rect width="110" height="19.5915" fill="white"/>
</clipPath>
</defs>
</svg>
