<svg viewBox="0 0 1233 369" xmlns="http://www.w3.org/2000/svg" fill-rule="evenodd" clip-rule="evenodd" stroke-linejoin="round" stroke-miterlimit="1.4"><path d="M403 85c-6.2 4.4-13.3 7.8-20 11.6-3 1.6-7 3-9 5.8-3 4-3 10-3.8 14.6-1.6 10-3 20.2-5.2 30-.8 3.2-.7 7-2.3 10-4 7-15.5 6-19.6 12.6-1.4 2.3-.2 6 0 8.4h16c-1.4 32.6-16.5 63.7-11.7 97 2 15 8.7 32.6 19 44 4.7 5.5 11.2 10.3 18.7 11 12.7 1 28-9.6 38-16.7 10.7-7.8 18.8-18 28-27.3-1.4-2.4-3-5.5-6-6.2-3-.7-6.5 1.6-9 3-8 4.2-14.6 9.8-21 16.2-3 3-7 8.7-12 7-11.8-4-19.3-19-23-30-11-32.5 2.8-65.7 7-98h31c5.2 0 11 .7 16-.4 7.3-1.6 14.6-7 21-10.6-.6-3-1-6-1-9l-63 1c1.4-17.4 6.5-34.8 9.4-52 1-6.4 4.5-15.8 2.6-22m-190 94c5.3-1.3 10.6-1 16-1-5.2 40.6-21.3 79.8-5.2 120 2.7 6.7 6 13.4 10.5 19 4.8 5.8 11 11.3 18.7 12.7 7 1.2 13-1.4 19-4.5 10.5-5.2 20.2-11 29-18.8 5-4.4 9.4-9.6 14-14.4 1.8-2 4.3-4 4.2-7-.5-9.2-11-3.4-15.2-1.2-6.5 3.4-12.6 8-17.7 13.4-3 3-6 8.3-10.3 9.4-3 .7-5.8-1.8-8-3.4-29.6-22-23.7-67-16.6-98.2 1.6-7.2 2.3-15 4.5-22 2.3-7.4 12.8-5 19-5 13.5 0 25.7 1.4 38-4.8 3.2-1.5 8.8-3 10.4-6.6 1.2-2.4.6-6 .6-8.6l-63 1c1-24.5 11-48.4 12-73-7.3 2.7-14.2 7-21 11-3 1.5-7 3.2-9 6.2-2 3.5-2 9-2.8 12.8-2 9.7-3.3 19.4-5.2 29-.7 3.8-.8 8.4-2.5 12-3.6 7.4-16.6 6.2-20 13.4-1 2.6 0 6 .5 8.6m609 0c5.3-1.3 10.6-1 16-1-.5 12.2-5 25-7.2 37-6.4 33.7-10.5 70.3 11 100 4.8 6.7 11.8 13.2 20.2 14.7 7 1.2 13-1.4 19-4.5 10-5 19.5-10.6 28-17.8 5-4.3 9.3-9.6 14-14.4 2-2 5.3-4.7 5.2-8-.5-9.6-12-3-16.2-.7-7.4 4-13 9.8-19 15.7-2.3 2.3-5.4 6.6-9 6.7-3 0-6-2.6-8-4.2-28.3-22.3-22-64.8-16-95.5 1.6-8 2.6-16.3 5-24 2-7.4 13-5 19-5 13.5 0 25.7 1.4 38-4.8 3.2-1.5 8.8-3 10.4-6.6 1.2-2.4.6-6 .6-8.6l-63 1c0-5.6 1.8-10.6 2.7-16 3.2-18.8 7.8-38 9.3-57-7.3 2.7-14.2 7-21 11-3 1.5-7 3.2-9 6.2-2 3.4-2.2 9-3 12.8-1.8 9.3-3 18.7-4.7 28-.7 3.8-.7 8.4-2.2 12-3.3 8.3-17 6.8-20.4 14.4-1.2 2.6 0 6 .4 8.6m132 148c7.7-2.2 15-7 22-11 3-1.5 7-3.2 8.7-6.2 2-3.6 1.8-8.8 2.6-12.8 2-10 3.3-20 5.2-30 5-26.6 9.2-53.4 14.2-80 2.2-11.7 3.3-23.5 6.3-35-7.4 2.3-14.2 7-21 10.8-3 1.7-7.7 3.4-9.6 6.6-2.3 4-2 9.3-3 13.6-2.2 11-4 22-5.8 33-3.2 19-7 38-10.2 57-3 18-5 36.3-9.4 54m-332-5c7-2.2 13.7-6.4 20-10 2.8-1.6 6-3 8.4-5.4 3.4-3.8 5.5-9 8-13.6l13.4-25c9.8-18.6 20-37.4 31.5-55 5.6-8.5 11.4-17 17.6-25 2-2.8 4.8-7.6 8.2-9 3.8-1.5 7.8 3.4 10 6 6 7.8 9.7 17.4 12.2 27 9.4 36.8 8.2 79.8-3.4 116 7.3-2.7 14-7 21-10.8 3.3-1.7 7.8-3.6 10-6.6 5-6 5.3-19 6.3-26.6 3.5-27 1.2-53.6-5.4-80-4.5-17.2-14.4-48.8-37-47.4-6.4.4-12.5 4.2-18 7.3-4.7 2.5-9.8 5-14 8.3-8.4 7-15 16-21.4 24.7-8.8 12-19.5 26-24.6 40-2-11 3.3-25.2 5.5-36 3.2-16 4.6-32.2 8.5-48-7.4 2-14.2 6.7-21 10.2-3 1.5-7 2.8-9 5.4-2.7 3.5-2.5 10.2-3 14.4-1.4 9.4-3.5 18.7-5 28-4.2 25-9 50-13.3 75-2 11.7-5.5 24-5.7 36m-479-74c.5 6-1.6 12.2-2.8 18-2 10.4-4.2 21.4-4.2 32 0 6.4-.4 13.5 3.7 19 5.3 7.2 14 8 22.3 8 11.4 0 19.6 0 30-5.2 3-1.5 7-2.8 8.4-6 1-2.3.6-5.4.6-7.8-10 0-24.3 2-31.2-7-7-9.6-2.4-27.2-1-38 4.6-33 12-65.3 18.2-98l-6 3c2-3.8 1.3-6.8 1-11h-56c-22 0-43.5.2-64 10-6 2.7-11 6.5-16 11-30.2 27-28 69.2-17.7 105 4.8 16.8 14.2 42.6 34.7 44.7 7 .6 13.3-3.6 19-7 14.5-8 27-18.5 37-31.7 9-11.5 19-25.3 24-39m1008 0c1 6-1.4 13-2.6 19-2.2 10.8-4.4 22-4.4 33 0 11.3 2.8 20.8 15 23.8 4 1 8 1.2 12 1.2 5.5 0 11.5.6 17-.2 7.7-1.2 15-6.8 22-9.8-.6-3-1-6-1-9-10 0-24.2 2-31-7.2-7-9-2.5-26.7-1-36.8 4.4-33 11.3-65.5 18-98l-4 1-1-10h-59c-17.5 0-35.4-.2-52 6-7.3 2.8-15 6.7-21 11.5-33 26-32.6 69.7-22 106.5 4.8 17.3 13.6 43 34 46.5 7.2 1.3 14-3 20-6.5 15.2-9 28.4-19.8 38.8-34 8-10.8 18-24.2 22.2-37m-559 17c-8.2 3.4-16 7.8-24 11.8-5 2.4-10.5 4.7-14.5 8.6-5.3 5-9.3 11.4-14.5 16.6-2 2-4.2 4.7-7 5.3-5.2 1-10.8-5.8-13.5-9.3-9-11.6-14.5-26.7-17.5-41 18-5 35.7-13.3 53-20.2 12.2-5 24.3-10 36-16 8-4 18.4-9 23.3-16.8 2-3.3 1.7-7.3 1.7-11 0-11-3-22.6-13-28.6-14.2-8.5-33-8-49-6.6-30.6 3-62 11.6-75.7 42.2-13.3 29.5-6.2 67 5.7 96 4.7 11.4 11 25.4 23 30.6 10 4.3 19.4-2 28-6.4 18.4-9.3 33.2-22 46-38.2 4.2-5.3 9.3-10.7 12-17m599-100c-7.2 6.7-19 8.7-25.2 16.2-6.7 8-10.7 18.8-15.7 27.8-10.5 19-20.8 38.4-32.4 57-6.3 10-13 19.7-20.2 29-2.4 3-5.4 8.4-9.4 9.2-3.3.6-6.7-2.4-9-4.4-7-6.2-11.6-15-14.7-23.8-10-28.7-13.5-67.4 6.4-93 8.2-10.6 24-8 36.3-8h42c6.7 0 14.4 1 21-.4 7.4-1.7 13.6-7.5 21-9.6m-1010 1c-6.7 6.3-17.4 8.2-23.4 15.2s-9.5 16.8-14 24.8c-11.5 20.4-22.2 41.3-35 61-6 9.6-12.5 19-19.5 28-2 3-5 8.3-9 9.2-3.8.8-7.6-3-10-5.2-6.6-6.4-10.6-14.5-13.8-23-10.8-29-13-68.2 7-94 7.5-9.6 23.7-7 34.8-7h42c6.8 0 14.3 1 21-.2 7-1.2 13-6.8 20-8.8m318 80c-1.3-17-1.7-33.8 4.6-50 2.2-5.5 5-11.8 9.5-15.7 5.6-4.6 13.4-2.8 20-3.5 19.5-1.8 51.3-3.8 52 23.2 0 3 .6 7-.6 9.8-1.8 4.2-8.6 6-12.4 7.6-12 5-24 10-36 14.8-12 4.8-24.4 11-37 13.8z" fill="#c3331b" fill-rule="nonzero"/><path d="M1011 16.4c-39 6.2-47.6 61-11 77.7 7.7 3.6 16.7 4 25 2.7 5-.7 9.8-2.5 14-5.2 28.8-18.6 23-65.3-11-74-5.5-1.4-11.3-2-17-1M273.3 85.6s0 1 .4.6c0 0 0-1-.4-.6M403 85v3c.7-1.6.7-1.4 0-3m479.3.7s0 1 .4.6c0 0 0-1-.4-.6z" fill="#f59527" fill-rule="nonzero"/></svg>