<svg width="120" height="35" viewBox="0 0 120 35" xmlns="http://www.w3.org/2000/svg" xmlns:xlink="http://www.w3.org/1999/xlink"><title>TR logo</title><defs><path id="a" d="M0 0h119.72v34.71H0z"/><path id="c" d="M0 0h119.72v34.71H0z"/><path id="e" d="M0 0h119.72v34.71H0z"/><path id="g" d="M0 0h119.72v34.71H0z"/><path id="i" d="M0 0h119.72v34.71H0z"/><path id="k" d="M0 0h119.72v34.71H0z"/></defs><g fill="none" fill-rule="evenodd"><path d="M2.267 2.267H117.42v30.175H2.266V2.267zM0 34.71h119.72V0H0v34.71z" fill="#333"/><g><mask id="b" fill="#fff"><use xlink:href="#a"/></mask><path d="M9.453 5.198h1.43v3h.036c.278-.454.66-.768 1.324-.768.698 0 1.465.454 1.465 1.71v5.407h-1.43V9.663c0-.523-.245-.837-.7-.837-.522 0-.696.348-.696.976v4.745h-1.43v-9.35z" fill="#203232" mask="url(#b)"/></g><g><mask id="d" fill="#fff"><use xlink:href="#c"/></mask><path d="M15.802 10.465h1.396v-.802c0-.523-.28-.803-.698-.803-.42 0-.698.28-.698.803v.802zm0 1.116v.943c0 .454.28.698.698.698.558 0 .663-.418.698-.697h1.43c0 .593-.21 1.117-.558 1.5-.384.384-.872.628-1.535.628-.872 0-1.5-.417-1.85-1.01-.173-.35-.243-.873-.243-1.43V9.906c0-.558.07-1.08.244-1.43.35-.628.977-1.012 1.85-1.012 1.29 0 2.127.942 2.127 2.198v1.953h-2.86v-.035z" fill="#203232" mask="url(#d)"/></g><g><mask id="f" fill="#fff"><use xlink:href="#e"/></mask><path d="M8.547 8.86h.174V7.5H7.675V5.198H6.28v7.708c0 .734.418 1.64 1.708 1.64h.733v-1.325h-.173c-.628 0-.873-.034-.873-.697V8.86h.873z" fill="#203232" mask="url(#f)"/></g><path d="M6.244 15.767h12.35v2.617H6.243" fill="#333"/><path d="M6.244 24.28h12.35v2.615H6.243" fill="#6DC4BC"/><path d="M6.244 20.023h12.35v2.617H6.243" fill="#F25736"/><path d="M32.233 7.5h8.302v2.616h-5.512v5.72h4.814v2.617h-4.814v5.72h5.512v2.792h-8.302V7.5zM42.35 7.5h8.3v2.616h-5.51v5.65h4.813v2.618H45.14v8.58h-2.79V7.5zM52.465 7.5h8.302v2.616h-5.51v5.72h4.813v2.617h-4.814v5.72h5.51v2.792h-8.3V7.5zM73.78 7.5h8.3v2.616h-5.51v5.72h4.814v2.617H76.57v5.72h5.51v2.792h-8.3V7.5zM83.79 7.5h2.687l4.186 11.72h.07V7.5h2.79v19.465h-2.65L86.615 15.28h-.035v11.685h-2.79V7.5z" fill="#333"/><g><mask id="h" fill="#fff"><use xlink:href="#g"/></mask><path d="M104.407 22.605c0 2.407-1.954 4.5-4.43 4.5-2.128 0-4.605-1.047-4.605-4.57v-10.71c0-2.546 1.814-4.465 4.535-4.465 2.58 0 4.465 1.954 4.465 4.64v1.08h-2.79v-.94c0-1.082-.663-2.024-1.71-2.024-1.395 0-1.71.942-1.71 2.268v9.942c0 1.116.454 1.988 1.71 1.988.768 0 1.744-.454 1.744-1.954v-.94h2.79v1.185z" fill="#333" mask="url(#h)"/></g><path d="M105.802 7.5h8.303v2.616h-5.512v5.72h4.814v2.617h-4.814v5.72h5.512v2.792h-8.303V7.5z" fill="#203232"/><g><g><mask id="j" fill="#fff"><use xlink:href="#i"/></mask><path d="M23.79 9.872h1.43c2.06 0 2.373 1.08 2.373 3.035 0 1.953-.314 2.826-2.233 2.826h-1.57v-5.86zm4.5 7.92c1.5-1.048 2.13-2.722 2.13-4.815 0-3.768-1.606-5.512-4.92-5.512H21v19.43h2.79V18.42h.35c2.058 0 2.51.836 2.825 3.033.628 4.64.628 5.442.628 5.442h2.79l-.627-4.64c-.28-2.057-.663-3.522-1.465-4.464z" fill="#333" mask="url(#j)"/></g><g><mask id="l" fill="#fff"><use xlink:href="#k"/></mask><path d="M65.442 9.872h1.43c2.058 0 2.372 1.08 2.372 3.035 0 1.953-.314 2.826-2.232 2.826h-1.57v-5.86zm4.5 7.92c1.5-1.048 2.128-2.722 2.128-4.815 0-3.768-1.605-5.512-4.92-5.512h-4.464v19.43h2.79V18.42h.35c2.058 0 2.51.836 2.825 3.033.63 4.64.63 5.442.63 5.442h2.79l-.628-4.64c-.314-2.057-.698-3.522-1.5-4.464z" fill="#333" mask="url(#l)"/></g></g></g></svg>