<?xml version="1.0" standalone="no"?>
<!DOCTYPE svg PUBLIC "-//W3C//DTD SVG 20010904//EN"
 "http://www.w3.org/TR/2001/REC-SVG-20010904/DTD/svg10.dtd">
<svg version="1.0" xmlns="http://www.w3.org/2000/svg"
 width="400.000000pt" height="400.000000pt" viewBox="0 0 400.000000 400.000000"
 preserveAspectRatio="xMidYMid meet">
<metadata>
Created by potrace 1.11, written by Peter Selinger 2001-2013
</metadata>
<g transform="translate(0.000000,400.000000) scale(0.100000,-0.100000)"
fill="#000000" stroke="none">
<path d="M1890 3654 c-420 -36 -774 -198 -1060 -484 -255 -255 -415 -572 -471
-935 -16 -103 -16 -367 0 -470 114 -735 671 -1292 1406 -1406 103 -16 367 -16
470 0 735 114 1292 671 1406 1406 16 103 16 367 0 470 -56 362 -216 681 -471
935 -252 252 -579 418 -925 469 -81 12 -289 21 -355 15z m268 -165 c812 -88
1409 -812 1334 -1616 -34 -364 -173 -665 -425 -922 -410 -418 -1023 -559
-1574 -361 -415 149 -754 488 -903 903 -198 551 -57 1164 361 1574 326 319
760 471 1207 422z"/>
<path d="M1850 3348 c-582 -60 -1062 -500 -1187 -1088 -14 -64 -18 -129 -18
-265 0 -189 11 -266 58 -417 l22 -71 229 326 c225 322 229 326 246 304 9 -12
90 -127 179 -255 90 -128 167 -230 171 -225 5 4 146 253 315 553 168 300 309
548 313 552 4 4 117 -188 251 -427 238 -424 244 -433 261 -412 9 12 43 60 75
107 32 47 66 95 76 107 16 22 19 18 230 -282 160 -228 216 -301 222 -289 5 8
20 58 33 112 34 131 44 390 20 533 -100 611 -596 1076 -1215 1139 -116 11
-159 11 -281 -2z"/>
</g>
</svg>
