<svg xmlns="http://www.w3.org/2000/svg" width="25" height="22" fill="none"><g clip-path="url(#a)"><path fill="#000" d="M5.634 1.828c2.76 2.072 5.729 6.273 6.819 8.528 1.09-2.254 4.059-6.456 6.819-8.528 1.992-1.496 5.219-2.652 5.219 1.029 0 .735-.422 6.176-.67 7.06-.859 3.07-3.99 3.854-6.776 3.38 4.87.828 6.108 3.573 3.433 6.318-5.08 5.213-7.302-1.308-7.871-2.979-.105-.306-.154-.45-.154-.328-.001-.121-.05.022-.154.328-.57 1.671-2.791 8.192-7.872 2.98-2.675-2.746-1.436-5.49 3.433-6.32-2.786.475-5.917-.309-6.776-3.38-.248-.883-.67-6.324-.67-7.06 0-3.68 3.228-2.524 5.22-1.028"/></g><defs><clipPath id="a"><path fill="#fff" d="M0 0h24.906v22H0z"/></clipPath></defs></svg>