<svg xmlns="http://www.w3.org/2000/svg" xml:space="preserve" style="fill-rule:evenodd;clip-rule:evenodd;stroke-linejoin:round;stroke-miterlimit:2" viewBox="0 0 24 23"><path d="M11.438 0C17.953 0 23.25 4.969 23.25 11.438c0 5.203-3.188 9.656-7.875 11.203-.609.14-.844-.235-.844-.563 0-.375.047-2.344.047-3.89 0-1.125-.375-1.829-.797-2.204 2.625-.281 5.391-.656 5.391-5.156 0-1.312-.469-1.922-1.219-2.765.094-.329.516-1.547-.14-3.188-.985-.328-3.235 1.266-3.235 1.266-.937-.282-1.922-.375-2.953-.375-.984 0-1.969.093-2.906.375 0 0-2.297-1.547-3.235-1.266-.656 1.641-.281 2.859-.14 3.188-.75.843-1.125 1.453-1.125 2.765 0 4.5 2.672 4.875 5.297 5.156-.375.329-.657.844-.75 1.594-.704.328-2.391.844-3.422-.984-.656-1.125-1.828-1.219-1.828-1.219-1.125 0-.047.75-.047.75.75.328 1.265 1.688 1.265 1.688.704 2.109 3.985 1.406 3.985 1.406v2.906c0 .281-.188.656-.797.563C3.234 21.094 0 16.641 0 11.438 0 4.969 4.969 0 11.438 0" style="fill-rule:nonzero"/></svg>