<svg width="272" height="272" viewBox="0 0 272 272" fill="none" xmlns="http://www.w3.org/2000/svg">
<path d="M0.158997 5.5C0.158997 2.73858 2.39757 0.5 5.159 0.5H266.159C268.92 0.5 271.159 2.73858 271.159 5.5V121.5C271.159 204.343 204.002 271.5 121.159 271.5H5.159C2.39758 271.5 0.158997 269.261 0.158997 266.5V5.5Z" fill="black"/>
<path d="M14.8097 0.0050849C20.4873 -0.00794148 27.9298 0.00598687 33.586 0.0251044C35.3587 0.0310336 34.461 0.0575377 35.6847 0.062824C38.078 0.0731291 40.3076 0.0601304 42.6727 0.0724065C43.4565 0.0766045 42.4808 0.118587 43.3027 0.122028C47.8064 0.140582 52.067 0.129888 56.6293 0.138813C79.1017 0.182843 101.191 0.198602 123.939 0.217731C131.439 0.224002 140.557 0.262103 148.304 0.245441C149.208 0.243458 148.669 0.206608 148.841 0.203571C151.54 0.157075 150.643 0.231467 152.405 0.241351C159.398 0.280377 167.175 0.283771 173.906 0.269549C176.769 0.263391 173.898 0.190198 176.781 0.23128C176.982 0.234056 176.255 0.273188 177.04 0.277362C178.821 0.286749 182.2 0.279755 183.58 0.282855C186.24 0.289028 186.68 0.288635 189.196 0.289081C192.635 0.290031 196.726 0.309483 200.416 0.300616C201.204 0.298607 200.161 0.258493 201.417 0.251666C202.674 0.244851 206.001 0.248252 207.122 0.257709C208.244 0.26717 207.766 0.298699 207.964 0.305926C209.597 0.366925 213.445 0.282442 213.94 0.280353C222.966 0.244753 230.706 0.29288 239.178 0.292743C245.61 0.292536 252.488 0.276648 258.608 0.278827C261.238 0.279819 263.724 0.283282 266.159 0.287129C268.951 0.235248 271.419 2.7116 271.361 5.5C271.359 7.18104 271.358 8.88697 271.359 10.6488C271.36 11.3964 271.407 10.5204 271.407 11.4334C271.413 21.1337 271.408 30.7665 271.376 40.425C271.373 41.3936 271.331 40.1453 271.326 41.113C271.292 47.0379 271.21 56.4128 271.39 59.9318C271.383 63.9452 271.376 68.8176 271.339 72.4081C271.316 74.7231 271.271 72.4746 271.29 75.3185C271.294 75.9598 271.334 75.1257 271.337 76.0876C271.352 80.1372 271.339 84.5616 271.359 88.5678C271.364 89.3826 271.399 89.1601 271.405 89.391C271.457 91.3314 271.372 94.5616 271.366 95.2659C271.319 100.628 271.338 104.544 271.336 109.539C271.336 110.699 271.384 109.328 271.385 110.444C271.389 114.091 271.389 117.822 271.383 121.5C271.38 123.671 271.328 125.814 271.233 127.9C271.173 129.156 271.184 127.999 271.152 128.599C271 131.252 271.035 131.856 270.813 134.391C270.764 134.925 270.755 134.621 270.743 134.719C270.551 136.236 270.492 137.568 270.451 137.964C269.916 142.936 269.338 146.079 268.434 150.807C268.323 151.372 268.621 150.109 268.304 151.694C266.174 162.292 262.622 173.23 258.19 182.962C257.499 184.475 257.959 183.38 257.912 183.473C257.149 184.999 256.749 186.026 256.517 186.516C254.683 190.388 252.712 193.856 251.344 196.425C242.269 212.101 230.44 226.099 216.51 237.445C216.333 237.589 216.623 237.297 216.27 237.584C211.987 241.006 212.835 240.384 209.977 242.624C209.257 243.188 206.931 244.718 206.722 244.848C205.97 245.338 206.699 244.757 206.449 244.924C204.376 246.294 204.837 246.249 202.022 248.072C201.934 248.128 202.284 247.858 202.045 248.007C201.303 248.469 200.577 248.943 199.842 249.381C198.153 250.377 197.516 250.657 194.948 252.189C194.62 252.377 195.192 252.214 192.561 253.646C191.525 254.232 186.815 256.636 185.464 257.24C184.125 257.863 185.026 257.396 184.93 257.44C181.297 259.064 182.656 258.408 180.801 259.147C178.939 259.869 179.515 259.807 178.774 260.141C178.034 260.478 175.306 261.519 174.627 261.755C173.951 261.997 174.78 261.656 174.18 261.875C170.196 263.294 172.47 262.598 171.169 263.098C168.096 264.249 165.603 264.901 162.721 265.722C161.938 265.942 162.584 265.789 161.888 265.989C159.121 266.769 157.447 267.161 154.273 267.923C153.756 268.05 151.18 268.688 149.499 268.944C149.26 268.98 149.928 268.822 148.727 269.04C146.936 269.37 143.669 269.893 141.736 270.161C140.303 270.361 141.956 270.198 140.145 270.416C139.339 270.509 140.827 270.293 139.313 270.468C137.801 270.652 133.955 271.027 132.483 271.125C131.015 271.232 131.821 271.214 131.703 271.226C130.987 271.299 128.153 271.472 127.912 271.476C125.645 271.577 123.396 271.625 121.159 271.622C111.1 271.609 101.501 271.566 91.4674 271.585C90.5061 271.586 91.1464 271.629 90.9998 271.63C87.7086 271.648 90.3035 271.534 88.0044 271.496C88.3366 271.583 86.9795 271.567 84.6611 271.577C83.5439 271.581 84.1524 271.615 84.0504 271.618C82.3937 271.669 81.2401 271.603 80.943 271.59C79.8458 271.54 78.6517 271.599 77.905 271.566C77.1589 271.533 78.8762 271.484 76.6528 271.485C76.0293 271.516 77.68 271.597 75.9919 271.61C69.6227 271.66 57.7335 271.596 52.6123 271.59C47.5014 271.583 45.8506 271.589 42.8724 271.577C37.4929 271.557 39.4644 271.617 36.1241 271.645C32.774 271.672 34.4026 271.524 33.921 271.493C33.4484 271.461 32.9321 271.494 32.3441 271.476C31.758 271.459 33.0269 271.437 31.6484 271.43C30.2691 271.424 26.4982 271.48 26.0093 271.514C24.9758 271.584 26.6751 271.658 23.0255 271.632C22.8157 271.631 23.4968 271.592 22.6931 271.588C16.927 271.561 10.9585 271.557 5.159 271.536C4.53309 271.535 3.91043 271.416 3.33345 271.188C2.52898 270.83 3.26189 271.118 2.80657 270.89C0.81828 269.681 0.643865 268.518 0.408754 268.043C0.232827 267.501 0.140177 267.312 0.0843977 266.5C0.0741553 266.255 0.0635553 265.954 0.0528132 265.568C0.160681 266.222 0.226675 264.611 0.227312 260.578C0.227733 258.153 0.180622 258.571 0.147417 257.003C0.137408 256.532 0.169756 254.817 0.1476 254.506C0.0751763 253.481 -0.00589788 255.097 0.026385 250.938C0.0279192 250.756 0.0675631 251.337 0.069964 250.707C0.085679 246.632 0.00992443 246.144 0.000750348 241.74C-0.00644818 238.287 0.039746 232.147 0.047259 228.216C0.168534 228.299 0.140763 224.586 0.0571467 223.079C0.0605699 220.528 0.0558429 217.773 0.0674005 215.307C0.0713409 214.458 0.106453 215.016 0.110247 214.909C0.169762 213.268 0.088412 212.159 0.0852227 211.608C0.0542207 205.64 0.115877 200.777 0.0556208 195.081C0.0534505 194.879 -0.0307907 194.551 0.0307185 193.029C0.0349584 192.93 0.0732867 194.811 0.0762506 192.132C0.0792212 189.452 0.124381 184.4 0.0853448 180.68C0.0759472 179.78 0.00756039 177.502 0.0609919 175.675C0.0682474 175.431 0.092408 175.698 0.105853 175.346C0.148692 174.21 0.0635451 173.59 0.135882 172.254C0.208215 170.919 0.262388 168.141 0.212481 164.389C0.21103 164.269 0.143543 163.381 0.14461 162.201C0.146371 160.318 0.16043 157.644 0.159991 155.677C0.159756 154.735 0.117849 155.338 0.117083 155.175C0.0936003 148.843 0.130959 144.337 0.147173 137.554C0.150228 136.311 0.0930829 132.737 0.138262 130.33C0.187719 127.687 0.393453 130.403 0.344438 124.328C0.324833 121.877 0.0638231 118.775 0.199053 114.372C0.165544 105.831 0.234754 97.933 0.186907 89.3687C0.184787 88.9836 0.111941 87.7657 0.112933 86.8603C0.114545 85.5162 0.148592 84.7783 0.150835 83.8186C0.161091 79.7968 0.131961 76.1165 0.136492 72.2389C0.138138 70.7668 0.173343 71.2816 0.17531 69.5257C0.177245 67.7709 0.130888 66.6008 0.153277 64.2229C0.170342 62.427 0.265096 60.6313 0.27614 58.2475C0.182677 58.1566 0.184602 56.5194 0.15993 53.6095C0.155143 53.0501 0.122612 53.65 0.11867 53.3853C0.101904 52.3085 0.128864 51.3119 0.110613 50.2894C0.10623 50.0407 0.0743115 50.029 0.0689264 49.8256C0.0219206 48.0965 0.0937178 45.2479 0.106219 44.7586C0.153695 42.8835 0.112181 42.0071 0.130877 40.5689C0.14957 39.133 0.172939 41.28 0.184282 39.6026C0.207746 36.1258 0.202591 31.6585 0.204058 28.1274C0.204446 26.7184 0.16184 27.6797 0.160906 27.478C0.1501 24.5646 0.195421 21.6185 0.110552 20.0031C0.32999 17.9831 0.0892679 18.2463 0.133196 14.0819C0.136749 13.7538 0.24052 13.3365 0.255754 14.5959C0.270975 15.8552 0.238537 17.7649 0.262285 19.5122C0.267858 19.926 0.365098 22.2963 0.370988 22.6197C0.417023 25.153 0.261952 25.512 0.253435 25.646C0.16152 27.1659 0.266277 30.0624 0.273516 30.8252C0.306683 34.3146 0.284875 37.2793 0.30855 40.1979C0.323851 42.1067 0.425428 42.2934 0.422319 43.7923C0.412042 48.775 0.270341 50.5143 0.393205 55.2096C0.41941 56.2164 0.530431 55.2159 0.443132 58.8234C0.437628 59.05 0.357766 61.7285 0.408281 63.2759C0.41465 63.4703 0.447005 63.4641 0.449724 63.7204C0.467305 65.4381 0.441529 66.5838 0.453874 68.4551C0.466219 70.3261 0.484623 72.5761 0.473649 74.7125C0.467087 76 0.406804 77.652 0.392045 78.2684C0.349529 80.0087 0.419238 81.8746 0.367754 82.9528C0.31601 84.04 0.237429 81.9145 0.203997 84.7655C0.288059 84.871 0.37434 85.1136 0.458879 85.2834C0.455919 91.5313 0.428737 97.6789 0.432451 103.948C0.432995 104.725 0.478187 103.93 0.479936 104.763C0.487115 108.278 0.454899 111.349 0.467729 114.994C0.477832 117.816 0.525681 120.91 0.537736 123.86C0.441545 125.662 0.4742 130.041 0.46541 133.221C0.462372 134.335 0.436682 134.261 0.4283 135.053C0.397303 138.043 0.482306 136.642 0.495683 137.461C0.552775 140.977 0.360375 141.278 0.365129 145.423C0.365316 145.643 0.467873 148.327 0.47426 148.697C0.515905 151.046 0.438563 149.086 0.430986 150.556C0.417138 153.24 0.392646 155.106 0.422685 158.255C0.431582 159.173 0.495505 161.376 0.446061 163.16C0.439587 163.394 0.405688 163.265 0.403703 163.454C0.370611 166.872 0.477126 166.962 0.5132 168.915C0.549266 170.868 0.475737 173.886 0.454545 174.5C0.399723 176.106 0.431116 173.269 0.425737 173.182C0.361713 172.16 0.372736 174.36 0.367326 176.042C0.262887 176.285 0.269156 178.637 0.362138 177.785C0.372294 177.688 0.362555 176.38 0.367326 176.042C0.469795 177.518 0.482918 180.102 0.387163 182.956C0.342283 184.293 0.289956 183.029 0.309099 187.088C0.31774 188.93 0.389652 188.218 0.409257 189.844C0.453989 193.558 0.386908 198.383 0.397478 202.212C0.401315 203.602 0.440679 202.248 0.444658 203.198C0.45534 205.718 0.425805 207.941 0.440934 210.472C0.442355 210.701 0.483561 210.141 0.484086 210.928C0.488872 216.895 0.462479 222.09 0.461747 228.32C0.461413 231.33 0.484139 236.712 0.47957 239.83C0.471894 245.235 0.411974 251.883 0.42653 256.5C0.435848 259.511 0.477062 258.851 0.505143 260.141C0.545457 261.985 0.502432 264.881 0.471267 266.5C0.460791 267.034 0.538743 267.416 0.566151 267.558C0.563372 267.568 0.432336 266.952 0.438766 266.5C0.433631 266.042 0.425998 265.762 0.415605 266.441C0.414513 266.461 0.413494 266.481 0.412546 266.5C0.384647 267.231 0.568178 267.533 0.566151 267.558C0.588154 267.724 0.926473 269.078 1.99802 270.011C3.02644 270.995 4.56358 271.245 5.03662 271.222C5.08344 271.223 5.12396 271.222 5.159 271.221C5.53781 271.212 5.30185 271.18 5.5672 271.178C12.4887 271.143 19.4222 271.134 26.4422 271.152C26.5658 271.153 26.3796 271.196 26.6702 271.198C30.7343 271.217 33.3366 271.164 36.6884 271.132C40.0397 271.1 42.6974 271.111 44.6813 271.186C47.2099 271.176 50.8377 271.209 52.9254 271.23C55.0129 271.25 55.3042 271.165 55.4879 271.163C61.217 271.109 64.5288 271.158 70.4726 271.165C73.2984 271.169 78.9037 271.157 81.9633 271.147C84.3814 271.14 85.8381 271.16 88.0662 271.147C88.3676 271.146 88.0631 271.108 88.1551 271.106C90.6417 271.061 89.4467 271.153 89.9601 271.17C91.8214 271.23 92.9714 271.262 96.1557 271.234C96.8902 271.227 99.0297 271.094 100.369 271.086C102.109 271.076 101.452 271.124 103.275 271.113C103.431 271.112 103.399 271.082 104.523 271.083C109.745 271.089 115.438 271.106 120.865 271.103C121.045 271.103 121.125 271.1 121.159 271.096C121.263 271.083 120.916 271.057 121.728 271.054C126.754 271.037 132.24 270.733 137.086 270.235C138.285 270.112 137.537 270.225 137.799 270.206C139.404 270.093 141.643 269.707 142.012 269.651C150.853 268.331 157.572 266.908 166.262 264.173C166.74 264.031 170.338 262.747 171.956 262.231C172.066 262.198 173.682 261.698 175.053 261.107C175.138 261.069 174.145 261.413 175.854 260.751C177.562 260.088 180.272 258.934 182.588 257.935C183.322 257.62 185.067 256.915 187.177 255.805C187.32 255.74 190.531 253.954 191.724 253.412C191.917 253.321 191.779 253.539 194.239 252.11C194.706 251.835 193.838 252.299 195.074 251.582C196.967 250.481 199.471 249.017 201.712 247.522C202.104 247.263 203.739 246.118 205.093 245.26C205.305 245.126 204.931 245.424 205.632 244.95C208.965 242.69 212.33 240.147 215.513 237.586C216.638 236.676 216.104 237.191 217.274 236.236C218.446 235.283 220.748 233.292 221.894 232.204C223.041 231.116 221.713 232.222 223.441 230.605C230.918 223.547 237.673 215.853 243.591 207.456C244.463 206.207 243.721 207.23 244.989 205.376C249.778 198.609 256.475 185.951 259.173 179.286C261.401 173.986 258.715 180.706 260.382 176.638C261.178 174.669 261.866 172.466 262.032 171.987C263.674 167.263 264.728 163.949 265.873 159.584C266.106 158.681 265.835 159.555 266.031 158.787C266.694 156.178 267.343 153.4 267.842 150.867C268.064 149.732 267.991 149.935 268.19 148.889C268.657 146.385 269.028 144.144 269.391 141.694C269.424 141.47 269.261 142.989 269.513 141.12C269.917 138.084 270.324 134.321 270.504 130.799C270.555 129.755 270.494 129.702 270.639 127.476C270.664 127.006 270.747 127.611 270.739 124.998C270.738 124.745 270.735 123.193 270.716 121.5C270.703 120.245 270.7 118.917 270.729 117.996C270.747 117.426 270.82 115.973 270.809 114.715C270.807 114.544 270.767 115.227 270.763 114.185C270.75 110.512 270.754 106.662 270.741 102.888C270.738 101.88 270.697 103.381 270.693 101.879C270.682 97.7484 270.693 92.5914 270.706 88.5523C270.711 87.0632 270.745 88.0925 270.749 87.9841C270.81 86.2417 270.727 85.2114 270.723 84.6332C270.694 81.0364 270.733 78.2975 270.722 74.9822C270.72 74.0672 270.681 74.716 270.677 74.5339C270.643 72.645 270.713 74.0521 270.721 72.8564C270.743 69.5071 270.74 65.7732 270.735 62.3861C270.733 61.1419 270.688 62.5402 270.686 61.4237C270.678 54.8151 270.683 47.9451 270.708 41.4956C270.713 40.2812 270.748 41.0453 270.756 40.7922C270.811 39.0478 270.735 36.4912 270.728 35.9029C270.695 33.2282 270.726 32.1892 270.72 29.8271C270.701 22.3088 270.703 13.6407 270.711 5.5C270.768 2.98762 268.484 0.870212 266.159 0.939899C264.61 0.938079 263.106 0.936264 261.661 0.934586C247.467 0.918309 236.454 0.885059 222.918 0.893693C222.058 0.894198 222.925 0.940695 222.184 0.941727C212.61 0.952936 203.184 0.934767 193.59 0.948197C192.803 0.949217 193.938 0.993297 192.674 0.996415C190.083 1.00312 186.8 1.00072 184.179 0.986649C182.901 0.979868 184.615 0.942043 183.329 0.93599C180.333 0.921809 177.122 0.91867 174.045 0.925736C172.736 0.92884 174.711 0.973922 173.009 0.974442C161.415 0.978915 150.029 0.986679 138.313 0.9283C137.51 0.92429 136.805 0.832665 135.097 0.850236C134.968 0.875664 134.975 0.905576 134.919 0.932755C118.042 0.947396 101.336 0.915633 84.4111 0.910722C83.6975 0.910525 84.9308 0.959073 83.5492 0.958939C75.5531 0.958222 67.7884 0.971671 59.6092 0.923417C58.7977 0.918698 59.2141 0.833291 56.8225 0.846208C56.4008 0.848565 52.7988 0.859955 51.8676 0.878495C51.7411 0.881292 52.3982 0.921156 51.2376 0.922318C44.4926 0.928372 37.4244 0.919271 30.6911 0.894914C29.6044 0.890906 30.7617 0.848454 29.9877 0.845231C24.4973 0.822696 18.5254 0.854967 13.2792 0.816423C9.76748 0.79047 11.0676 0.717087 9.20155 0.644853C8.93761 0.634662 6.76308 0.633047 6.65063 0.591021C6.36193 0.48534 7.41521 0.369621 6.98302 0.256976C6.89171 0.232713 3.97945 0.258846 5.7037 0.200214C5.82415 0.19629 7.93556 0.17683 8.4556 0.15694C8.81767 0.143188 8.16521 0.100447 8.90394 0.0828435C9.64261 0.0652564 10.4543 0.101084 11.679 0.080402C12.9032 0.0594636 12.3649 0.0108407 14.8097 0.0050849ZM62.3251 271.319C64.2581 271.36 64.5433 271.211 62.4527 271.246C62.3514 271.248 62.2254 271.317 62.3251 271.319ZM0.315935 97.6437C0.249974 100.171 0.346963 101.9 0.397905 100.117C0.448792 98.3348 0.33593 96.8738 0.315935 97.6437ZM0.267778 71.4389C0.215771 74.3924 0.427835 74.8573 0.384965 71.694C0.382543 71.51 0.270798 71.2662 0.267778 71.4389ZM17.8553 0.624285C17.8287 0.622299 16.2655 0.620363 16.2282 0.622331C15.3958 0.669827 18.5215 0.673665 17.8553 0.624285ZM0.215349 45.435C0.186663 46.3569 0.219778 49.0117 0.255449 47.8661C0.284146 46.9438 0.251033 44.2867 0.215349 45.435ZM162.623 265.674C162.653 265.669 163.728 265.357 163.703 265.351C163.619 265.335 162.126 265.778 162.623 265.674ZM1.90318 1.77655C0.676054 2.83866 0.183442 4.33967 0.181536 5.5C0.132952 8.84222 0.0457795 9.84338 0.048005 5.5C0.0481671 5.22054 0.070989 4.91952 0.128289 4.60145C0.288657 3.89663 0.0522524 4.79704 0.0852323 5.5C0.0994221 6.06888 0.11403 6.49399 0.121172 5.75272C0.121988 5.66768 0.122692 5.58347 0.123292 5.5C0.225807 2.67476 2.07894 0.535838 5.10191 0.440213C5.3863 0.455867 4.56617 0.418183 3.70198 0.716971C2.82424 0.989322 2.02664 1.65333 1.89471 1.7843C1.89753 1.78171 1.90035 1.77913 1.90318 1.77655ZM63.4383 271.499C63.4769 271.501 65.0282 271.503 65.0654 271.501C65.9055 271.453 62.7803 271.45 63.4383 271.499ZM219.654 234.729C219.729 234.684 222.418 232.288 222.495 232.198C223.843 230.889 218.413 235.735 219.654 234.729ZM0.0504938 228.154C0.00273161 226.461 -0.00289187 224.436 0.0570856 223.087C0.0539017 224.769 0.0534327 226.463 0.0504938 228.154Z" fill="black" fill-opacity="0.05"/>
</svg>
