<?xml version="1.0" encoding="UTF-8" standalone="no"?><!DOCTYPE svg PUBLIC "-//W3C//DTD SVG 1.1//EN" "http://www.w3.org/Graphics/SVG/1.1/DTD/svg11.dtd"><svg width="100%" height="100%" viewBox="0 0 133 37" version="1.1" xmlns="http://www.w3.org/2000/svg" xmlns:xlink="http://www.w3.org/1999/xlink" xml:space="preserve" xmlns:serif="http://www.serif.com/" style="fill-rule:evenodd;clip-rule:evenodd;stroke-linejoin:round;stroke-miterlimit:2;"><path d="M0.748,25.24c-0.925,0.83 -1.003,2.252 -0.173,3.178c0.829,0.925 2.252,1.003 3.177,0.173l-3.004,-3.351Zm6.566,0.277c0.956,-0.794 1.088,-2.212 0.294,-3.168c-0.793,-0.957 -2.212,-1.088 -3.168,-0.295l2.874,3.463Zm4.778,-9.307c-1.019,0.712 -1.268,2.115 -0.556,3.134c0.712,1.018 2.115,1.267 3.133,0.555l-2.577,-3.689Zm10.427,-1.271c1.081,-0.612 1.461,-1.985 0.849,-3.067c-0.612,-1.081 -1.985,-1.461 -3.067,-0.849l2.218,3.916Zm6.459,-8.252c-1.14,0.496 -1.662,1.821 -1.167,2.961c0.495,1.139 1.82,1.662 2.96,1.167l-1.793,-4.128Zm10.448,0.941c1.189,-0.36 1.861,-1.617 1.5,-2.806c-0.36,-1.189 -1.616,-1.861 -2.806,-1.501l1.306,4.307Zm8.165,-6.559c-1.225,0.212 -2.045,1.377 -1.832,2.602c0.213,1.224 1.378,2.044 2.602,1.831l-0.77,-4.433Zm9.902,3.429c1.241,-0.059 2.2,-1.112 2.141,-2.354c-0.058,-1.241 -1.112,-2.2 -2.353,-2.141l0.212,4.495Zm9.543,-4.35c-1.239,-0.095 -2.32,0.833 -2.415,2.072c-0.094,1.239 0.834,2.32 2.073,2.415l0.342,-4.487Zm8.785,5.729c1.22,0.239 2.402,-0.556 2.64,-1.776c0.239,-1.219 -0.556,-2.401 -1.776,-2.64l-0.864,4.416Zm10.282,-2.027c-1.186,-0.37 -2.448,0.292 -2.818,1.478c-0.369,1.187 0.293,2.448 1.479,2.818l1.339,-4.296Zm7.352,7.498c1.143,0.486 2.465,-0.046 2.952,-1.19c0.486,-1.143 -0.046,-2.464 -1.189,-2.951l-1.763,4.141Zm10.494,0.068c-1.094,-0.59 -2.459,-0.182 -3.049,0.911c-0.59,1.094 -0.183,2.459 0.91,3.049l2.139,-3.96Zm5.831,8.731c1.037,0.685 2.433,0.399 3.117,-0.638c0.685,-1.037 0.4,-2.433 -0.638,-3.117l-2.479,3.755Zm10.316,1.95c-0.967,-0.779 -2.384,-0.626 -3.163,0.342c-0.78,0.968 -0.627,2.384 0.341,3.163l2.822,-3.505Zm-116.344,6.494c1.19,-1.066 2.377,-2.091 3.562,-3.074l-2.874,-3.463c-1.229,1.021 -2.46,2.082 -3.692,3.186l3.004,3.351Zm10.917,-8.692c2.636,-1.841 5.254,-3.49 7.85,-4.96l-2.218,-3.916c-2.722,1.542 -5.46,3.267 -8.209,5.187l2.577,3.689Zm16.102,-9.084c2.92,-1.269 5.808,-2.324 8.655,-3.187l-1.306,-4.307c-3.013,0.914 -6.063,2.029 -9.142,3.366l1.793,4.128Zm17.59,-5.313c3.103,-0.539 6.15,-0.864 9.132,-1.004l-0.212,-4.495c-3.165,0.148 -6.398,0.493 -9.69,1.066l0.77,4.433Zm18.333,-0.867c3.136,0.239 6.182,0.666 9.127,1.242l0.864,-4.416c-3.107,-0.608 -6.328,-1.06 -9.649,-1.313l-0.342,4.487Zm18.07,3.511c3.05,0.95 5.952,2.036 8.691,3.202l1.763,-4.141c-2.867,-1.22 -5.911,-2.359 -9.115,-3.357l-1.339,4.296Zm17.046,7.23c2.967,1.601 5.635,3.23 7.97,4.771l2.479,-3.755c-2.433,-1.607 -5.216,-3.305 -8.31,-4.976l-2.139,3.96Zm15.464,10.226c1.131,0.911 1.995,1.654 2.571,2.165c0.289,0.256 0.505,0.453 0.646,0.584c0.072,0.066 0.123,0.115 0.157,0.146c0.017,0.016 0.029,0.027 0.035,0.034c0.004,0.003 0.006,0.005 0.007,0.006c0.001,0.001 0.001,0.001 0.001,0.001l-0,-0c-0.001,-0 -0.001,-0.001 -0.001,-0.001c0,0 0,0 1.56,-1.621c1.56,-1.622 1.56,-1.622 1.56,-1.622c0,0 -0.001,0 -0.001,-0c0,-0 0,-0 -0,-0.001c-0,-0 -0.001,-0.001 -0.002,-0.001c-0.001,-0.001 -0.002,-0.003 -0.004,-0.005c-0.004,-0.003 -0.009,-0.008 -0.015,-0.014c-0.012,-0.012 -0.03,-0.028 -0.051,-0.049c-0.045,-0.041 -0.108,-0.1 -0.19,-0.176c-0.164,-0.152 -0.404,-0.371 -0.716,-0.648c-0.627,-0.555 -1.545,-1.344 -2.735,-2.303l-2.822,3.505Z" style="fill-opacity:0.75;fill-rule:nonzero;"/><path d="M132.463,34.535c0.097,1.337 -0.989,2.463 -2.33,2.412l-11.864,-0.451c-1.943,-0.074 -2.884,-2.413 -1.533,-3.812l10.999,-11.389c1.351,-1.4 3.721,-0.541 3.863,1.398l0.865,11.842Z" style="fill:url(#_Linear1);fill-rule:nonzero;"/><defs><linearGradient id="_Linear1" x1="0" y1="0" x2="1" y2="0" gradientUnits="userSpaceOnUse" gradientTransform="matrix(2.21025,16.6583,-16.6582,2.21025,128.25,19.0408)"><stop offset="0" style="stop-color:#4d4d4d;stop-opacity:0.75"/><stop offset="0.45" style="stop-color:#000;stop-opacity:0.75"/><stop offset="1" style="stop-color:#000;stop-opacity:0.75"/></linearGradient></defs></svg>