<svg width="191" height="64" viewBox="0 0 191 64" fill="none" xmlns="http://www.w3.org/2000/svg">
<path d="M0.99756 33.6539C-0.23618 34.7598 -0.3398 36.6565 0.766117 37.8902C1.87203 39.124 3.7687 39.2276 5.00244 38.1217L0.99756 33.6539ZM9.75192 34.0226C11.0268 32.9644 11.2025 31.0731 10.1443 29.7982C9.08611 28.5233 7.19475 28.3476 5.91985 29.4058L9.75192 34.0226ZM16.1224 21.614C14.7643 22.563 14.4326 24.4333 15.3816 25.7915C16.3306 27.1496 18.2009 27.4813 19.5591 26.5323L16.1224 21.614ZM30.0253 19.9186C31.467 19.1021 31.9739 17.2715 31.1574 15.8298C30.341 14.388 28.5104 13.8812 27.0686 14.6976L30.0253 19.9186ZM38.637 8.91657C37.1174 9.57675 36.4207 11.3439 37.0808 12.8635C37.741 14.3831 39.5081 15.0799 41.0278 14.4197L38.637 8.91657ZM52.5676 10.1707C54.1532 9.69018 55.049 8.0152 54.5685 6.42957C54.0879 4.84393 52.4129 3.94809 50.8273 4.42864L52.5676 10.1707ZM63.454 1.42472C61.8216 1.70837 60.7282 3.26164 61.0119 4.89403C61.2955 6.52642 62.8488 7.61979 64.4812 7.33614L63.454 1.42472ZM76.6567 5.99675C78.3118 5.91884 79.5903 4.51403 79.5124 2.85901C79.4345 1.20398 78.0296 -0.0745225 76.3746 0.00338173L76.6567 5.99675ZM89.3813 0.196884C87.7292 0.07091 86.2878 1.30805 86.1618 2.9601C86.0359 4.61216 87.273 6.05354 88.9251 6.17952L89.3813 0.196884ZM101.095 7.83639C102.721 8.15459 104.297 7.0944 104.615 5.46839C104.933 3.84237 103.873 2.26628 102.247 1.94808L101.095 7.83639ZM114.804 5.13279C113.222 4.63984 111.54 5.52254 111.047 7.10436C110.554 8.68619 111.437 10.3681 113.019 10.8611L114.804 5.13279ZM124.607 15.1301C126.131 15.7789 127.893 15.069 128.542 13.5445C129.191 12.02 128.481 10.2581 126.957 9.60927L124.607 15.1301ZM138.598 15.2218C137.14 14.4346 135.32 14.9784 134.533 16.4363C133.746 17.8942 134.289 19.7142 135.747 20.5014L138.598 15.2218ZM146.373 26.8627C147.756 27.7757 149.617 27.3949 150.529 26.0122C151.442 24.6296 151.062 22.7686 149.679 21.8557L146.373 26.8627ZM160.128 29.4633C158.838 28.4242 156.949 28.6279 155.91 29.9184C154.871 31.2089 155.075 33.0974 156.365 34.1366L160.128 29.4633ZM5.00244 38.1217C6.58886 36.6996 8.17221 35.3338 9.75192 34.0226L5.91985 29.4058C4.28065 30.7664 2.63972 32.1819 0.99756 33.6539L5.00244 38.1217ZM19.5591 26.5323C23.0733 24.0767 26.564 21.8787 30.0253 19.9186L27.0686 14.6976C23.4387 16.7532 19.788 19.0527 16.1224 21.614L19.5591 26.5323ZM41.0278 14.4197C44.9219 12.728 48.7714 11.3212 52.5676 10.1707L50.8273 4.42864C46.8088 5.64651 42.7422 7.13316 38.637 8.91657L41.0278 14.4197ZM64.4812 7.33614C68.6183 6.61726 72.6809 6.1839 76.6567 5.99675L76.3746 0.00338173C72.1553 0.201989 67.8438 0.661935 63.454 1.42472L64.4812 7.33614ZM88.9251 6.17952C93.1061 6.49833 97.1682 7.06799 101.095 7.83639L102.247 1.94808C98.1036 1.13723 93.8089 0.534506 89.3813 0.196884L88.9251 6.17952ZM113.019 10.8611C117.085 12.1282 120.955 13.576 124.607 15.1301L126.957 9.60927C123.135 7.98295 119.076 6.46418 114.804 5.13279L113.019 10.8611ZM135.747 20.5014C139.702 22.6366 143.26 24.8075 146.373 26.8627L149.679 21.8557C146.434 19.7131 142.724 17.4494 138.598 15.2218L135.747 20.5014ZM156.365 34.1366C157.873 35.3502 159.025 36.3414 159.793 37.0229C160.178 37.3637 160.466 37.6269 160.655 37.8017C160.75 37.8891 160.819 37.9543 160.864 37.9961C160.886 38.017 160.902 38.032 160.911 38.041C160.916 38.0455 160.919 38.0484 160.92 38.0499C160.921 38.0506 160.921 38.0509 160.921 38.0509C160.921 38.0509 160.921 38.0507 160.921 38.0505C160.921 38.0504 160.921 38.0503 160.921 38.0501C160.92 38.0501 160.92 38.0499 160.92 38.0499C160.92 38.0497 160.92 38.0496 163 35.8878C165.08 33.726 165.08 33.7258 165.08 33.7257C165.08 33.7256 165.079 33.7254 165.079 33.7253C165.079 33.725 165.079 33.7248 165.078 33.7245C165.078 33.7239 165.077 33.7231 165.076 33.7223C165.075 33.7207 165.073 33.7188 165.07 33.7164C165.065 33.7116 165.058 33.7053 165.05 33.6975C165.034 33.6819 165.011 33.6601 164.982 33.6325C164.923 33.5772 164.839 33.4983 164.729 33.397C164.511 33.1946 164.191 32.9029 163.774 32.5331C162.939 31.7935 161.715 30.7408 160.128 29.4633L156.365 34.1366Z" fill="black" fill-opacity="0.75"/>
<path d="M176.617 46.0462C176.747 47.8299 175.298 49.3306 173.511 49.2627L157.692 48.6608C155.101 48.5622 153.847 45.4444 155.648 43.579L170.313 28.3927C172.115 26.5273 175.275 27.6717 175.464 30.258L176.617 46.0462Z" fill="url(#paint0_linear_50_807)" fill-opacity="0.75"/>
<defs>
<linearGradient id="paint0_linear_50_807" x1="171" y1="25.3878" x2="173.947" y2="47.5988" gradientUnits="userSpaceOnUse">
<stop stop-color="#4D4D4D"/>
<stop offset="0.445"/>
<stop offset="1"/>
</linearGradient>
</defs>
</svg>
