<svg width="534" height="515" viewBox="0 0 534 515" fill="none" xmlns="http://www.w3.org/2000/svg">
<circle cx="408.659" cy="289.5" r="1.5" fill="black" fill-opacity="0.15"/>
<circle cx="417.659" cy="289.5" r="1.5" fill="black" fill-opacity="0.15"/>
<circle cx="426.659" cy="289.5" r="1.5" fill="black" fill-opacity="0.15"/>
<circle cx="435.659" cy="289.5" r="1.5" fill="black" fill-opacity="0.15"/>
<circle cx="444.659" cy="289.5" r="1.5" fill="black" fill-opacity="0.15"/>
<circle cx="453.659" cy="289.5" r="1.5" fill="black" fill-opacity="0.15"/>
<circle cx="462.659" cy="289.5" r="1.5" fill="black" fill-opacity="0.15"/>
<circle cx="471.659" cy="289.5" r="1.5" fill="black" fill-opacity="0.15"/>
<circle cx="480.659" cy="289.5" r="1.5" fill="black" fill-opacity="0.15"/>
<circle cx="489.659" cy="289.5" r="1.5" fill="black" fill-opacity="0.15"/>
<circle cx="498.659" cy="289.5" r="1.5" fill="black" fill-opacity="0.15"/>
<circle cx="408.659" cy="298.5" r="1.5" fill="black" fill-opacity="0.15"/>
<circle cx="417.659" cy="298.5" r="1.5" fill="black" fill-opacity="0.15"/>
<circle cx="426.659" cy="298.5" r="1.5" fill="black" fill-opacity="0.15"/>
<circle cx="435.659" cy="298.5" r="1.5" fill="black" fill-opacity="0.15"/>
<circle cx="444.659" cy="298.5" r="1.5" fill="black" fill-opacity="0.15"/>
<circle cx="453.659" cy="298.5" r="1.5" fill="black" fill-opacity="0.15"/>
<circle cx="462.659" cy="298.5" r="1.5" fill="black" fill-opacity="0.15"/>
<circle cx="471.659" cy="298.5" r="1.5" fill="black" fill-opacity="0.15"/>
<circle cx="480.659" cy="298.5" r="1.5" fill="black" fill-opacity="0.15"/>
<circle cx="489.659" cy="298.5" r="1.5" fill="black" fill-opacity="0.15"/>
<circle cx="498.659" cy="298.5" r="1.5" fill="black" fill-opacity="0.15"/>
<circle cx="408.659" cy="307.5" r="1.5" fill="black" fill-opacity="0.15"/>
<circle cx="417.659" cy="307.5" r="1.5" fill="black" fill-opacity="0.15"/>
<circle cx="426.659" cy="307.5" r="1.5" fill="black" fill-opacity="0.15"/>
<circle cx="435.659" cy="307.5" r="1.5" fill="black" fill-opacity="0.15"/>
<circle cx="444.659" cy="307.5" r="1.5" fill="black" fill-opacity="0.15"/>
<circle cx="453.659" cy="307.5" r="1.5" fill="black" fill-opacity="0.15"/>
<circle cx="462.659" cy="307.5" r="1.5" fill="black" fill-opacity="0.15"/>
<circle cx="471.659" cy="307.5" r="1.5" fill="black" fill-opacity="0.15"/>
<circle cx="480.659" cy="307.5" r="1.5" fill="black" fill-opacity="0.15"/>
<circle cx="489.659" cy="307.5" r="1.5" fill="black" fill-opacity="0.15"/>
<circle cx="498.659" cy="307.5" r="1.5" fill="black" fill-opacity="0.15"/>
<circle cx="408.659" cy="316.5" r="1.5" fill="black" fill-opacity="0.15"/>
<circle cx="417.659" cy="316.5" r="1.5" fill="black" fill-opacity="0.15"/>
<circle cx="426.659" cy="316.5" r="1.5" fill="black" fill-opacity="0.15"/>
<circle cx="435.659" cy="316.5" r="1.5" fill="black" fill-opacity="0.15"/>
<circle cx="444.659" cy="316.5" r="1.5" fill="black" fill-opacity="0.15"/>
<circle cx="453.659" cy="316.5" r="1.5" fill="black" fill-opacity="0.15"/>
<circle cx="462.659" cy="316.5" r="1.5" fill="black" fill-opacity="0.15"/>
<circle cx="471.659" cy="316.5" r="1.5" fill="black" fill-opacity="0.15"/>
<circle cx="480.659" cy="316.5" r="1.5" fill="black" fill-opacity="0.15"/>
<circle cx="489.659" cy="316.5" r="1.5" fill="black" fill-opacity="0.15"/>
<circle cx="498.659" cy="316.5" r="1.5" fill="black" fill-opacity="0.15"/>
<circle cx="408.659" cy="325.5" r="1.5" fill="black" fill-opacity="0.15"/>
<circle cx="417.659" cy="325.5" r="1.5" fill="black" fill-opacity="0.15"/>
<circle cx="426.659" cy="325.5" r="1.5" fill="black" fill-opacity="0.15"/>
<circle cx="435.659" cy="325.5" r="1.5" fill="black" fill-opacity="0.15"/>
<circle cx="444.659" cy="325.5" r="1.5" fill="black" fill-opacity="0.15"/>
<circle cx="453.659" cy="325.5" r="1.5" fill="black" fill-opacity="0.15"/>
<circle cx="462.659" cy="325.5" r="1.5" fill="black" fill-opacity="0.15"/>
<circle cx="471.659" cy="325.5" r="1.5" fill="black" fill-opacity="0.15"/>
<circle cx="480.659" cy="325.5" r="1.5" fill="black" fill-opacity="0.15"/>
<circle cx="489.659" cy="325.5" r="1.5" fill="black" fill-opacity="0.15"/>
<circle cx="498.659" cy="325.5" r="1.5" fill="black" fill-opacity="0.15"/>
<circle cx="408.659" cy="334.5" r="1.5" fill="black" fill-opacity="0.15"/>
<circle cx="417.659" cy="334.5" r="1.5" fill="black" fill-opacity="0.15"/>
<circle cx="426.659" cy="334.5" r="1.5" fill="black" fill-opacity="0.15"/>
<circle cx="435.659" cy="334.5" r="1.5" fill="black" fill-opacity="0.15"/>
<circle cx="444.659" cy="334.5" r="1.5" fill="black" fill-opacity="0.15"/>
<circle cx="453.659" cy="334.5" r="1.5" fill="black" fill-opacity="0.15"/>
<circle cx="462.659" cy="334.5" r="1.5" fill="black" fill-opacity="0.15"/>
<circle cx="471.659" cy="334.5" r="1.5" fill="black" fill-opacity="0.15"/>
<circle cx="480.659" cy="334.5" r="1.5" fill="black" fill-opacity="0.15"/>
<circle cx="489.659" cy="334.5" r="1.5" fill="black" fill-opacity="0.15"/>
<circle cx="498.659" cy="334.5" r="1.5" fill="black" fill-opacity="0.15"/>
<circle cx="408.659" cy="343.5" r="1.5" fill="black" fill-opacity="0.15"/>
<circle cx="417.659" cy="343.5" r="1.5" fill="black" fill-opacity="0.15"/>
<circle cx="426.659" cy="343.5" r="1.5" fill="black" fill-opacity="0.15"/>
<circle cx="435.659" cy="343.5" r="1.5" fill="black" fill-opacity="0.15"/>
<circle cx="444.659" cy="343.5" r="1.5" fill="black" fill-opacity="0.15"/>
<circle cx="453.659" cy="343.5" r="1.5" fill="black" fill-opacity="0.15"/>
<circle cx="462.659" cy="343.5" r="1.5" fill="black" fill-opacity="0.15"/>
<circle cx="471.659" cy="343.5" r="1.5" fill="black" fill-opacity="0.15"/>
<circle cx="480.659" cy="343.5" r="1.5" fill="black" fill-opacity="0.15"/>
<circle cx="489.659" cy="343.5" r="1.5" fill="black" fill-opacity="0.15"/>
<circle cx="498.659" cy="343.5" r="1.5" fill="black" fill-opacity="0.15"/>
<circle cx="408.659" cy="352.5" r="1.5" fill="black" fill-opacity="0.15"/>
<circle cx="417.659" cy="352.5" r="1.5" fill="black" fill-opacity="0.15"/>
<circle cx="426.659" cy="352.5" r="1.5" fill="black" fill-opacity="0.15"/>
<circle cx="435.659" cy="352.5" r="1.5" fill="black" fill-opacity="0.15"/>
<circle cx="444.659" cy="352.5" r="1.5" fill="black" fill-opacity="0.15"/>
<circle cx="453.659" cy="352.5" r="1.5" fill="black" fill-opacity="0.15"/>
<circle cx="462.659" cy="352.5" r="1.5" fill="black" fill-opacity="0.15"/>
<circle cx="471.659" cy="352.5" r="1.5" fill="black" fill-opacity="0.15"/>
<circle cx="480.659" cy="352.5" r="1.5" fill="black" fill-opacity="0.15"/>
<circle cx="489.659" cy="352.5" r="1.5" fill="black" fill-opacity="0.15"/>
<circle cx="498.659" cy="352.5" r="1.5" fill="black" fill-opacity="0.15"/>
<circle cx="408.659" cy="361.5" r="1.5" fill="black" fill-opacity="0.15"/>
<circle cx="417.659" cy="361.5" r="1.5" fill="black" fill-opacity="0.15"/>
<circle cx="426.659" cy="361.5" r="1.5" fill="black" fill-opacity="0.15"/>
<circle cx="435.659" cy="361.5" r="1.5" fill="black" fill-opacity="0.15"/>
<circle cx="444.659" cy="361.5" r="1.5" fill="black" fill-opacity="0.15"/>
<circle cx="453.659" cy="361.5" r="1.5" fill="black" fill-opacity="0.15"/>
<circle cx="462.659" cy="361.5" r="1.5" fill="black" fill-opacity="0.15"/>
<circle cx="471.659" cy="361.5" r="1.5" fill="black" fill-opacity="0.15"/>
<circle cx="480.659" cy="361.5" r="1.5" fill="black" fill-opacity="0.15"/>
<circle cx="489.659" cy="361.5" r="1.5" fill="black" fill-opacity="0.15"/>
<circle cx="498.659" cy="361.5" r="1.5" fill="black" fill-opacity="0.15"/>
<circle cx="408.659" cy="370.5" r="1.5" fill="black" fill-opacity="0.15"/>
<circle cx="417.659" cy="370.5" r="1.5" fill="black" fill-opacity="0.15"/>
<circle cx="426.659" cy="370.5" r="1.5" fill="black" fill-opacity="0.15"/>
<circle cx="435.659" cy="370.5" r="1.5" fill="black" fill-opacity="0.15"/>
<circle cx="444.659" cy="370.5" r="1.5" fill="black" fill-opacity="0.15"/>
<circle cx="453.659" cy="370.5" r="1.5" fill="black" fill-opacity="0.15"/>
<circle cx="462.659" cy="370.5" r="1.5" fill="black" fill-opacity="0.15"/>
<circle cx="471.659" cy="370.5" r="1.5" fill="black" fill-opacity="0.15"/>
<circle cx="480.659" cy="370.5" r="1.5" fill="black" fill-opacity="0.15"/>
<circle cx="489.659" cy="370.5" r="1.5" fill="black" fill-opacity="0.15"/>
<circle cx="498.659" cy="370.5" r="1.5" fill="black" fill-opacity="0.15"/>
<circle cx="408.659" cy="379.5" r="1.5" fill="black" fill-opacity="0.15"/>
<circle cx="417.659" cy="379.5" r="1.5" fill="black" fill-opacity="0.15"/>
<circle cx="426.659" cy="379.5" r="1.5" fill="black" fill-opacity="0.15"/>
<circle cx="435.659" cy="379.5" r="1.5" fill="black" fill-opacity="0.15"/>
<circle cx="444.659" cy="379.5" r="1.5" fill="black" fill-opacity="0.15"/>
<circle cx="453.659" cy="379.5" r="1.5" fill="black" fill-opacity="0.15"/>
<circle cx="462.659" cy="379.5" r="1.5" fill="black" fill-opacity="0.15"/>
<circle cx="471.659" cy="379.5" r="1.5" fill="black" fill-opacity="0.15"/>
<circle cx="480.659" cy="379.5" r="1.5" fill="black" fill-opacity="0.15"/>
<circle cx="489.659" cy="379.5" r="1.5" fill="black" fill-opacity="0.15"/>
<circle cx="498.659" cy="379.5" r="1.5" fill="black" fill-opacity="0.15"/>
<circle cx="408.659" cy="388.5" r="1.5" fill="black" fill-opacity="0.15"/>
<circle cx="417.659" cy="388.5" r="1.5" fill="black" fill-opacity="0.15"/>
<circle cx="426.659" cy="388.5" r="1.5" fill="black" fill-opacity="0.15"/>
<circle cx="435.659" cy="388.5" r="1.5" fill="black" fill-opacity="0.15"/>
<circle cx="444.659" cy="388.5" r="1.5" fill="black" fill-opacity="0.15"/>
<circle cx="453.659" cy="388.5" r="1.5" fill="black" fill-opacity="0.15"/>
<circle cx="462.659" cy="388.5" r="1.5" fill="black" fill-opacity="0.15"/>
<circle cx="471.659" cy="388.5" r="1.5" fill="black" fill-opacity="0.15"/>
<circle cx="480.659" cy="388.5" r="1.5" fill="black" fill-opacity="0.15"/>
<circle cx="489.659" cy="388.5" r="1.5" fill="black" fill-opacity="0.15"/>
<circle cx="498.659" cy="388.5" r="1.5" fill="black" fill-opacity="0.15"/>
<circle cx="408.659" cy="397.5" r="1.5" fill="black" fill-opacity="0.15"/>
<circle cx="417.659" cy="397.5" r="1.5" fill="black" fill-opacity="0.15"/>
<circle cx="426.659" cy="397.5" r="1.5" fill="black" fill-opacity="0.15"/>
<circle cx="435.659" cy="397.5" r="1.5" fill="black" fill-opacity="0.15"/>
<circle cx="444.659" cy="397.5" r="1.5" fill="black" fill-opacity="0.15"/>
<circle cx="453.659" cy="397.5" r="1.5" fill="black" fill-opacity="0.15"/>
<circle cx="462.659" cy="397.5" r="1.5" fill="black" fill-opacity="0.15"/>
<circle cx="471.659" cy="397.5" r="1.5" fill="black" fill-opacity="0.15"/>
<circle cx="480.659" cy="397.5" r="1.5" fill="black" fill-opacity="0.15"/>
<circle cx="489.659" cy="397.5" r="1.5" fill="black" fill-opacity="0.15"/>
<circle cx="498.659" cy="397.5" r="1.5" fill="black" fill-opacity="0.15"/>
<circle cx="408.659" cy="406.5" r="1.5" fill="black" fill-opacity="0.15"/>
<circle cx="417.659" cy="406.5" r="1.5" fill="black" fill-opacity="0.15"/>
<circle cx="426.659" cy="406.5" r="1.5" fill="black" fill-opacity="0.15"/>
<circle cx="435.659" cy="406.5" r="1.5" fill="black" fill-opacity="0.15"/>
<circle cx="444.659" cy="406.5" r="1.5" fill="black" fill-opacity="0.15"/>
<circle cx="453.659" cy="406.5" r="1.5" fill="black" fill-opacity="0.15"/>
<circle cx="462.659" cy="406.5" r="1.5" fill="black" fill-opacity="0.15"/>
<circle cx="471.659" cy="406.5" r="1.5" fill="black" fill-opacity="0.15"/>
<circle cx="480.659" cy="406.5" r="1.5" fill="black" fill-opacity="0.15"/>
<circle cx="489.659" cy="406.5" r="1.5" fill="black" fill-opacity="0.15"/>
<circle cx="498.659" cy="406.5" r="1.5" fill="black" fill-opacity="0.15"/>
<circle cx="408.659" cy="415.5" r="1.5" fill="black" fill-opacity="0.15"/>
<circle cx="417.659" cy="415.5" r="1.5" fill="black" fill-opacity="0.15"/>
<circle cx="426.659" cy="415.5" r="1.5" fill="black" fill-opacity="0.15"/>
<circle cx="435.659" cy="415.5" r="1.5" fill="black" fill-opacity="0.15"/>
<circle cx="444.659" cy="415.5" r="1.5" fill="black" fill-opacity="0.15"/>
<circle cx="453.659" cy="415.5" r="1.5" fill="black" fill-opacity="0.15"/>
<circle cx="462.659" cy="415.5" r="1.5" fill="black" fill-opacity="0.15"/>
<circle cx="471.659" cy="415.5" r="1.5" fill="black" fill-opacity="0.15"/>
<circle cx="480.659" cy="415.5" r="1.5" fill="black" fill-opacity="0.15"/>
<circle cx="489.659" cy="415.5" r="1.5" fill="black" fill-opacity="0.15"/>
<circle cx="498.659" cy="415.5" r="1.5" fill="black" fill-opacity="0.15"/>
<circle cx="408.659" cy="424.5" r="1.5" fill="black" fill-opacity="0.15"/>
<circle cx="417.659" cy="424.5" r="1.5" fill="black" fill-opacity="0.15"/>
<circle cx="426.659" cy="424.5" r="1.5" fill="black" fill-opacity="0.15"/>
<circle cx="435.659" cy="424.5" r="1.5" fill="black" fill-opacity="0.15"/>
<circle cx="444.659" cy="424.5" r="1.5" fill="black" fill-opacity="0.15"/>
<circle cx="453.659" cy="424.5" r="1.5" fill="black" fill-opacity="0.15"/>
<circle cx="462.659" cy="424.5" r="1.5" fill="black" fill-opacity="0.15"/>
<circle cx="471.659" cy="424.5" r="1.5" fill="black" fill-opacity="0.15"/>
<circle cx="480.659" cy="424.5" r="1.5" fill="black" fill-opacity="0.15"/>
<circle cx="489.659" cy="424.5" r="1.5" fill="black" fill-opacity="0.15"/>
<circle cx="498.659" cy="424.5" r="1.5" fill="black" fill-opacity="0.15"/>
<circle cx="408.659" cy="433.5" r="1.5" fill="black" fill-opacity="0.15"/>
<circle cx="417.659" cy="433.5" r="1.5" fill="black" fill-opacity="0.15"/>
<circle cx="426.659" cy="433.5" r="1.5" fill="black" fill-opacity="0.15"/>
<circle cx="435.659" cy="433.5" r="1.5" fill="black" fill-opacity="0.15"/>
<circle cx="444.659" cy="433.5" r="1.5" fill="black" fill-opacity="0.15"/>
<circle cx="453.659" cy="433.5" r="1.5" fill="black" fill-opacity="0.15"/>
<circle cx="462.659" cy="433.5" r="1.5" fill="black" fill-opacity="0.15"/>
<circle cx="471.659" cy="433.5" r="1.5" fill="black" fill-opacity="0.15"/>
<circle cx="480.659" cy="433.5" r="1.5" fill="black" fill-opacity="0.15"/>
<circle cx="489.659" cy="433.5" r="1.5" fill="black" fill-opacity="0.15"/>
<circle cx="498.659" cy="433.5" r="1.5" fill="black" fill-opacity="0.15"/>
<circle cx="408.659" cy="442.5" r="1.5" fill="black" fill-opacity="0.15"/>
<circle cx="417.659" cy="442.5" r="1.5" fill="black" fill-opacity="0.15"/>
<circle cx="426.659" cy="442.5" r="1.5" fill="black" fill-opacity="0.15"/>
<circle cx="435.659" cy="442.5" r="1.5" fill="black" fill-opacity="0.15"/>
<circle cx="444.659" cy="442.5" r="1.5" fill="black" fill-opacity="0.15"/>
<circle cx="453.659" cy="442.5" r="1.5" fill="black" fill-opacity="0.15"/>
<circle cx="462.659" cy="442.5" r="1.5" fill="black" fill-opacity="0.15"/>
<circle cx="471.659" cy="442.5" r="1.5" fill="black" fill-opacity="0.15"/>
<circle cx="480.659" cy="442.5" r="1.5" fill="black" fill-opacity="0.15"/>
<circle cx="489.659" cy="442.5" r="1.5" fill="black" fill-opacity="0.15"/>
<circle cx="498.659" cy="442.5" r="1.5" fill="black" fill-opacity="0.15"/>
<circle cx="408.659" cy="451.5" r="1.5" fill="black" fill-opacity="0.15"/>
<circle cx="417.659" cy="451.5" r="1.5" fill="black" fill-opacity="0.15"/>
<circle cx="426.659" cy="451.5" r="1.5" fill="black" fill-opacity="0.15"/>
<circle cx="435.659" cy="451.5" r="1.5" fill="black" fill-opacity="0.15"/>
<circle cx="444.659" cy="451.5" r="1.5" fill="black" fill-opacity="0.15"/>
<circle cx="453.659" cy="451.5" r="1.5" fill="black" fill-opacity="0.15"/>
<circle cx="462.659" cy="451.5" r="1.5" fill="black" fill-opacity="0.15"/>
<circle cx="471.659" cy="451.5" r="1.5" fill="black" fill-opacity="0.15"/>
<circle cx="480.659" cy="451.5" r="1.5" fill="black" fill-opacity="0.15"/>
<circle cx="489.659" cy="451.5" r="1.5" fill="black" fill-opacity="0.15"/>
<circle cx="498.659" cy="451.5" r="1.5" fill="black" fill-opacity="0.15"/>
<circle cx="408.659" cy="460.5" r="1.5" fill="black" fill-opacity="0.15"/>
<circle cx="417.659" cy="460.5" r="1.5" fill="black" fill-opacity="0.15"/>
<circle cx="426.659" cy="460.5" r="1.5" fill="black" fill-opacity="0.15"/>
<circle cx="435.659" cy="460.5" r="1.5" fill="black" fill-opacity="0.15"/>
<circle cx="444.659" cy="460.5" r="1.5" fill="black" fill-opacity="0.15"/>
<circle cx="453.659" cy="460.5" r="1.5" fill="black" fill-opacity="0.15"/>
<circle cx="462.659" cy="460.5" r="1.5" fill="black" fill-opacity="0.15"/>
<circle cx="471.659" cy="460.5" r="1.5" fill="black" fill-opacity="0.15"/>
<circle cx="480.659" cy="460.5" r="1.5" fill="black" fill-opacity="0.15"/>
<circle cx="489.659" cy="460.5" r="1.5" fill="black" fill-opacity="0.15"/>
<circle cx="498.659" cy="460.5" r="1.5" fill="black" fill-opacity="0.15"/>
<circle cx="408.659" cy="469.5" r="1.5" fill="black" fill-opacity="0.15"/>
<circle cx="417.659" cy="469.5" r="1.5" fill="black" fill-opacity="0.15"/>
<circle cx="426.659" cy="469.5" r="1.5" fill="black" fill-opacity="0.15"/>
<circle cx="435.659" cy="469.5" r="1.5" fill="black" fill-opacity="0.15"/>
<circle cx="444.659" cy="469.5" r="1.5" fill="black" fill-opacity="0.15"/>
<circle cx="453.659" cy="469.5" r="1.5" fill="black" fill-opacity="0.15"/>
<circle cx="462.659" cy="469.5" r="1.5" fill="black" fill-opacity="0.15"/>
<circle cx="471.659" cy="469.5" r="1.5" fill="black" fill-opacity="0.15"/>
<circle cx="480.659" cy="469.5" r="1.5" fill="black" fill-opacity="0.15"/>
<circle cx="489.659" cy="469.5" r="1.5" fill="black" fill-opacity="0.15"/>
<circle cx="498.659" cy="469.5" r="1.5" fill="black" fill-opacity="0.15"/>
<circle cx="408.659" cy="478.5" r="1.5" fill="black" fill-opacity="0.15"/>
<circle cx="417.659" cy="478.5" r="1.5" fill="black" fill-opacity="0.15"/>
<circle cx="426.659" cy="478.5" r="1.5" fill="black" fill-opacity="0.15"/>
<circle cx="435.659" cy="478.5" r="1.5" fill="black" fill-opacity="0.15"/>
<circle cx="444.659" cy="478.5" r="1.5" fill="black" fill-opacity="0.15"/>
<circle cx="453.659" cy="478.5" r="1.5" fill="black" fill-opacity="0.15"/>
<circle cx="462.659" cy="478.5" r="1.5" fill="black" fill-opacity="0.15"/>
<circle cx="471.659" cy="478.5" r="1.5" fill="black" fill-opacity="0.15"/>
<circle cx="480.659" cy="478.5" r="1.5" fill="black" fill-opacity="0.15"/>
<circle cx="489.659" cy="478.5" r="1.5" fill="black" fill-opacity="0.15"/>
<circle cx="498.659" cy="478.5" r="1.5" fill="black" fill-opacity="0.15"/>
<path d="M178.159 50C178.159 47.2386 180.398 45 183.159 45H528.159C530.92 45 533.159 47.2386 533.159 50V443C533.159 445.761 530.92 448 528.159 448H183.159C180.398 448 178.159 445.761 178.159 443V50Z" fill="url(#paint0_linear_50_1444)"/>
<circle cx="408.659" cy="253.5" r="1.5" fill="white" fill-opacity="0.5"/>
<circle cx="417.659" cy="253.5" r="1.5" fill="white" fill-opacity="0.5"/>
<circle cx="426.659" cy="253.5" r="1.5" fill="white" fill-opacity="0.5"/>
<circle cx="435.659" cy="253.5" r="1.5" fill="white" fill-opacity="0.5"/>
<circle cx="444.659" cy="253.5" r="1.5" fill="white" fill-opacity="0.5"/>
<circle cx="453.659" cy="253.5" r="1.5" fill="white" fill-opacity="0.5"/>
<circle cx="462.659" cy="253.5" r="1.5" fill="white" fill-opacity="0.5"/>
<circle cx="471.659" cy="253.5" r="1.5" fill="white" fill-opacity="0.5"/>
<circle cx="480.659" cy="253.5" r="1.5" fill="white" fill-opacity="0.5"/>
<circle cx="489.659" cy="253.5" r="1.5" fill="white" fill-opacity="0.5"/>
<circle cx="498.659" cy="253.5" r="1.5" fill="white" fill-opacity="0.5"/>
<circle cx="408.659" cy="262.5" r="1.5" fill="white" fill-opacity="0.5"/>
<circle cx="417.659" cy="262.5" r="1.5" fill="white" fill-opacity="0.5"/>
<circle cx="426.659" cy="262.5" r="1.5" fill="white" fill-opacity="0.5"/>
<circle cx="435.659" cy="262.5" r="1.5" fill="white" fill-opacity="0.5"/>
<circle cx="444.659" cy="262.5" r="1.5" fill="white" fill-opacity="0.5"/>
<circle cx="453.659" cy="262.5" r="1.5" fill="white" fill-opacity="0.5"/>
<circle cx="462.659" cy="262.5" r="1.5" fill="white" fill-opacity="0.5"/>
<circle cx="471.659" cy="262.5" r="1.5" fill="white" fill-opacity="0.5"/>
<circle cx="480.659" cy="262.5" r="1.5" fill="white" fill-opacity="0.5"/>
<circle cx="489.659" cy="262.5" r="1.5" fill="white" fill-opacity="0.5"/>
<circle cx="498.659" cy="262.5" r="1.5" fill="white" fill-opacity="0.5"/>
<circle cx="408.659" cy="271.5" r="1.5" fill="white" fill-opacity="0.5"/>
<circle cx="417.659" cy="271.5" r="1.5" fill="white" fill-opacity="0.5"/>
<circle cx="426.659" cy="271.5" r="1.5" fill="white" fill-opacity="0.5"/>
<circle cx="435.659" cy="271.5" r="1.5" fill="white" fill-opacity="0.5"/>
<circle cx="444.659" cy="271.5" r="1.5" fill="white" fill-opacity="0.5"/>
<circle cx="453.659" cy="271.5" r="1.5" fill="white" fill-opacity="0.5"/>
<circle cx="462.659" cy="271.5" r="1.5" fill="white" fill-opacity="0.5"/>
<circle cx="471.659" cy="271.5" r="1.5" fill="white" fill-opacity="0.5"/>
<circle cx="480.659" cy="271.5" r="1.5" fill="white" fill-opacity="0.5"/>
<circle cx="489.659" cy="271.5" r="1.5" fill="white" fill-opacity="0.5"/>
<circle cx="498.659" cy="271.5" r="1.5" fill="white" fill-opacity="0.5"/>
<circle cx="408.659" cy="280.5" r="1.5" fill="white" fill-opacity="0.5"/>
<circle cx="417.659" cy="280.5" r="1.5" fill="white" fill-opacity="0.5"/>
<circle cx="426.659" cy="280.5" r="1.5" fill="white" fill-opacity="0.5"/>
<circle cx="435.659" cy="280.5" r="1.5" fill="white" fill-opacity="0.5"/>
<circle cx="444.659" cy="280.5" r="1.5" fill="white" fill-opacity="0.5"/>
<circle cx="453.659" cy="280.5" r="1.5" fill="white" fill-opacity="0.5"/>
<circle cx="462.659" cy="280.5" r="1.5" fill="white" fill-opacity="0.5"/>
<circle cx="471.659" cy="280.5" r="1.5" fill="white" fill-opacity="0.5"/>
<circle cx="480.659" cy="280.5" r="1.5" fill="white" fill-opacity="0.5"/>
<circle cx="489.659" cy="280.5" r="1.5" fill="white" fill-opacity="0.5"/>
<circle cx="498.659" cy="280.5" r="1.5" fill="white" fill-opacity="0.5"/>
<circle cx="408.659" cy="289.5" r="1.5" fill="white" fill-opacity="0.5"/>
<circle cx="417.659" cy="289.5" r="1.5" fill="white" fill-opacity="0.5"/>
<circle cx="426.659" cy="289.5" r="1.5" fill="white" fill-opacity="0.5"/>
<circle cx="435.659" cy="289.5" r="1.5" fill="white" fill-opacity="0.5"/>
<circle cx="444.659" cy="289.5" r="1.5" fill="white" fill-opacity="0.5"/>
<circle cx="453.659" cy="289.5" r="1.5" fill="white" fill-opacity="0.5"/>
<circle cx="462.659" cy="289.5" r="1.5" fill="white" fill-opacity="0.5"/>
<circle cx="471.659" cy="289.5" r="1.5" fill="white" fill-opacity="0.5"/>
<circle cx="480.659" cy="289.5" r="1.5" fill="white" fill-opacity="0.5"/>
<circle cx="489.659" cy="289.5" r="1.5" fill="white" fill-opacity="0.5"/>
<circle cx="498.659" cy="289.5" r="1.5" fill="white" fill-opacity="0.5"/>
<circle cx="408.659" cy="298.5" r="1.5" fill="white" fill-opacity="0.5"/>
<circle cx="417.659" cy="298.5" r="1.5" fill="white" fill-opacity="0.5"/>
<circle cx="426.659" cy="298.5" r="1.5" fill="white" fill-opacity="0.5"/>
<circle cx="435.659" cy="298.5" r="1.5" fill="white" fill-opacity="0.5"/>
<circle cx="444.659" cy="298.5" r="1.5" fill="white" fill-opacity="0.5"/>
<circle cx="453.659" cy="298.5" r="1.5" fill="white" fill-opacity="0.5"/>
<circle cx="462.659" cy="298.5" r="1.5" fill="white" fill-opacity="0.5"/>
<circle cx="471.659" cy="298.5" r="1.5" fill="white" fill-opacity="0.5"/>
<circle cx="480.659" cy="298.5" r="1.5" fill="white" fill-opacity="0.5"/>
<circle cx="489.659" cy="298.5" r="1.5" fill="white" fill-opacity="0.5"/>
<circle cx="498.659" cy="298.5" r="1.5" fill="white" fill-opacity="0.5"/>
<circle cx="408.659" cy="307.5" r="1.5" fill="white" fill-opacity="0.5"/>
<circle cx="417.659" cy="307.5" r="1.5" fill="white" fill-opacity="0.5"/>
<circle cx="426.659" cy="307.5" r="1.5" fill="white" fill-opacity="0.5"/>
<circle cx="435.659" cy="307.5" r="1.5" fill="white" fill-opacity="0.5"/>
<circle cx="444.659" cy="307.5" r="1.5" fill="white" fill-opacity="0.5"/>
<circle cx="453.659" cy="307.5" r="1.5" fill="white" fill-opacity="0.5"/>
<circle cx="462.659" cy="307.5" r="1.5" fill="white" fill-opacity="0.5"/>
<circle cx="471.659" cy="307.5" r="1.5" fill="white" fill-opacity="0.5"/>
<circle cx="480.659" cy="307.5" r="1.5" fill="white" fill-opacity="0.5"/>
<circle cx="489.659" cy="307.5" r="1.5" fill="white" fill-opacity="0.5"/>
<circle cx="498.659" cy="307.5" r="1.5" fill="white" fill-opacity="0.5"/>
<circle cx="408.659" cy="316.5" r="1.5" fill="white" fill-opacity="0.5"/>
<circle cx="417.659" cy="316.5" r="1.5" fill="white" fill-opacity="0.5"/>
<circle cx="426.659" cy="316.5" r="1.5" fill="white" fill-opacity="0.5"/>
<circle cx="435.659" cy="316.5" r="1.5" fill="white" fill-opacity="0.5"/>
<circle cx="444.659" cy="316.5" r="1.5" fill="white" fill-opacity="0.5"/>
<circle cx="453.659" cy="316.5" r="1.5" fill="white" fill-opacity="0.5"/>
<circle cx="462.659" cy="316.5" r="1.5" fill="white" fill-opacity="0.5"/>
<circle cx="471.659" cy="316.5" r="1.5" fill="white" fill-opacity="0.5"/>
<circle cx="480.659" cy="316.5" r="1.5" fill="white" fill-opacity="0.5"/>
<circle cx="489.659" cy="316.5" r="1.5" fill="white" fill-opacity="0.5"/>
<circle cx="498.659" cy="316.5" r="1.5" fill="white" fill-opacity="0.5"/>
<circle cx="408.659" cy="325.5" r="1.5" fill="white" fill-opacity="0.5"/>
<circle cx="417.659" cy="325.5" r="1.5" fill="white" fill-opacity="0.5"/>
<circle cx="426.659" cy="325.5" r="1.5" fill="white" fill-opacity="0.5"/>
<circle cx="435.659" cy="325.5" r="1.5" fill="white" fill-opacity="0.5"/>
<circle cx="444.659" cy="325.5" r="1.5" fill="white" fill-opacity="0.5"/>
<circle cx="453.659" cy="325.5" r="1.5" fill="white" fill-opacity="0.5"/>
<circle cx="462.659" cy="325.5" r="1.5" fill="white" fill-opacity="0.5"/>
<circle cx="471.659" cy="325.5" r="1.5" fill="white" fill-opacity="0.5"/>
<circle cx="480.659" cy="325.5" r="1.5" fill="white" fill-opacity="0.5"/>
<circle cx="489.659" cy="325.5" r="1.5" fill="white" fill-opacity="0.5"/>
<circle cx="498.659" cy="325.5" r="1.5" fill="white" fill-opacity="0.5"/>
<circle cx="408.659" cy="334.5" r="1.5" fill="white" fill-opacity="0.5"/>
<circle cx="417.659" cy="334.5" r="1.5" fill="white" fill-opacity="0.5"/>
<circle cx="426.659" cy="334.5" r="1.5" fill="white" fill-opacity="0.5"/>
<circle cx="435.659" cy="334.5" r="1.5" fill="white" fill-opacity="0.5"/>
<circle cx="444.659" cy="334.5" r="1.5" fill="white" fill-opacity="0.5"/>
<circle cx="453.659" cy="334.5" r="1.5" fill="white" fill-opacity="0.5"/>
<circle cx="462.659" cy="334.5" r="1.5" fill="white" fill-opacity="0.5"/>
<circle cx="471.659" cy="334.5" r="1.5" fill="white" fill-opacity="0.5"/>
<circle cx="480.659" cy="334.5" r="1.5" fill="white" fill-opacity="0.5"/>
<circle cx="489.659" cy="334.5" r="1.5" fill="white" fill-opacity="0.5"/>
<circle cx="498.659" cy="334.5" r="1.5" fill="white" fill-opacity="0.5"/>
<circle cx="408.659" cy="343.5" r="1.5" fill="white" fill-opacity="0.5"/>
<circle cx="417.659" cy="343.5" r="1.5" fill="white" fill-opacity="0.5"/>
<circle cx="426.659" cy="343.5" r="1.5" fill="white" fill-opacity="0.5"/>
<circle cx="435.659" cy="343.5" r="1.5" fill="white" fill-opacity="0.5"/>
<circle cx="444.659" cy="343.5" r="1.5" fill="white" fill-opacity="0.5"/>
<circle cx="453.659" cy="343.5" r="1.5" fill="white" fill-opacity="0.5"/>
<circle cx="462.659" cy="343.5" r="1.5" fill="white" fill-opacity="0.5"/>
<circle cx="471.659" cy="343.5" r="1.5" fill="white" fill-opacity="0.5"/>
<circle cx="480.659" cy="343.5" r="1.5" fill="white" fill-opacity="0.5"/>
<circle cx="489.659" cy="343.5" r="1.5" fill="white" fill-opacity="0.5"/>
<circle cx="498.659" cy="343.5" r="1.5" fill="white" fill-opacity="0.5"/>
<circle cx="408.659" cy="352.5" r="1.5" fill="white" fill-opacity="0.5"/>
<circle cx="417.659" cy="352.5" r="1.5" fill="white" fill-opacity="0.5"/>
<circle cx="426.659" cy="352.5" r="1.5" fill="white" fill-opacity="0.5"/>
<circle cx="435.659" cy="352.5" r="1.5" fill="white" fill-opacity="0.5"/>
<circle cx="444.659" cy="352.5" r="1.5" fill="white" fill-opacity="0.5"/>
<circle cx="453.659" cy="352.5" r="1.5" fill="white" fill-opacity="0.5"/>
<circle cx="462.659" cy="352.5" r="1.5" fill="white" fill-opacity="0.5"/>
<circle cx="471.659" cy="352.5" r="1.5" fill="white" fill-opacity="0.5"/>
<circle cx="480.659" cy="352.5" r="1.5" fill="white" fill-opacity="0.5"/>
<circle cx="489.659" cy="352.5" r="1.5" fill="white" fill-opacity="0.5"/>
<circle cx="498.659" cy="352.5" r="1.5" fill="white" fill-opacity="0.5"/>
<circle cx="408.659" cy="361.5" r="1.5" fill="white" fill-opacity="0.5"/>
<circle cx="417.659" cy="361.5" r="1.5" fill="white" fill-opacity="0.5"/>
<circle cx="426.659" cy="361.5" r="1.5" fill="white" fill-opacity="0.5"/>
<circle cx="435.659" cy="361.5" r="1.5" fill="white" fill-opacity="0.5"/>
<circle cx="444.659" cy="361.5" r="1.5" fill="white" fill-opacity="0.5"/>
<circle cx="453.659" cy="361.5" r="1.5" fill="white" fill-opacity="0.5"/>
<circle cx="462.659" cy="361.5" r="1.5" fill="white" fill-opacity="0.5"/>
<circle cx="471.659" cy="361.5" r="1.5" fill="white" fill-opacity="0.5"/>
<circle cx="480.659" cy="361.5" r="1.5" fill="white" fill-opacity="0.5"/>
<circle cx="489.659" cy="361.5" r="1.5" fill="white" fill-opacity="0.5"/>
<circle cx="498.659" cy="361.5" r="1.5" fill="white" fill-opacity="0.5"/>
<circle cx="408.659" cy="370.5" r="1.5" fill="white" fill-opacity="0.5"/>
<circle cx="417.659" cy="370.5" r="1.5" fill="white" fill-opacity="0.5"/>
<circle cx="426.659" cy="370.5" r="1.5" fill="white" fill-opacity="0.5"/>
<circle cx="435.659" cy="370.5" r="1.5" fill="white" fill-opacity="0.5"/>
<circle cx="444.659" cy="370.5" r="1.5" fill="white" fill-opacity="0.5"/>
<circle cx="453.659" cy="370.5" r="1.5" fill="white" fill-opacity="0.5"/>
<circle cx="462.659" cy="370.5" r="1.5" fill="white" fill-opacity="0.5"/>
<circle cx="471.659" cy="370.5" r="1.5" fill="white" fill-opacity="0.5"/>
<circle cx="480.659" cy="370.5" r="1.5" fill="white" fill-opacity="0.5"/>
<circle cx="489.659" cy="370.5" r="1.5" fill="white" fill-opacity="0.5"/>
<circle cx="498.659" cy="370.5" r="1.5" fill="white" fill-opacity="0.5"/>
<circle cx="408.659" cy="379.5" r="1.5" fill="white" fill-opacity="0.5"/>
<circle cx="417.659" cy="379.5" r="1.5" fill="white" fill-opacity="0.5"/>
<circle cx="426.659" cy="379.5" r="1.5" fill="white" fill-opacity="0.5"/>
<circle cx="435.659" cy="379.5" r="1.5" fill="white" fill-opacity="0.5"/>
<circle cx="444.659" cy="379.5" r="1.5" fill="white" fill-opacity="0.5"/>
<circle cx="453.659" cy="379.5" r="1.5" fill="white" fill-opacity="0.5"/>
<circle cx="462.659" cy="379.5" r="1.5" fill="white" fill-opacity="0.5"/>
<circle cx="471.659" cy="379.5" r="1.5" fill="white" fill-opacity="0.5"/>
<circle cx="480.659" cy="379.5" r="1.5" fill="white" fill-opacity="0.5"/>
<circle cx="489.659" cy="379.5" r="1.5" fill="white" fill-opacity="0.5"/>
<circle cx="498.659" cy="379.5" r="1.5" fill="white" fill-opacity="0.5"/>
<circle cx="408.659" cy="388.5" r="1.5" fill="white" fill-opacity="0.5"/>
<circle cx="417.659" cy="388.5" r="1.5" fill="white" fill-opacity="0.5"/>
<circle cx="426.659" cy="388.5" r="1.5" fill="white" fill-opacity="0.5"/>
<circle cx="435.659" cy="388.5" r="1.5" fill="white" fill-opacity="0.5"/>
<circle cx="444.659" cy="388.5" r="1.5" fill="white" fill-opacity="0.5"/>
<circle cx="453.659" cy="388.5" r="1.5" fill="white" fill-opacity="0.5"/>
<circle cx="462.659" cy="388.5" r="1.5" fill="white" fill-opacity="0.5"/>
<circle cx="471.659" cy="388.5" r="1.5" fill="white" fill-opacity="0.5"/>
<circle cx="480.659" cy="388.5" r="1.5" fill="white" fill-opacity="0.5"/>
<circle cx="489.659" cy="388.5" r="1.5" fill="white" fill-opacity="0.5"/>
<circle cx="498.659" cy="388.5" r="1.5" fill="white" fill-opacity="0.5"/>
<circle cx="408.659" cy="397.5" r="1.5" fill="white" fill-opacity="0.5"/>
<circle cx="417.659" cy="397.5" r="1.5" fill="white" fill-opacity="0.5"/>
<circle cx="426.659" cy="397.5" r="1.5" fill="white" fill-opacity="0.5"/>
<circle cx="435.659" cy="397.5" r="1.5" fill="white" fill-opacity="0.5"/>
<circle cx="444.659" cy="397.5" r="1.5" fill="white" fill-opacity="0.5"/>
<circle cx="453.659" cy="397.5" r="1.5" fill="white" fill-opacity="0.5"/>
<circle cx="462.659" cy="397.5" r="1.5" fill="white" fill-opacity="0.5"/>
<circle cx="471.659" cy="397.5" r="1.5" fill="white" fill-opacity="0.5"/>
<circle cx="480.659" cy="397.5" r="1.5" fill="white" fill-opacity="0.5"/>
<circle cx="489.659" cy="397.5" r="1.5" fill="white" fill-opacity="0.5"/>
<circle cx="498.659" cy="397.5" r="1.5" fill="white" fill-opacity="0.5"/>
<circle cx="408.659" cy="406.5" r="1.5" fill="white" fill-opacity="0.5"/>
<circle cx="417.659" cy="406.5" r="1.5" fill="white" fill-opacity="0.5"/>
<circle cx="426.659" cy="406.5" r="1.5" fill="white" fill-opacity="0.5"/>
<circle cx="435.659" cy="406.5" r="1.5" fill="white" fill-opacity="0.5"/>
<circle cx="444.659" cy="406.5" r="1.5" fill="white" fill-opacity="0.5"/>
<circle cx="453.659" cy="406.5" r="1.5" fill="white" fill-opacity="0.5"/>
<circle cx="462.659" cy="406.5" r="1.5" fill="white" fill-opacity="0.5"/>
<circle cx="471.659" cy="406.5" r="1.5" fill="white" fill-opacity="0.5"/>
<circle cx="480.659" cy="406.5" r="1.5" fill="white" fill-opacity="0.5"/>
<circle cx="489.659" cy="406.5" r="1.5" fill="white" fill-opacity="0.5"/>
<circle cx="498.659" cy="406.5" r="1.5" fill="white" fill-opacity="0.5"/>
<circle cx="408.659" cy="415.5" r="1.5" fill="white" fill-opacity="0.5"/>
<circle cx="417.659" cy="415.5" r="1.5" fill="white" fill-opacity="0.5"/>
<circle cx="426.659" cy="415.5" r="1.5" fill="white" fill-opacity="0.5"/>
<circle cx="435.659" cy="415.5" r="1.5" fill="white" fill-opacity="0.5"/>
<circle cx="444.659" cy="415.5" r="1.5" fill="white" fill-opacity="0.5"/>
<circle cx="453.659" cy="415.5" r="1.5" fill="white" fill-opacity="0.5"/>
<circle cx="462.659" cy="415.5" r="1.5" fill="white" fill-opacity="0.5"/>
<circle cx="471.659" cy="415.5" r="1.5" fill="white" fill-opacity="0.5"/>
<circle cx="480.659" cy="415.5" r="1.5" fill="white" fill-opacity="0.5"/>
<circle cx="489.659" cy="415.5" r="1.5" fill="white" fill-opacity="0.5"/>
<circle cx="498.659" cy="415.5" r="1.5" fill="white" fill-opacity="0.5"/>
<circle cx="408.659" cy="424.5" r="1.5" fill="white" fill-opacity="0.5"/>
<circle cx="417.659" cy="424.5" r="1.5" fill="white" fill-opacity="0.5"/>
<circle cx="426.659" cy="424.5" r="1.5" fill="white" fill-opacity="0.5"/>
<circle cx="435.659" cy="424.5" r="1.5" fill="white" fill-opacity="0.5"/>
<circle cx="444.659" cy="424.5" r="1.5" fill="white" fill-opacity="0.5"/>
<circle cx="453.659" cy="424.5" r="1.5" fill="white" fill-opacity="0.5"/>
<circle cx="462.659" cy="424.5" r="1.5" fill="white" fill-opacity="0.5"/>
<circle cx="471.659" cy="424.5" r="1.5" fill="white" fill-opacity="0.5"/>
<circle cx="480.659" cy="424.5" r="1.5" fill="white" fill-opacity="0.5"/>
<circle cx="489.659" cy="424.5" r="1.5" fill="white" fill-opacity="0.5"/>
<circle cx="498.659" cy="424.5" r="1.5" fill="white" fill-opacity="0.5"/>
<circle cx="408.659" cy="433.5" r="1.5" fill="white" fill-opacity="0.5"/>
<circle cx="417.659" cy="433.5" r="1.5" fill="white" fill-opacity="0.5"/>
<circle cx="426.659" cy="433.5" r="1.5" fill="white" fill-opacity="0.5"/>
<circle cx="435.659" cy="433.5" r="1.5" fill="white" fill-opacity="0.5"/>
<circle cx="444.659" cy="433.5" r="1.5" fill="white" fill-opacity="0.5"/>
<circle cx="453.659" cy="433.5" r="1.5" fill="white" fill-opacity="0.5"/>
<circle cx="462.659" cy="433.5" r="1.5" fill="white" fill-opacity="0.5"/>
<circle cx="471.659" cy="433.5" r="1.5" fill="white" fill-opacity="0.5"/>
<circle cx="480.659" cy="433.5" r="1.5" fill="white" fill-opacity="0.5"/>
<circle cx="489.659" cy="433.5" r="1.5" fill="white" fill-opacity="0.5"/>
<circle cx="498.659" cy="433.5" r="1.5" fill="white" fill-opacity="0.5"/>
<circle cx="408.659" cy="442.5" r="1.5" fill="white" fill-opacity="0.5"/>
<circle cx="417.659" cy="442.5" r="1.5" fill="white" fill-opacity="0.5"/>
<circle cx="426.659" cy="442.5" r="1.5" fill="white" fill-opacity="0.5"/>
<circle cx="435.659" cy="442.5" r="1.5" fill="white" fill-opacity="0.5"/>
<circle cx="444.659" cy="442.5" r="1.5" fill="white" fill-opacity="0.5"/>
<circle cx="453.659" cy="442.5" r="1.5" fill="white" fill-opacity="0.5"/>
<circle cx="462.659" cy="442.5" r="1.5" fill="white" fill-opacity="0.5"/>
<circle cx="471.659" cy="442.5" r="1.5" fill="white" fill-opacity="0.5"/>
<circle cx="480.659" cy="442.5" r="1.5" fill="white" fill-opacity="0.5"/>
<circle cx="489.659" cy="442.5" r="1.5" fill="white" fill-opacity="0.5"/>
<circle cx="498.659" cy="442.5" r="1.5" fill="white" fill-opacity="0.5"/>
<circle cx="324.659" cy="311.5" r="106.5" fill="url(#paint1_linear_50_1444)"/>
<circle cx="324.659" cy="311.5" r="107" stroke="black" stroke-opacity="0.05"/>
<path d="M0.158997 82C0.158997 79.2386 2.39757 77 5.159 77H266.159C268.92 77 271.159 79.2386 271.159 82V198C271.159 280.843 204.002 348 121.159 348H5.159C2.39758 348 0.158997 345.761 0.158997 343V82Z" fill="url(#paint2_linear_50_1444)"/>
<path d="M14.8097 76.5051C20.4873 76.4921 27.9298 76.506 33.586 76.5251C35.3587 76.531 34.461 76.5575 35.6847 76.5628C38.078 76.5731 40.3076 76.5601 42.6727 76.5724C43.4565 76.5766 42.4808 76.6186 43.3027 76.622C47.8064 76.6406 52.067 76.6299 56.6293 76.6388C79.1017 76.6828 101.191 76.6986 123.939 76.7177C131.439 76.724 140.557 76.7621 148.304 76.7454C149.208 76.7435 148.669 76.7066 148.841 76.7036C151.54 76.6571 150.643 76.7315 152.405 76.7414C159.398 76.7804 167.175 76.7838 173.906 76.7695C176.769 76.7634 173.898 76.6902 176.781 76.7313C176.982 76.7341 176.255 76.7732 177.04 76.7774C178.821 76.7867 182.2 76.7798 183.58 76.7829C186.24 76.789 186.68 76.7886 189.196 76.7891C192.635 76.79 196.726 76.8095 200.416 76.8006C201.204 76.7986 200.161 76.7585 201.417 76.7517C202.674 76.7449 206.001 76.7483 207.122 76.7577C208.244 76.7672 207.766 76.7987 207.964 76.8059C209.597 76.8669 213.445 76.7824 213.94 76.7804C222.966 76.7448 230.706 76.7929 239.178 76.7927C245.61 76.7925 252.488 76.7766 258.608 76.7788C261.238 76.7798 263.724 76.7833 266.159 76.7871C268.951 76.7352 271.419 79.2116 271.361 82C271.359 83.681 271.358 85.387 271.359 87.1488C271.36 87.8964 271.407 87.0204 271.407 87.9334C271.413 97.6337 271.408 107.267 271.376 116.925C271.373 117.894 271.331 116.645 271.326 117.613C271.292 123.538 271.21 132.913 271.39 136.432C271.383 140.445 271.376 145.318 271.339 148.908C271.316 151.223 271.271 148.975 271.29 151.818C271.294 152.46 271.334 151.626 271.337 152.588C271.352 156.637 271.339 161.062 271.359 165.068C271.364 165.883 271.399 165.66 271.405 165.891C271.457 167.831 271.372 171.062 271.366 171.766C271.319 177.128 271.338 181.044 271.336 186.039C271.336 187.199 271.384 185.828 271.385 186.944C271.389 190.591 271.389 194.322 271.383 198C271.38 200.171 271.328 202.314 271.233 204.4C271.173 205.656 271.184 204.499 271.152 205.099C271 207.752 271.035 208.356 270.813 210.891C270.763 211.425 270.755 211.121 270.743 211.219C270.551 212.736 270.492 214.068 270.451 214.464C269.916 219.436 269.338 222.579 268.434 227.307C268.323 227.872 268.621 226.609 268.304 228.194C266.174 238.792 262.622 249.73 258.19 259.462C257.499 260.975 257.959 259.88 257.912 259.973C257.149 261.499 256.749 262.526 256.517 263.016C254.683 266.888 252.712 270.356 251.344 272.925C242.269 288.601 230.44 302.599 216.51 313.945C216.333 314.089 216.623 313.797 216.27 314.084C211.987 317.506 212.835 316.884 209.977 319.124C209.257 319.688 206.931 321.218 206.721 321.348C205.97 321.838 206.699 321.257 206.449 321.424C204.376 322.794 204.837 322.749 202.022 324.572C201.934 324.628 202.284 324.358 202.045 324.507C201.303 324.969 200.577 325.443 199.842 325.881C198.153 326.877 197.516 327.157 194.948 328.689C194.62 328.877 195.192 328.714 192.561 330.146C191.525 330.732 186.815 333.136 185.464 333.74C184.125 334.363 185.026 333.896 184.93 333.94C181.297 335.564 182.656 334.908 180.801 335.647C178.939 336.369 179.515 336.307 178.774 336.641C178.034 336.978 175.307 338.019 174.627 338.255C173.951 338.497 174.78 338.156 174.18 338.375C170.196 339.794 172.47 339.098 171.169 339.598C168.095 340.749 165.603 341.401 162.721 342.222C161.938 342.442 162.584 342.289 161.888 342.489C159.121 343.269 157.447 343.661 154.273 344.423C153.756 344.55 151.18 345.188 149.499 345.444C149.26 345.48 149.928 345.322 148.727 345.54C146.935 345.87 143.669 346.393 141.736 346.661C140.303 346.861 141.956 346.698 140.145 346.916C139.339 347.009 140.827 346.793 139.313 346.968C137.801 347.152 133.955 347.527 132.483 347.625C131.015 347.732 131.821 347.714 131.703 347.726C130.987 347.799 128.153 347.972 127.912 347.976C125.645 348.077 123.396 348.125 121.159 348.122C111.1 348.109 101.501 348.066 91.4674 348.085C90.506 348.086 91.1464 348.129 90.9998 348.13C87.7085 348.148 90.3035 348.034 88.0044 347.996C88.3367 348.083 86.9794 348.067 84.6611 348.077C83.5439 348.081 84.1524 348.115 84.0504 348.118C82.3937 348.169 81.2401 348.103 80.943 348.09C79.8457 348.04 78.6517 348.099 77.905 348.066C77.1589 348.033 78.8762 347.984 76.6528 347.985C76.0293 348.016 77.68 348.097 75.9919 348.11C69.6227 348.16 57.7334 348.096 52.6123 348.09C47.5014 348.083 45.8506 348.089 42.8724 348.077C37.4929 348.057 39.4644 348.117 36.1241 348.145C32.7741 348.172 34.4026 348.024 33.921 347.993C33.4483 347.961 32.9321 347.994 32.3441 347.976C31.758 347.959 33.0268 347.937 31.6484 347.93C30.2691 347.924 26.4982 347.98 26.0093 348.014C24.9758 348.084 26.675 348.158 23.0255 348.132C22.8157 348.131 23.4968 348.092 22.6931 348.088C16.927 348.061 10.9585 348.057 5.159 348.036C4.53308 348.035 3.91043 347.916 3.33345 347.688C2.52899 347.33 3.26189 347.618 2.80656 347.39C0.81827 346.181 0.643856 345.018 0.408748 344.543C0.232822 344.001 0.140177 343.812 0.0843983 343C0.0741557 342.755 0.0635555 342.454 0.0528132 342.068C0.160681 342.722 0.226675 341.111 0.227312 337.078C0.227733 334.653 0.180622 335.071 0.147417 333.503C0.137408 333.032 0.169756 331.317 0.1476 331.006C0.0751763 329.981 -0.00589789 331.597 0.026385 327.438C0.0279192 327.256 0.0675631 327.837 0.069964 327.207C0.085679 323.132 0.00992444 322.644 0.000750348 318.24C-0.00644816 314.787 0.039746 308.647 0.047259 304.716C0.168534 304.799 0.140763 301.086 0.0571467 299.579C0.0605699 297.028 0.0558429 294.273 0.0674005 291.807C0.0713409 290.958 0.106453 291.516 0.110247 291.409C0.169762 289.768 0.088412 288.659 0.0852227 288.108C0.0542207 282.14 0.115877 277.277 0.0556208 271.581C0.0534505 271.379 -0.0307907 271.051 0.0307185 269.529C0.0349584 269.43 0.0732867 271.311 0.0762506 268.632C0.0792212 265.952 0.124381 260.9 0.0853448 257.18C0.0759471 256.28 0.00756039 254.002 0.0609919 252.175C0.0682474 251.931 0.092408 252.198 0.105853 251.846C0.148692 250.71 0.0635451 250.09 0.135882 248.754C0.208215 247.419 0.262388 244.641 0.212481 240.889C0.21103 240.769 0.143543 239.881 0.14461 238.701C0.146371 236.818 0.16043 234.144 0.159991 232.177C0.159756 231.235 0.117849 231.838 0.117083 231.675C0.0936003 225.343 0.130959 220.837 0.147173 214.054C0.150228 212.811 0.093083 209.237 0.138262 206.83C0.187719 204.187 0.393453 206.903 0.344438 200.828C0.324833 198.377 0.0638231 195.275 0.199053 190.872C0.165544 182.331 0.234754 174.433 0.186907 165.869C0.184787 165.484 0.111941 164.266 0.112933 163.36C0.114545 162.016 0.148592 161.278 0.150835 160.319C0.161091 156.297 0.131961 152.616 0.136492 148.739C0.138138 147.267 0.173343 147.782 0.17531 146.026C0.177245 144.271 0.130888 143.101 0.153277 140.723C0.170342 138.927 0.265096 137.131 0.27614 134.748C0.182677 134.657 0.184602 133.019 0.15993 130.109C0.155143 129.55 0.122612 130.15 0.11867 129.885C0.101904 128.808 0.128864 127.812 0.110613 126.789C0.10623 126.541 0.0743115 126.529 0.0689264 126.326C0.0219206 124.597 0.0937178 121.748 0.106219 121.259C0.153695 119.383 0.112181 118.507 0.130877 117.069C0.14957 115.633 0.172939 117.78 0.184282 116.103C0.207746 112.626 0.202591 108.158 0.204058 104.627C0.204446 103.218 0.16184 104.18 0.160906 103.978C0.1501 101.065 0.195421 98.1185 0.110552 96.5031C0.32999 94.4831 0.0892679 94.7462 0.133196 90.5819C0.136749 90.2538 0.24052 89.8365 0.255754 91.0959C0.270975 92.3552 0.238537 94.2649 0.262285 96.0122C0.267858 96.426 0.365098 98.7963 0.370988 99.1197C0.417023 101.653 0.261952 102.012 0.253435 102.146C0.16152 103.666 0.266277 106.562 0.273516 107.325C0.306683 110.815 0.284875 113.779 0.30855 116.698C0.323851 118.607 0.425428 118.793 0.422319 120.292C0.412042 125.275 0.270341 127.014 0.393205 131.71C0.41941 132.716 0.530431 131.716 0.443132 135.323C0.437628 135.55 0.357766 138.228 0.408281 139.776C0.41465 139.97 0.447005 139.964 0.449724 140.22C0.467305 141.938 0.441529 143.084 0.453874 144.955C0.466219 146.826 0.484623 149.076 0.473649 151.213C0.467087 152.5 0.406804 154.152 0.392045 154.768C0.349529 156.509 0.419238 158.375 0.367754 159.453C0.31601 160.54 0.237429 158.414 0.203997 161.265C0.288059 161.371 0.37434 161.614 0.458879 161.783C0.455919 168.031 0.428737 174.179 0.432451 180.448C0.432995 181.225 0.478187 180.43 0.479936 181.263C0.487115 184.778 0.454899 187.848 0.467729 191.494C0.477832 194.316 0.525681 197.41 0.537736 200.36C0.441545 202.162 0.4742 206.541 0.46541 209.721C0.462372 210.835 0.436682 210.761 0.4283 211.553C0.397303 214.542 0.482306 213.142 0.495683 213.961C0.552775 217.477 0.360375 217.778 0.365129 221.923C0.365316 222.143 0.467873 224.827 0.47426 225.197C0.515905 227.546 0.438563 225.586 0.430986 227.056C0.417138 229.74 0.392646 231.606 0.422685 234.755C0.431582 235.673 0.495505 237.876 0.446061 239.66C0.439587 239.894 0.405688 239.765 0.403703 239.954C0.370611 243.372 0.477126 243.462 0.5132 245.415C0.549266 247.368 0.475737 250.386 0.454545 251C0.399723 252.606 0.431116 249.769 0.425737 249.682C0.361713 248.66 0.372736 250.86 0.367326 252.542C0.262887 252.785 0.269156 255.137 0.362138 254.285C0.372295 254.188 0.362555 252.88 0.367326 252.542C0.469795 254.018 0.482918 256.602 0.387163 259.456C0.342283 260.793 0.289956 259.529 0.309099 263.588C0.31774 265.43 0.389652 264.718 0.409257 266.344C0.453989 270.058 0.386908 274.883 0.397478 278.712C0.401315 280.102 0.440679 278.748 0.444658 279.698C0.45534 282.218 0.425805 284.441 0.440934 286.972C0.442355 287.201 0.483561 286.641 0.484086 287.428C0.488872 293.395 0.462479 298.59 0.461747 304.82C0.461413 307.83 0.484139 313.212 0.47957 316.33C0.471894 321.735 0.411974 328.383 0.42653 333C0.435848 336.011 0.477062 335.351 0.505143 336.641C0.545457 338.485 0.502432 341.381 0.471267 343C0.460791 343.534 0.538742 343.916 0.56615 344.058C0.563371 344.068 0.432337 343.452 0.438766 343C0.433631 342.542 0.425998 342.262 0.415605 342.941C0.414513 342.961 0.413494 342.981 0.412546 343C0.384648 343.731 0.56818 344.033 0.56615 344.058C0.588151 344.224 0.926463 345.578 1.99801 346.511C3.02643 347.495 4.56357 347.745 5.03662 347.722C5.08344 347.723 5.12395 347.722 5.159 347.721C5.53781 347.712 5.30184 347.68 5.56719 347.678C12.4887 347.643 19.4222 347.634 26.4422 347.652C26.5658 347.653 26.3797 347.696 26.6702 347.698C30.7343 347.717 33.3366 347.664 36.6884 347.632C40.0397 347.6 42.6974 347.611 44.6813 347.686C47.2099 347.676 50.8377 347.709 52.9254 347.73C55.0129 347.75 55.3042 347.665 55.4879 347.663C61.217 347.609 64.5288 347.658 70.4726 347.665C73.2984 347.669 78.9037 347.657 81.9633 347.647C84.3814 347.64 85.8381 347.66 88.0662 347.647C88.3676 347.646 88.0631 347.608 88.1551 347.606C90.6417 347.561 89.4467 347.653 89.9601 347.67C91.8214 347.73 92.9714 347.762 96.1557 347.734C96.8902 347.727 99.0297 347.594 100.369 347.586C102.109 347.576 101.452 347.624 103.275 347.613C103.431 347.612 103.399 347.582 104.523 347.583C109.745 347.589 115.438 347.606 120.865 347.603C121.045 347.603 121.125 347.6 121.159 347.596C121.263 347.583 120.916 347.557 121.728 347.554C126.754 347.537 132.24 347.233 137.086 346.735C138.285 346.612 137.537 346.725 137.799 346.706C139.404 346.593 141.643 346.207 142.012 346.151C150.853 344.831 157.572 343.408 166.262 340.673C166.74 340.531 170.338 339.247 171.956 338.731C172.066 338.698 173.682 338.198 175.053 337.607C175.138 337.569 174.145 337.913 175.854 337.251C177.562 336.588 180.272 335.435 182.588 334.435C183.322 334.12 185.067 333.415 187.177 332.305C187.32 332.24 190.531 330.454 191.724 329.912C191.917 329.821 191.779 330.039 194.239 328.61C194.706 328.335 193.838 328.799 195.074 328.082C196.967 326.981 199.471 325.517 201.712 324.022C202.104 323.763 203.739 322.618 205.093 321.76C205.305 321.626 204.931 321.924 205.632 321.45C208.965 319.19 212.33 316.647 215.513 314.086C216.638 313.176 216.104 313.691 217.274 312.736C218.446 311.783 220.748 309.792 221.894 308.704C223.041 307.616 221.713 308.722 223.441 307.105C230.918 300.047 237.673 292.353 243.591 283.956C244.463 282.707 243.721 283.73 244.989 281.876C249.778 275.109 256.475 262.451 259.173 255.786C261.401 250.486 258.715 257.206 260.382 253.138C261.178 251.169 261.866 248.966 262.032 248.487C263.674 243.763 264.728 240.449 265.873 236.084C266.106 235.181 265.835 236.055 266.031 235.287C266.694 232.678 267.343 229.901 267.842 227.367C268.064 226.232 267.991 226.435 268.19 225.389C268.657 222.885 269.028 220.644 269.391 218.194C269.424 217.97 269.261 219.49 269.513 217.62C269.917 214.584 270.324 210.821 270.504 207.299C270.555 206.255 270.494 206.202 270.639 203.976C270.664 203.506 270.747 204.111 270.739 201.498C270.738 201.246 270.735 199.693 270.716 198C270.703 196.745 270.7 195.417 270.729 194.496C270.747 193.926 270.82 192.473 270.809 191.215C270.807 191.044 270.767 191.727 270.763 190.685C270.75 187.012 270.754 183.162 270.741 179.388C270.738 178.38 270.697 179.881 270.693 178.379C270.682 174.248 270.693 169.091 270.706 165.052C270.711 163.563 270.745 164.593 270.749 164.484C270.81 162.742 270.727 161.711 270.723 161.133C270.694 157.536 270.733 154.798 270.722 151.482C270.72 150.567 270.681 151.216 270.677 151.034C270.643 149.145 270.713 150.552 270.721 149.356C270.743 146.007 270.74 142.273 270.735 138.886C270.733 137.642 270.688 139.04 270.686 137.924C270.678 131.315 270.683 124.445 270.708 117.996C270.713 116.781 270.748 117.545 270.756 117.292C270.811 115.548 270.735 112.991 270.728 112.403C270.695 109.728 270.726 108.689 270.72 106.327C270.701 98.8088 270.703 90.1407 270.711 82C270.768 79.4876 268.484 77.3702 266.159 77.4399C264.61 77.4381 263.106 77.4363 261.661 77.4346C247.467 77.4183 236.454 77.3851 222.918 77.3937C222.058 77.3942 222.925 77.4407 222.184 77.4417C212.61 77.4529 203.184 77.4348 193.59 77.4482C192.803 77.4492 193.938 77.4933 192.674 77.4964C190.083 77.5031 186.8 77.5007 184.179 77.4866C182.901 77.4799 184.615 77.442 183.329 77.436C180.333 77.4218 177.122 77.4187 174.045 77.4257C172.736 77.4288 174.711 77.4739 173.009 77.4744C161.415 77.4789 150.029 77.4867 138.313 77.4283C137.51 77.4243 136.805 77.3327 135.097 77.3502C134.968 77.3757 134.975 77.4056 134.919 77.4328C118.042 77.4474 101.336 77.4156 84.4111 77.4107C83.6975 77.4105 84.9308 77.4591 83.5492 77.4589C75.5531 77.4582 67.7884 77.4717 59.6092 77.4234C58.7977 77.4187 59.2141 77.3333 56.8225 77.3462C56.4008 77.3486 52.7988 77.36 51.8676 77.3785C51.7411 77.3813 52.3982 77.4212 51.2376 77.4223C44.4926 77.4284 37.4244 77.4193 30.6911 77.3949C29.6044 77.3909 30.7617 77.3485 29.9877 77.3452C24.4973 77.3227 18.5254 77.355 13.2792 77.3164C9.76748 77.2905 11.0676 77.2171 9.20155 77.1449C8.93761 77.1347 6.76308 77.133 6.65063 77.091C6.36193 76.9853 7.41521 76.8696 6.98302 76.757C6.89171 76.7327 3.97945 76.7588 5.7037 76.7002C5.82415 76.6963 7.93556 76.6768 8.4556 76.6569C8.81767 76.6432 8.16521 76.6004 8.90394 76.5828C9.64261 76.5653 10.4543 76.6011 11.679 76.5804C12.9032 76.5595 12.3649 76.5108 14.8097 76.5051ZM62.3251 347.819C64.2581 347.86 64.5433 347.711 62.4527 347.746C62.3514 347.748 62.2254 347.817 62.3251 347.819ZM0.315935 174.144C0.249974 176.671 0.346963 178.4 0.397905 176.617C0.448792 174.835 0.33593 173.374 0.315935 174.144ZM0.267778 147.939C0.215771 150.892 0.427835 151.357 0.384965 148.194C0.382543 148.01 0.270798 147.766 0.267778 147.939ZM17.8553 77.1243C17.8287 77.1223 16.2655 77.1204 16.2282 77.1223C15.3958 77.1698 18.5215 77.1737 17.8553 77.1243ZM0.215349 121.935C0.186663 122.857 0.219778 125.512 0.255449 124.366C0.284146 123.444 0.251033 120.787 0.215349 121.935ZM162.623 342.174C162.653 342.169 163.728 341.857 163.703 341.851C163.619 341.835 162.126 342.278 162.623 342.174ZM1.90318 78.2765C0.676053 79.3387 0.183442 80.8397 0.181536 82C0.132951 85.3421 0.0457797 86.3434 0.0480049 82C0.0481671 81.7205 0.0709893 81.4195 0.128291 81.1014C0.288662 80.3966 0.0522518 81.297 0.0852329 82C0.0994225 82.5689 0.11403 82.994 0.121172 82.2527C0.121988 82.1677 0.122692 82.0835 0.123292 82C0.225797 79.1748 2.07895 77.0358 5.10192 76.9402C5.38629 76.9559 4.56615 76.9182 3.70196 77.217C2.82423 77.4893 2.02663 78.1533 1.89472 78.2843C1.89754 78.2817 1.90036 78.2791 1.90318 78.2765ZM63.4382 347.999C63.4769 348.001 65.0282 348.003 65.0654 348.001C65.9056 347.953 62.7803 347.95 63.4382 347.999ZM219.654 311.229C219.729 311.184 222.418 308.788 222.495 308.698C223.843 307.389 218.413 312.235 219.654 311.229ZM0.0504938 304.654C0.00273161 302.961 -0.00289188 300.936 0.0570856 299.587C0.0539017 301.269 0.0534327 302.963 0.0504938 304.654Z" fill="black" fill-opacity="0.05"/>
<circle cx="21.659" cy="1.5" r="1.5" fill="black" fill-opacity="0.1"/>
<circle cx="30.659" cy="1.5" r="1.5" fill="black" fill-opacity="0.1"/>
<circle cx="39.659" cy="1.5" r="1.5" fill="black" fill-opacity="0.1"/>
<circle cx="48.659" cy="1.5" r="1.5" fill="black" fill-opacity="0.1"/>
<circle cx="57.659" cy="1.5" r="1.5" fill="black" fill-opacity="0.1"/>
<circle cx="66.659" cy="1.5" r="1.5" fill="black" fill-opacity="0.1"/>
<circle cx="75.659" cy="1.5" r="1.5" fill="black" fill-opacity="0.1"/>
<circle cx="84.659" cy="1.5" r="1.5" fill="black" fill-opacity="0.1"/>
<circle cx="93.659" cy="1.5" r="1.5" fill="black" fill-opacity="0.1"/>
<circle cx="102.659" cy="1.5" r="1.5" fill="black" fill-opacity="0.1"/>
<circle cx="111.659" cy="1.5" r="1.5" fill="black" fill-opacity="0.1"/>
<circle cx="21.659" cy="10.5" r="1.5" fill="black" fill-opacity="0.1"/>
<circle cx="30.659" cy="10.5" r="1.5" fill="black" fill-opacity="0.1"/>
<circle cx="39.659" cy="10.5" r="1.5" fill="black" fill-opacity="0.1"/>
<circle cx="48.659" cy="10.5" r="1.5" fill="black" fill-opacity="0.1"/>
<circle cx="57.659" cy="10.5" r="1.5" fill="black" fill-opacity="0.1"/>
<circle cx="66.659" cy="10.5" r="1.5" fill="black" fill-opacity="0.1"/>
<circle cx="75.659" cy="10.5" r="1.5" fill="black" fill-opacity="0.1"/>
<circle cx="84.659" cy="10.5" r="1.5" fill="black" fill-opacity="0.1"/>
<circle cx="93.659" cy="10.5" r="1.5" fill="black" fill-opacity="0.1"/>
<circle cx="102.659" cy="10.5" r="1.5" fill="black" fill-opacity="0.1"/>
<circle cx="111.659" cy="10.5" r="1.5" fill="black" fill-opacity="0.1"/>
<circle cx="21.659" cy="19.5" r="1.5" fill="black" fill-opacity="0.1"/>
<circle cx="30.659" cy="19.5" r="1.5" fill="black" fill-opacity="0.1"/>
<circle cx="39.659" cy="19.5" r="1.5" fill="black" fill-opacity="0.1"/>
<circle cx="48.659" cy="19.5" r="1.5" fill="black" fill-opacity="0.1"/>
<circle cx="57.659" cy="19.5" r="1.5" fill="black" fill-opacity="0.1"/>
<circle cx="66.659" cy="19.5" r="1.5" fill="black" fill-opacity="0.1"/>
<circle cx="75.659" cy="19.5" r="1.5" fill="black" fill-opacity="0.1"/>
<circle cx="84.659" cy="19.5" r="1.5" fill="black" fill-opacity="0.1"/>
<circle cx="93.659" cy="19.5" r="1.5" fill="black" fill-opacity="0.1"/>
<circle cx="102.659" cy="19.5" r="1.5" fill="black" fill-opacity="0.1"/>
<circle cx="111.659" cy="19.5" r="1.5" fill="black" fill-opacity="0.1"/>
<circle cx="21.659" cy="28.5" r="1.5" fill="black" fill-opacity="0.1"/>
<circle cx="30.659" cy="28.5" r="1.5" fill="black" fill-opacity="0.1"/>
<circle cx="39.659" cy="28.5" r="1.5" fill="black" fill-opacity="0.1"/>
<circle cx="48.659" cy="28.5" r="1.5" fill="black" fill-opacity="0.1"/>
<circle cx="57.659" cy="28.5" r="1.5" fill="black" fill-opacity="0.1"/>
<circle cx="66.659" cy="28.5" r="1.5" fill="black" fill-opacity="0.1"/>
<circle cx="75.659" cy="28.5" r="1.5" fill="black" fill-opacity="0.1"/>
<circle cx="84.659" cy="28.5" r="1.5" fill="black" fill-opacity="0.1"/>
<circle cx="93.659" cy="28.5" r="1.5" fill="black" fill-opacity="0.1"/>
<circle cx="102.659" cy="28.5" r="1.5" fill="black" fill-opacity="0.1"/>
<circle cx="111.659" cy="28.5" r="1.5" fill="black" fill-opacity="0.1"/>
<circle cx="21.659" cy="37.5" r="1.5" fill="black" fill-opacity="0.1"/>
<circle cx="30.659" cy="37.5" r="1.5" fill="black" fill-opacity="0.1"/>
<circle cx="39.659" cy="37.5" r="1.5" fill="black" fill-opacity="0.1"/>
<circle cx="48.659" cy="37.5" r="1.5" fill="black" fill-opacity="0.1"/>
<circle cx="57.659" cy="37.5" r="1.5" fill="black" fill-opacity="0.1"/>
<circle cx="66.659" cy="37.5" r="1.5" fill="black" fill-opacity="0.1"/>
<circle cx="75.659" cy="37.5" r="1.5" fill="black" fill-opacity="0.1"/>
<circle cx="84.659" cy="37.5" r="1.5" fill="black" fill-opacity="0.1"/>
<circle cx="93.659" cy="37.5" r="1.5" fill="black" fill-opacity="0.1"/>
<circle cx="102.659" cy="37.5" r="1.5" fill="black" fill-opacity="0.1"/>
<circle cx="111.659" cy="37.5" r="1.5" fill="black" fill-opacity="0.1"/>
<circle cx="21.659" cy="46.5" r="1.5" fill="black" fill-opacity="0.1"/>
<circle cx="30.659" cy="46.5" r="1.5" fill="black" fill-opacity="0.1"/>
<circle cx="39.659" cy="46.5" r="1.5" fill="black" fill-opacity="0.1"/>
<circle cx="48.659" cy="46.5" r="1.5" fill="black" fill-opacity="0.1"/>
<circle cx="57.659" cy="46.5" r="1.5" fill="black" fill-opacity="0.1"/>
<circle cx="66.659" cy="46.5" r="1.5" fill="black" fill-opacity="0.1"/>
<circle cx="75.659" cy="46.5" r="1.5" fill="black" fill-opacity="0.1"/>
<circle cx="84.659" cy="46.5" r="1.5" fill="black" fill-opacity="0.1"/>
<circle cx="93.659" cy="46.5" r="1.5" fill="black" fill-opacity="0.1"/>
<circle cx="102.659" cy="46.5" r="1.5" fill="black" fill-opacity="0.1"/>
<circle cx="111.659" cy="46.5" r="1.5" fill="black" fill-opacity="0.1"/>
<circle cx="21.659" cy="55.5" r="1.5" fill="black" fill-opacity="0.1"/>
<circle cx="30.659" cy="55.5" r="1.5" fill="black" fill-opacity="0.1"/>
<circle cx="39.659" cy="55.5" r="1.5" fill="black" fill-opacity="0.1"/>
<circle cx="48.659" cy="55.5" r="1.5" fill="black" fill-opacity="0.1"/>
<circle cx="57.659" cy="55.5" r="1.5" fill="black" fill-opacity="0.1"/>
<circle cx="66.659" cy="55.5" r="1.5" fill="black" fill-opacity="0.1"/>
<circle cx="75.659" cy="55.5" r="1.5" fill="black" fill-opacity="0.1"/>
<circle cx="84.659" cy="55.5" r="1.5" fill="black" fill-opacity="0.1"/>
<circle cx="93.659" cy="55.5" r="1.5" fill="black" fill-opacity="0.1"/>
<circle cx="102.659" cy="55.5" r="1.5" fill="black" fill-opacity="0.1"/>
<circle cx="111.659" cy="55.5" r="1.5" fill="black" fill-opacity="0.1"/>
<circle cx="21.659" cy="64.5" r="1.5" fill="black" fill-opacity="0.1"/>
<circle cx="30.659" cy="64.5" r="1.5" fill="black" fill-opacity="0.1"/>
<circle cx="39.659" cy="64.5" r="1.5" fill="black" fill-opacity="0.1"/>
<circle cx="48.659" cy="64.5" r="1.5" fill="black" fill-opacity="0.1"/>
<circle cx="57.659" cy="64.5" r="1.5" fill="black" fill-opacity="0.1"/>
<circle cx="66.659" cy="64.5" r="1.5" fill="black" fill-opacity="0.1"/>
<circle cx="75.659" cy="64.5" r="1.5" fill="black" fill-opacity="0.1"/>
<circle cx="84.659" cy="64.5" r="1.5" fill="black" fill-opacity="0.1"/>
<circle cx="93.659" cy="64.5" r="1.5" fill="black" fill-opacity="0.1"/>
<circle cx="102.659" cy="64.5" r="1.5" fill="black" fill-opacity="0.1"/>
<circle cx="111.659" cy="64.5" r="1.5" fill="black" fill-opacity="0.1"/>
<circle cx="21.659" cy="73.5" r="1.5" fill="black" fill-opacity="0.1"/>
<circle cx="30.659" cy="73.5" r="1.5" fill="black" fill-opacity="0.1"/>
<circle cx="39.659" cy="73.5" r="1.5" fill="black" fill-opacity="0.1"/>
<circle cx="48.659" cy="73.5" r="1.5" fill="black" fill-opacity="0.1"/>
<circle cx="57.659" cy="73.5" r="1.5" fill="black" fill-opacity="0.1"/>
<circle cx="66.659" cy="73.5" r="1.5" fill="black" fill-opacity="0.1"/>
<circle cx="75.659" cy="73.5" r="1.5" fill="black" fill-opacity="0.1"/>
<circle cx="84.659" cy="73.5" r="1.5" fill="black" fill-opacity="0.1"/>
<circle cx="93.659" cy="73.5" r="1.5" fill="black" fill-opacity="0.1"/>
<circle cx="102.659" cy="73.5" r="1.5" fill="black" fill-opacity="0.1"/>
<circle cx="111.659" cy="73.5" r="1.5" fill="black" fill-opacity="0.1"/>
<circle cx="21.659" cy="82.5" r="1.5" fill="black" fill-opacity="0.1"/>
<circle cx="30.659" cy="82.5" r="1.5" fill="black" fill-opacity="0.1"/>
<circle cx="39.659" cy="82.5" r="1.5" fill="black" fill-opacity="0.1"/>
<circle cx="48.659" cy="82.5" r="1.5" fill="black" fill-opacity="0.1"/>
<circle cx="57.659" cy="82.5" r="1.5" fill="black" fill-opacity="0.1"/>
<circle cx="66.659" cy="82.5" r="1.5" fill="black" fill-opacity="0.1"/>
<circle cx="75.659" cy="82.5" r="1.5" fill="black" fill-opacity="0.1"/>
<circle cx="84.659" cy="82.5" r="1.5" fill="black" fill-opacity="0.1"/>
<circle cx="93.659" cy="82.5" r="1.5" fill="black" fill-opacity="0.1"/>
<circle cx="102.659" cy="82.5" r="1.5" fill="black" fill-opacity="0.1"/>
<circle cx="111.659" cy="82.5" r="1.5" fill="black" fill-opacity="0.1"/>
<circle cx="21.659" cy="91.5" r="1.5" fill="black" fill-opacity="0.1"/>
<circle cx="30.659" cy="91.5" r="1.5" fill="black" fill-opacity="0.1"/>
<circle cx="39.659" cy="91.5" r="1.5" fill="black" fill-opacity="0.1"/>
<circle cx="48.659" cy="91.5" r="1.5" fill="black" fill-opacity="0.1"/>
<circle cx="57.659" cy="91.5" r="1.5" fill="black" fill-opacity="0.1"/>
<circle cx="66.659" cy="91.5" r="1.5" fill="black" fill-opacity="0.1"/>
<circle cx="75.659" cy="91.5" r="1.5" fill="black" fill-opacity="0.1"/>
<circle cx="84.659" cy="91.5" r="1.5" fill="black" fill-opacity="0.1"/>
<circle cx="93.659" cy="91.5" r="1.5" fill="black" fill-opacity="0.1"/>
<circle cx="102.659" cy="91.5" r="1.5" fill="black" fill-opacity="0.1"/>
<circle cx="111.659" cy="91.5" r="1.5" fill="black" fill-opacity="0.1"/>
<path d="M192.329 359.5C194.253 356.167 199.065 356.167 200.989 359.5L285.427 505.75C287.351 509.083 284.945 513.25 281.096 513.25H112.222C108.373 513.25 105.967 509.083 107.891 505.75L192.329 359.5Z" fill="url(#paint3_linear_50_1444)"/>
<path d="M191.896 359.25C194.013 355.583 199.305 355.583 201.422 359.25L285.86 505.5L286.044 505.847C287.809 509.449 285.198 513.75 281.097 513.75H112.222C107.988 513.75 105.341 509.167 107.458 505.5L191.896 359.25Z" stroke="black" stroke-opacity="0.05"/>
<defs>
<linearGradient id="paint0_linear_50_1444" x1="355.659" y1="45" x2="355.659" y2="448" gradientUnits="userSpaceOnUse">
<stop stop-color="#62C694"/>
<stop offset="1" stop-color="#43BA7F"/>
</linearGradient>
<linearGradient id="paint1_linear_50_1444" x1="324.659" y1="205" x2="324.659" y2="418" gradientUnits="userSpaceOnUse">
<stop stop-color="#FFC670"/>
<stop offset="1" stop-color="#FFB950"/>
</linearGradient>
<linearGradient id="paint2_linear_50_1444" x1="135.659" y1="77" x2="135.659" y2="348" gradientUnits="userSpaceOnUse">
<stop stop-color="#B9D8DC"/>
<stop offset="1" stop-color="#7FDDE9"/>
</linearGradient>
<linearGradient id="paint3_linear_50_1444" x1="196.659" y1="352" x2="196.659" y2="567" gradientUnits="userSpaceOnUse">
<stop stop-color="#FD9868"/>
<stop offset="1" stop-color="#FD7E41"/>
</linearGradient>
</defs>
</svg>
