<svg width="72" height="72" viewBox="0 0 72 72" xmlns="http://www.w3.org/2000/svg"><title>Brenner logo (better)</title><g fill="none" fill-rule="evenodd"><path d="M35.986 3.554c17.9 0 32.433 14.532 32.433 32.432 0 17.9-14.534 32.432-32.434 32.432S3.554 53.886 3.554 35.986c0-17.9 14.532-32.432 32.432-32.432z" fill="#FFFEF5"/><path d="M36.102.13h.231l.115.002h.116l.115.003.114.003.115.002.115.004.114.003.114.004.115.005.114.005.115.005.113.005.115.005.114.006.114.008.114.006.115.008.114.007.113.007.113.008.114.008.114.01.113.008.114.01.114.01.113.01.114.012.114.01.113.012.113.012.112.012.113.012.113.013.112.013.112.013.113.013.112.014.112.014.11.016.113.015.11.017.113.016.112.016.11.015.112.017.112.017.11.017.112.018.11.018.11.018.112.02.11.02.11.02.11.02.11.02.112.02.11.02.11.022.11.022.11.02.108.024.11.022.11.023.108.023.11.024.108.024.11.024.107.025.108.025.108.025.108.026.11.024.107.027.11.027.106.027.108.027.108.03.107.026.106.03.107.027.107.03.107.028.107.03.107.03.107.03.107.03.106.032.106.03.106.032.106.032.105.032.106.032.104.033.105.033.104.033.105.032.104.034.105.034.104.035.104.035.104.035.104.035.104.036.104.036.104.037.103.035.105.037.103.038.103.037.104.038.103.038.102.04.102.038.102.04.102.04.103.04.1.04.102.04.102.04.1.04.103.042.1.042.102.042.1.042.1.042.1.043.1.043.1.043.1.043.1.043.1.045.1.045.1.045.1.045.098.045.1.046.098.046.098.046.1.047.097.047.1.047.097.046.098.048.097.048.098.048.097.05.097.047.097.05.098.05.096.05.097.05.097.05.096.05.096.05.095.05.095.053.095.05.096.053.096.052.095.053.095.053.095.054.094.053.094.054.094.055.094.054.093.053.093.055.093.055.093.055.092.055.093.056.092.055.093.056.092.058.092.057.09.057.093.057.09.057.092.058.09.058.09.06.092.057.09.06.09.06.09.058.09.06.09.06.09.06.09.06.088.06.09.062.088.062.09.06.087.063.088.062.088.063.09.062.086.063.087.063.088.064.088.063.086.064.087.064.087.064.086.065.086.064.085.066.086.065.086.066.085.066.086.066.085.066.085.067.085.066.084.067.084.067.083.068.085.068.083.068.083.068.084.07.083.068.082.07.082.068.082.07.08.07.083.07.08.07.083.07.08.07.08.072.082.07.08.073.08.072.08.072.08.072.08.07.08.074.078.073.078.073.08.073.077.074.078.074.078.075.08.074.077.074.077.074.077.075.077.076.077.074.076.076.077.076.076.076.075.076.075.077.076.076.074.078.075.078.073.077.074.078.074.08.075.077.074.078.072.08.073.078.073.08.073.078.073.08.072.08.072.08.072.08.07.08.072.08.07.082.072.08.07.082.07.08.07.083.07.08.07.084.07.083.068.082.07.083.068.083.068.084.07.083.066.084.068.084.067.084.067.084.066.085.067.084.066.086.067.085.066.086.064.085.066.087.065.086.065.086.064.085.065.086.063.088.064.087.063.087.064.087.063.086.063.088.062.087.063.09.062.087.062.09.06.087.062.09.06.088.06.09.062.088.06.09.06.09.06.09.06.09.06.09.058.09.06.09.057.092.057.09.058.092.058.09.057.093.057.09.057.094.057.093.057.092.056.092.056.093.054.093.055.093.055.093.054.093.054.093.054.094.054.094.053.094.053.094.053.095.054.094.053.096.052.096.05.095.052.095.052.096.05.095.052.096.05.095.05.096.05.098.05.096.05.097.05.098.047.097.05.097.047.098.048.097.048.098.047.098.047.098.047.1.047.098.046.098.046.1.046.098.045.1.045.098.045.1.044.1.046.1.044.1.043.1.043.1.043.1.042.1.042.1.043.102.042.1.04.1.04.103.042.1.04.103.04.102.04.102.04.102.04.102.04.102.038.103.04.102.037.103.038.103.037.104.038.103.037.104.036.104.037.104.036.104.036.104.035.104.035.104.035.105.035.103.034.105.034.105.033.105.034.105.032.105.032.106.032.105.032.105.032.105.03.106.033.106.03.107.032.105.03.107.03.106.03.107.028.107.03.107.027.106.03.107.026.107.028.108.028.108.027.108.026.107.028.11.026.108.025.108.024.108.025.11.024.107.024.11.024.11.024.108.023.11.022.108.022.11.023.11.02.11.023.11.02.11.022.11.02.11.02.11.02.11.02.11.02.11.02.11.017.112.018.11.017.11.018.113.017.112.017.11.016.113.017.11.015.113.016.11.016.113.015.113.015.112.014.113.013.112.014.112.013.113.012.112.013.113.01.113.013.112.012.113.01.114.01.113.01.113.01.113.01.115.01.113.01.114.007.114.008.114.008.113.008.114.008.115.006.114.007.114.007.115.005.114.006.113.005.115.004.115.004.115.005.114.004.115.002.116.002.115.003.115.002.115v.116l.002.115V36.332l-.002.115v.116l-.003.115-.003.114-.002.115-.003.114-.005.115-.004.114-.003.115-.004.114-.005.114-.006.115-.005.114-.006.115-.006.114-.006.114-.007.115-.007.113-.008.114-.008.114-.008.114-.01.114-.01.113-.01.114-.01.114-.01.113-.01.114-.01.114-.012.112-.012.113-.01.112-.014.113-.012.113-.013.112-.014.112-.014.113-.015.112-.014.112-.014.11-.015.113-.015.11-.015.113-.017.112-.016.11-.017.112-.017.11-.018.113-.017.11-.02.112-.017.11-.018.11-.02.11-.02.112-.02.11-.02.11-.02.11-.02.11-.022.11-.022.11-.02.11-.024.11-.022.11-.023.108-.024.11-.024.108-.024.11-.024.108-.025.11-.026.108-.025.108-.026.108-.026.11-.027.107-.025.11-.027.106-.027.108-.027.108-.027.107-.03.106-.027.107-.03.107-.03.107-.03.107-.028.107-.03.107-.03.106-.03.107-.033.106-.032.106-.032.105-.032.106-.032.106-.033.104-.033.105-.034.104-.033.105-.034.104-.034.105-.035.104-.035.104-.035.104-.035.104-.036.104-.036.104-.037.104-.036.103-.037.105-.038.103-.037.103-.038.104-.038.103-.04.102-.038.102-.04.102-.04.102-.04.103-.04.1-.04.102-.04.102-.04.1-.042.103-.04.1-.043.102-.043.1-.042.1-.043.1-.044.1-.043.1-.043.1-.044.1-.045.1-.043.1-.045.1-.045.1-.045.098-.046.1-.046.098-.046.098-.047.1-.047.097-.047.1-.047.097-.048.098-.048.097-.048.098-.05.097-.047.097-.05.097-.05.098-.05.096-.05.097-.05.097-.05.096-.05.096-.05.095-.053.095-.05.095-.053.096-.053.096-.053.094-.053.095-.052.095-.053.094-.054.094-.052.094-.054.094-.055.093-.055.093-.056.093-.056.093-.055.092-.057.093-.056.092-.056.092-.056.092-.057.09-.057.093-.057.092-.058.09-.058.092-.058.09-.06.09-.058.092-.06.09-.058.09-.06.09-.06.09-.06.09-.06.09-.06.09-.06.088-.062.09-.062.088-.06.088-.063.09-.062.087-.063.088-.062.09-.063.086-.063.087-.064.088-.063.087-.064.087-.064.087-.066.087-.064.086-.065.086-.065.085-.066.086-.065.086-.067.085-.067.086-.066.085-.067.085-.066.085-.068.084-.068.084-.068.083-.067.085-.07.083-.067.083-.07.084-.068.083-.07.082-.068.082-.07.082-.07.08-.07.083-.07.08-.07.083-.07.08-.072.08-.07.082-.073.08-.073.08-.072.08-.072.08-.072.08-.072.078-.073.08-.073.078-.073.08-.075.077-.074.078-.073.078-.074.08-.074.076-.076.078-.075.077-.077.077-.075.077-.075.076-.077.076-.076.076-.076.076-.077.075-.076.076-.076.074-.077.074-.078.075-.08.074-.077.074-.078.075-.078.074-.08.072-.077.073-.08.073-.08.073-.078.073-.08.072-.08.072-.08.072-.08.07-.08.072-.08.07-.082.072-.082.07-.08.07-.083.07-.08.07-.083.07-.083.07-.083.068-.083.07-.083.068-.082.068-.083.068-.084.068-.082.068-.084.067-.084.066-.085.067-.084.067-.084.066-.085.067-.084.065-.085.066-.085.065-.086.065-.087.065-.086.064-.086.065-.086.063-.086.064-.087.063-.087.064-.087.063-.087.063-.09.062-.087.063-.088.062-.088.062-.09.06-.088.062-.09.06-.09.06-.088.062-.09.06-.09.06-.09.06-.09.06-.09.06-.09.058-.09.058-.092.06-.09.057-.092.058-.09.058-.093.057-.09.057-.093.057-.093.057-.093.057-.092.056-.093.056-.093.054-.094.055-.093.054-.094.055-.094.053-.094.055-.094.053-.094.055-.094.053-.095.053-.094.054-.094.053-.095.052-.095.05-.095.052-.095.052-.096.05-.097.052-.096.05-.096.05-.096.05-.096.05-.097.05-.096.05-.097.047-.097.05-.098.047-.097.048-.098.048-.098.047-.1.047-.097.047-.1.047-.097.046-.1.046-.098.046-.1.045-.098.045-.1.045-.1.044-.1.045-.1.044-.1.043-.1.043-.1.043-.1.042-.1.042-.1.043-.102.04-.1.043-.103.04-.1.042-.103.04-.1.04-.103.04-.104.04-.102.04-.102.04-.103.038-.103.04-.103.037-.103.038-.102.037-.103.038-.104.037-.102.036-.104.037-.104.036-.104.036-.104.035-.104.035-.104.035-.105.035-.106.034-.105.034-.106.033-.105.033-.106.033-.105.032-.107.032-.105.032-.106.032-.106.03-.106.032-.107.03-.106.032-.106.03-.106.03-.107.03-.107.028-.107.03-.107.027-.107.028-.108.028-.108.028-.108.028-.107.027-.11.026-.107.028-.11.025-.107.026-.108.024-.11.025-.107.024-.108.024-.11.024-.108.023-.11.024-.108.022-.11.022-.11.022-.11.022-.11.022-.11.02-.108.022-.11.02-.11.02-.11.02-.112.02-.11.02-.11.02-.11.017-.112.017-.11.018-.112.018-.112.017-.11.017-.112.016-.112.016-.112.015-.11.016-.113.016-.11.015-.113.015-.112.014-.113.013-.112.013-.112.013-.113.012-.113.013-.113.012-.113.01-.113.012-.113.01-.113.01-.113.01-.113.01-.113.01-.113.01-.114.01-.114.007-.114.008-.113.008-.115.008-.115.008-.114.006-.114.007-.115.007-.114.005-.114.006-.116.004-.115.005-.116.004-.114.005-.115.004-.116.002-.116.002-.115.003-.116.002h-.116l-.115.002H35.64l-.116-.002h-.116l-.115-.003-.115-.003-.115-.002-.115-.003-.115-.005-.115-.004-.115-.003-.115-.005-.114-.004-.115-.006-.115-.005-.115-.006-.114-.006-.114-.006-.114-.007-.114-.007-.114-.008-.114-.008-.114-.008-.114-.01-.113-.01-.114-.01-.112-.01-.113-.01-.113-.01-.114-.01-.112-.012-.113-.01-.113-.013-.113-.013-.112-.013-.113-.014-.112-.013-.112-.014-.112-.015-.113-.014-.112-.014-.11-.015-.112-.015-.112-.016-.11-.017-.113-.016-.11-.017-.112-.017-.11-.018-.112-.018-.11-.018-.11-.02-.112-.018-.11-.02-.11-.02-.11-.02-.11-.02-.11-.02-.11-.02-.11-.022-.11-.022-.11-.022-.11-.022-.11-.022-.11-.023-.108-.025-.11-.023-.108-.024-.11-.024-.107-.025-.11-.026-.107-.025-.108-.027-.108-.025-.11-.027-.106-.025-.108-.027-.108-.027-.108-.027-.107-.028-.107-.028-.107-.028-.108-.03-.107-.03-.107-.03-.106-.028-.107-.03-.106-.03-.107-.032-.107-.03-.106-.032-.105-.032-.106-.032-.106-.032-.106-.033-.105-.034-.105-.033-.105-.033-.105-.034-.105-.034-.104-.035-.106-.035-.104-.035-.104-.035-.104-.036-.104-.036-.104-.037-.103-.036-.103-.037-.103-.038-.103-.037-.102-.038-.103-.038-.102-.04-.103-.04-.102-.038-.102-.04-.102-.04-.102-.04-.102-.04-.102-.04-.1-.04-.103-.042-.1-.042-.1-.04-.102-.044-.1-.042-.102-.043-.1-.044-.1-.043-.1-.044-.1-.045-.1-.044-.098-.043-.1-.045-.1-.045-.098-.045-.1-.046-.098-.046-.098-.046-.1-.047-.097-.047-.097-.047-.098-.047-.098-.048-.097-.048-.097-.048-.098-.05-.097-.047-.097-.05-.096-.05-.096-.05-.097-.05-.095-.05-.096-.05-.097-.05-.095-.05-.096-.053-.095-.05-.096-.053-.093-.053-.095-.053-.095-.053-.095-.052-.094-.053-.094-.054-.094-.052-.094-.055-.093-.054-.094-.056-.094-.055-.093-.056-.093-.055-.093-.057-.092-.056-.092-.056-.092-.056-.09-.057-.093-.057-.092-.057-.09-.058-.092-.058-.09-.058-.092-.06-.09-.058-.09-.06-.09-.058-.09-.06-.09-.06-.09-.06-.09-.06-.09-.06-.088-.06-.09-.062-.088-.062-.088-.06-.09-.063-.087-.062-.09-.063-.086-.062-.088-.063-.087-.063-.088-.064-.087-.063-.087-.064-.087-.064-.085-.066-.086-.064-.087-.065-.086-.066-.086-.066-.084-.066-.085-.065-.084-.067-.085-.066-.083-.067-.084-.067-.085-.067-.084-.068-.083-.068-.083-.068-.083-.068-.083-.068-.082-.07-.083-.068-.082-.07-.082-.068-.08-.07-.083-.07-.082-.07-.08-.07-.082-.07-.08-.07-.082-.072-.08-.07-.08-.073-.08-.073-.08-.072-.08-.072-.08-.072-.078-.072-.08-.073-.078-.073-.08-.073-.077-.075-.078-.074-.08-.073-.077-.074-.077-.075-.078-.074-.077-.075-.075-.077-.077-.075-.076-.076-.076-.076-.076-.076-.076-.076-.075-.077-.077-.076-.075-.076-.074-.078-.075-.077-.075-.08-.074-.077-.073-.078-.074-.078-.073-.08-.073-.078-.073-.08-.073-.08-.07-.078-.073-.08-.072-.08-.072-.08-.072-.08-.07-.08-.07-.082-.072-.08-.07-.082-.07-.08-.07-.083-.07-.08-.07-.083-.07-.083-.068-.083-.07-.083-.068-.083-.068-.082-.068-.083-.068-.084-.068-.082-.067-.084-.067-.084-.067-.085-.068-.084-.066-.084-.066-.085-.066-.084-.066-.085-.065-.085-.066-.086-.064-.087-.065-.086-.064-.086-.065-.086-.065-.087-.063-.086-.064-.087-.063-.087-.063-.088-.062-.087-.063-.087-.062-.088-.06-.09-.063-.087-.06-.09-.062-.088-.06-.09-.062-.088-.06-.09-.06-.09-.06-.09-.06-.09-.06-.09-.058-.09-.058-.09-.06-.092-.057-.09-.058-.092-.058-.09-.058-.093-.057-.092-.057-.09-.056-.094-.057-.093-.056-.092-.057-.093-.055-.093-.055-.094-.055-.093-.055-.094-.054-.094-.055-.094-.054-.094-.053-.094-.053-.094-.053-.095-.052-.095-.053-.094-.052-.095-.052-.095-.05-.095-.052-.095-.05-.096-.052-.097-.05-.096-.05-.096-.05-.096-.05-.096-.05-.097-.048-.096-.05-.097-.048-.097-.048-.098-.048-.097-.048-.098-.047-.098-.048-.1-.047-.097-.047-.1-.046-.097-.046-.1-.045-.098-.045-.1-.045-.098-.045-.1-.044-.1-.043-.1-.044-.1-.044-.1-.044-.1-.043-.1-.043-.1-.042-.1-.042-.1-.042-.102-.042-.102-.04-.1-.042-.102-.04-.102-.04-.102-.04-.1-.04-.104-.04-.102-.04-.102-.038-.103-.04-.103-.037-.103-.038-.103-.037-.102-.038-.103L2.195 48 2.16 47.9l-.038-.104-.036-.104-.036-.104-.035-.104-.035-.104-.035-.105-.034-.104-.034-.106-.034-.105-.033-.106-.034-.105-.033-.106-.033-.105-.032-.107-.032-.106-.032-.105-.03-.106-.032-.106-.03-.107-.03-.106-.032-.106-.03-.106-.03-.107-.028-.107-.03-.107-.027-.107-.028-.107-.028-.108-.03-.108-.026-.108-.027-.107-.026-.11-.026-.107-.025-.11-.027-.107-.025-.108-.025-.11-.025-.107-.024-.108-.024-.11-.023-.108-.024-.11-.023-.11-.022-.108-.022-.11-.022-.11-.022-.11-.02-.11-.022-.108-.02-.11-.02-.11-.02-.11-.02-.112-.02-.11-.018-.11-.02-.11-.017-.112-.018-.11-.018-.112-.018-.112-.017-.11-.016-.112-.017-.112-.016-.112-.016-.11-.014-.113-.015-.11-.013-.113-.014-.112-.014-.113-.014-.112-.013-.112-.013-.113-.012-.113-.012-.113-.012-.114-.01-.112-.012-.113-.01-.113-.01-.113-.01-.113-.01-.113-.01-.113-.01-.114-.007-.114-.008-.114-.008-.114-.008-.113-.008-.115-.006-.114-.007-.114-.005-.115-.005-.114-.005-.115-.005-.114-.005-.115-.004-.116-.003-.115-.003-.116-.004-.115-.002-.116-.003-.115-.002-.116v-.116l-.003-.115V35.64l.002-.116v-.116l.003-.115.003-.115.002-.115.004-.116.003-.114.004-.115.005-.115.005-.115.005-.115.005-.114.005-.116.006-.114.008-.114.006-.114.008-.114.007-.115.007-.114.008-.114.008-.114.01-.114.008-.113.01-.114.01-.112.01-.113.012-.113.01-.114.012-.113.012-.112.012-.113.012-.113.013-.112.013-.113.013-.112.013-.112.014-.113.014-.112.016-.112.015-.11.017-.112.016-.112.016-.112.015-.11.017-.112.017-.11.017-.113.018-.112.018-.11.02-.11.017-.112.02-.11.02-.11.02-.11.02-.11.02-.11.02-.11.022-.11.022-.11.022-.11.022-.11.022-.11.023-.11.024-.108.023-.11.024-.108.024-.11.025-.107.025-.11.025-.107.026-.108.024-.11.027-.107.027-.106.027-.108.027-.108.03-.108.027-.107.028-.107.028-.107.03-.108.028-.107.03-.107.03-.106.03-.107.03-.106.032-.108.03-.106.032-.106.032-.105.032-.106.032-.106.033-.106.033-.105.033-.105.032-.105.034-.105.035-.105.035-.104.035-.106.035-.104.035-.104.036-.104.036-.104.037-.104.035-.103.037-.103.038-.103.037-.103.038-.102.038-.103.04-.102.038-.103.04-.102.04-.102.04-.102.04-.102.04-.102.04-.102.04-.1.042-.103.042-.1.042-.1.042-.102.042-.1.043-.102.043-.1.043-.1.043-.1.044-.1.044-.1.045-.098.045-.1.045-.1.046-.098.046-.1.046-.098.046-.098.047-.1.047-.097.047-.097.046-.098.048-.098.048-.097.048-.098.05-.097.048-.097.05-.097.048-.096.05-.096.05-.097.05-.095.05-.096.05-.097.052-.095.052-.096.05-.095.053-.095.052-.096.053-.095.053-.093.054-.095.053-.094.054-.094.055-.094.054-.094.053-.093.055-.094.055-.094.055-.093.055-.093.056-.093.055-.092.057-.092.056-.093.057-.092.057-.09.057-.093.057-.09.058-.092.058-.09.06-.092.057-.09.06-.09.06-.09.058-.09.06-.09.06-.09.06-.09.06-.09.062-.088.06-.09.062-.088.062-.088.06-.09.063-.087.063-.09.062-.086.063-.088.063-.087.064-.088.063-.087.064-.087.064-.087.064-.085.065-.086.064-.087.066-.086.065-.086.066-.084.066-.085.066-.084.066-.085.067-.083.066-.085.067-.084.067-.084.068-.083.068-.083.068-.083.068-.083.07-.082.068-.083.07-.082.068-.082.07-.082.07-.08.07-.083.07-.08.07-.082.07-.08.072-.082.07-.08.073-.08.072-.08.072-.08.072-.08.07-.08.074-.078.073-.08.073-.078.073-.08.074-.077.074-.078.075-.08.074-.077.074-.077.074-.078.075-.077.076-.075.074-.077.076-.076.076-.076.076-.076.076-.076.077-.075.076-.077.078-.075.078-.074.077-.075.078-.075.08-.074.077-.073.078-.074.08-.073.078-.073.08-.073.078-.073.08-.07.08-.073.08-.072.08-.072.08-.072.08-.07.082-.07.08-.072.082-.07.08-.07.083-.07.082-.07.08-.07.083-.07.082-.068.083-.07.083-.068.084-.068.083-.068.084-.068.084-.068.084-.067.084-.067.085-.067.084-.068.086-.066.085-.066.086-.066.085-.066.087-.065.086-.066.086-.065.085-.064.086-.064.088-.065.087-.065.087-.063.087-.064.086-.063.088-.063.087-.062.09-.063.087-.062.09-.062.087-.06.09-.063.088-.06.09-.06.088-.062.09-.06.09-.06.09-.06.09-.06.09-.06.09-.058.09-.058.092-.06.09-.057.092-.058.09-.058.093-.058.092-.057.09-.057.093-.057.092-.055.093-.056.092-.057.093-.055.093-.055.093-.055.093-.055.093-.054.094-.055.094-.054.094-.053.094-.053.095-.053.095-.052.094-.053.095-.052.097-.052.095-.05.096-.052.095-.05.096-.052.095-.05.096-.05.098-.05.096-.05.097-.05.098-.05.097-.047.097-.05.098-.048.097-.048.098-.048.098-.047.098-.048.1-.047.098-.047.098-.046.1-.046.098-.046.1-.045.098-.045.1-.045.1-.044.1-.044.1-.043.1-.044.1-.044.1-.043.1-.043.1-.042.102-.042.1-.042.102-.042.1-.04.102-.042.102-.04.102-.04.102-.04.102-.04.102-.04.102-.04.103-.038.102-.04.103-.037.103-.038.104-.037.103-.038.104-.037.104-.036.104-.038.104-.036.104-.036.104-.035.104-.035.105-.035.103-.035.105-.034.105-.034.105-.033.105-.034.105-.033.106-.033.105-.032.105-.032.105-.032.106-.03.107-.032.106-.03.105-.032.107-.03.106-.03.107-.03.107-.028.107-.03.106-.027.107-.03.107-.026.108-.03.108-.026.108-.027.107-.026.11-.026.108-.025.108-.027.108-.025.11-.025.108-.025.108-.024.11-.024.108-.024.11-.023.11-.023.108-.022.11-.023.11-.02.11-.023.11-.02.11-.022.11-.02.11-.02.11-.02.11-.02.11-.02.11-.02.112-.017.11-.018.11-.018.113-.018.112-.018.11-.017.113-.016.11-.017.113-.016.112-.016.11-.014.113-.015.112-.013.113-.014.112-.014.112-.014.113-.013.112-.013.113-.012.113-.012.113-.012.112-.012.114-.01.113-.01.113-.01.113-.01.115-.01.113-.01.114-.01.114-.007.114-.008.114-.008.114-.008.114-.008.114-.006.114-.007.115-.005.114-.005.114-.005.114-.005.115-.005.115-.004.115-.003.115-.003.115-.004.115-.002.115-.003.115-.002h.116L35.64.13h.462zm-.22 3.424h-.21l-.105.002-.104.002-.105.002-.104.002-.104.002-.105.003-.104.003-.103.004-.104.003-.104.004-.104.006-.104.005-.104.006-.103.005-.104.007-.102.006-.104.006-.103.006-.102.007-.103.008-.103.008-.103.008-.103.01-.103.007-.102.01-.103.008-.103.01-.103.01-.102.01-.102.012-.102.01-.102.012-.102.01-.102.013-.1.012-.103.012-.102.012-.102.013-.1.014-.102.014-.1.015-.102.013-.1.014-.102.015-.1.016-.1.015-.1.016-.102.015-.1.017-.1.016-.1.018-.1.017-.1.018-.1.018-.1.02-.1.017-.098.02-.1.02-.1.018-.098.02-.1.02-.098.02-.098.02-.1.022-.098.02-.098.023-.098.022-.1.022-.097.023-.098.023-.097.023-.098.024-.098.024-.097.024-.098.024-.098.024-.097.025-.097.026-.097.026-.096.026-.097.026-.096.026-.096.027-.096.028-.096.027-.097.027-.095.028-.096.028-.096.028-.096.03-.095.028-.096.03-.094.03-.095.028-.094.03-.095.03-.094.03-.094.032-.095.032-.094.03-.094.033-.095.03-.094.033-.093.033-.094.033-.093.032-.094.033-.093.034-.093.033-.094.034-.092.035-.093.035-.092.035-.092.035-.093.036-.092.035-.09.037-.093.036-.092.038-.092.037-.09.037-.093.038-.09.037-.092.04-.09.037-.092.038-.09.04-.09.04-.092.038-.09.04-.09.04-.09.04-.09.04-.09.04-.09.042-.09.042-.088.04-.09.043-.088.042-.09.04-.087.044-.088.043-.088.043-.09.043-.087.044-.088.044-.088.045-.088.044-.088.044-.087.045-.088.044-.087.045-.087.045-.087.046-.085.047-.087.047-.086.046-.086.047-.086.048-.086.047-.085.048-.087.048-.085.048-.085.048-.085.05-.085.048-.085.05-.084.05-.084.048-.084.05-.084.05-.084.05-.084.052-.083.05-.083.052-.083.05-.083.053-.082.052-.083.05-.082.053-.082.053-.082.053-.082.052-.08.053-.083.054-.08.053-.083.054-.08.054-.082.056-.08.054-.08.055-.082.056-.08.056-.08.056-.08.056-.08.056-.08.057-.08.057-.078.057-.08.057-.078.06-.08.056-.077.058-.078.058-.08.058-.077.06-.077.058-.077.058-.077.06-.078.06-.077.06-.076.058-.076.06-.077.06-.075.06-.076.062-.077.06-.076.063-.075.06-.076.062-.075.06-.074.064-.075.062-.073.062-.075.063-.074.063-.074.063-.074.063-.074.063-.073.064-.073.064-.073.065-.073.063-.073.065-.072.065-.072.065-.072.065-.072.066-.072.064-.07.067-.072.067-.072.066-.07.067-.07.066-.072.068-.07.067-.07.068-.07.068-.07.068-.07.068-.07.068-.068.07-.07.067-.067.07-.07.068-.068.07-.068.07-.068.07-.068.07-.067.07-.066.07-.067.07-.067.07-.067.07-.066.073-.066.07-.065.072-.066.072-.067.072-.065.072-.065.072-.065.073-.065.074-.064.072-.066.073-.064.073-.064.073-.063.074-.064.074-.064.074-.063.074-.063.074-.062.075-.062.076-.062.075-.062.076-.062.076-.06.075-.063.076-.06.076-.06.075-.062.076-.06.078-.06.076-.06.077-.06.078-.06.077-.058.078-.06.077-.058.078-.06.078-.058.078-.058.08-.058.077-.057.08-.06.08-.056.078-.057.08-.056.078-.056.08-.056.08-.056.08-.056.08-.055.08-.054.08-.055.08-.054.082-.055.08-.053.082-.054.08-.054.083-.055.082-.053.08-.053.083-.054.082-.053.083-.052.082-.05.083-.053.083-.052.084-.05.083-.052.083-.05.084-.052.084-.05.083-.05.086-.05.084-.05.084-.05.084-.048.085-.05.085-.048.085-.048.085-.048.085-.048.086-.048.084-.047.086-.048.086-.047.086-.046.086-.047.087-.046.086-.045.088-.045.087-.046.087-.045.087-.046.086-.045.088-.045.088-.044.087-.043.087-.044.088-.043.09-.043.087-.043.088-.043.09-.04.088-.043.09-.042.088-.04.09-.043.09-.04.088-.042.09-.04.09-.04.09-.04.09-.04.09-.04.09-.038.09-.04.092-.038.09-.038.092-.038.09-.038.092-.038.092-.037.09-.037.093-.037.092-.035.092-.036.09-.037.093-.036.093-.035.092-.035.093-.035.093-.035.093-.034.094-.034.093-.035.093-.033.093-.033.093-.034.094-.033.094-.032.094-.03.095-.033.093-.03.094-.033.095-.03.094-.03.095-.03.096-.03.095-.03.096-.03.095-.03.097-.03.095-.027.096-.03.096-.027.095-.028.095-.027.097-.027.096-.027.096-.026.096-.026.097-.026.097-.026.097-.025.098-.025.097-.024.097-.024.097-.024.096-.024.098-.024.098-.023.097-.022.097-.023.098-.023.098-.022.1-.022.097-.02.098-.023.1-.02.098-.022.098-.02.1-.02.098-.02.1-.02.098-.02.1-.017.1-.02.1-.017.098-.02.1-.017.1-.017.1-.018.1-.016.1-.017.1-.016.1-.017.1-.015.102-.016.1-.015.1-.014.102-.014.1-.015.102-.014.1-.012.102-.014.102-.012.1-.013.103-.013.102-.012.102-.01.102-.012.102-.01.102-.012.102-.01.102-.01.103-.008.102-.01.1-.01.104-.007.102-.01.103-.007.102-.007.103-.007.103-.007.103-.006.104-.007.104-.006.103-.006.104-.004.104-.005.104-.004.103-.004.104-.005.103-.003.104-.004.104-.003.105-.003.104-.002.104-.002.104-.002.104-.002.105v.105l-.002.104v.526l.002.105.002.104.002.104.002.104.002.104.003.105.003.104.004.105.003.104.005.103.004.103.005.104.006.104.005.103.007.104.006.104.007.104.006.103.007.104.008.103.008.103.008.103.01.102.007.103.01.103.01.103.008.103.01.102.01.102.012.102.01.102.012.102.01.102.013.102.012.1.012.103.012.1.014.103.013.1.015.102.014.1.013.102.014.1.015.102.016.1.015.1.016.1.015.102.017.1.016.1.018.1.017.1.018.1.02.1.017.1.02.1.017.098.02.1.02.1.02.098.02.1.02.098.02.1.02.097.023.1.02.097.023.098.022.1.023.097.023.098.023.097.024.098.024.098.024.097.024.098.025.097.025.097.026.097.026.097.026.098.026.097.026.096.027.098.028.096.027.097.027.097.028.096.028.096.03.094.027.096.03.095.028.096.03.096.03.095.03.096.03.095.03.096.03.094.033.095.03.094.033.093.03.094.033.094.033.095.033.094.032.093.033.093.034.093.033.093.034.093.035.092.035.093.035.094.035.093.036.092.036.09.035.093.036.092.038.092.037.092.037.09.038.092.038.09.038.092.038.09.04.092.038.09.04.09.038.092.04.09.04.09.04.09.04.09.04.09.042.09.042.09.04.088.043.09.042.088.04.09.044.088.043.088.043.09.043.087.044.088.044.088.045.088.044.088.044.088.045.087.044.087.046.087.045.087.046.087.047.087.047.087.046.086.047.086.048.086.047.086.048.085.048.086.048.084.048.085.05.084.048.085.05.084.05.084.05.084.048.085.05.083.05.084.052.084.05.084.052.083.05.083.053.083.052.084.05.083.053.082.053.08.053.084.052.082.053.08.054.083.053.08.054.082.054.08.056.082.055.08.056.08.055.082.056.08.056.08.056.08.056.08.057.08.057.08.057.078.057.08.06.078.056.08.058.077.058.078.058.078.06.078.058.077.06.08.058.076.06.078.06.077.06.078.06.076.06.077.06.077.06.076.06.076.063.075.06.075.062.076.062.075.062.076.062.075.062.076.063.074.063.074.063.074.063.074.063.074.064.073.064.073.065.073.063.072.065.073.065.074.065.072.065.072.066.072.065.072.066.07.067.073.066.07.067.072.067.07.067.07.067.07.068.07.068.07.068.07.068.07.068.07.07.07.067.068.07.068.068.07.07.067.07.068.07.068.07.068.07.067.07.068.07.068.07.066.07.067.073.065.07.067.072.066.072.065.072.066.072.064.072.065.073.064.074.065.073.063.073.065.073.064.073.064.074.063.074.063.074.063.074.063.075.062.074.062.076.062.075.063.076.06.076.062.075.062.076.06.076.062.075.06.076.06.078.06.076.06.077.06.078.06.078.06.077.06.078.06.078.057.078.06.08.057.077.058.078.058.08.057.08.058.078.058.08.057.08.057.078.056.08.056.08.056.08.056.08.055.08.057.08.055.082.054.08.055.082.055.082.054.08.053.083.054.08.053.083.053.083.053.083.053.082.05.083.053.083.052.084.052.083.05.084.052.084.05.084.05.084.05.084.052.084.05.084.05.084.05.085.048.085.05.085.048.085.048.085.048.086.048.084.048.086.047.086.048.086.047.086.046.087.047.086.046.088.047.087.046.087.045.087.045.086.045.088.045.088.044.087.044.087.045.088.044.09.042.087.043.09.043.087.043.088.043.09.042.088.042.09.042.09.04.088.04.09.042.09.04.09.04.09.04.09.04.09.04.092.04.09.037.09.038.092.038.09.038.092.038.092.038.09.037.093.037.092.037.092.037.09.037.093.035.093.035.092.035.093.035.094.035.092.035.094.034.093.033.093.034.094.033.093.033.094.033.094.033.095.03.094.033.093.032.094.03.095.033.094.03.095.03.096.032.095.03.096.03.095.03.097.028.095.03.096.028.096.028.096.028.095.028.097.027.096.027.096.027.097.028.097.026.097.026.097.026.098.025.097.027.097.025.097.024.097.024.097.024.098.024.098.023.097.025.098.022.098.023.1.022.097.022.098.022.1.02.098.022.098.02.1.02.098.02.1.02.098.02.1.02.1.02.1.017.098.02.1.017.1.017.1.017.1.017.1.016.1.017.1.016.1.016.102.014.1.016.1.015.102.014.1.014.102.014.1.013.102.015.102.013.1.012.103.013.102.012.102.012.102.01.102.012.102.01.102.01.102.01.103.01.102.01.102.01.102.01.103.007.102.01.102.007.103.007.103.01.103.006.104.007.104.006.103.005.105.006.103.006.104.005.104.006.103.005.103.005.104.003.104.004.105.003.105.003.104.002.104.002.105.002.104.002h.105l.104.002h.526l.105-.002.105-.002.104-.002.104-.002.105-.002.104-.003.104-.003.105-.004.104-.003.103-.004.104-.004.103-.005.104-.004.104-.005.103-.005.104-.006.104-.007.103-.007.104-.007.103-.01.103-.006.103-.008.103-.01.102-.007.103-.01.103-.01.103-.01.102-.01.102-.01.102-.01.102-.01.102-.012.102-.01.102-.013.1-.012.103-.013.1-.012.103-.013.1-.014.102-.012.1-.014.102-.015.1-.015.102-.015.1-.016.1-.015.1-.017.102-.016.1-.017.1-.016.1-.017.1-.018.1-.018.1-.018.1-.02.1-.017.098-.02.1-.02.1-.018.098-.02.1-.02.098-.02.1-.022.097-.02.1-.022.097-.022.098-.022.1-.022.097-.023.098-.022.098-.024.097-.022.098-.024.098-.024.097-.024.097-.024.097-.025.097-.026.098-.024.096-.026.097-.026.097-.026.096-.027.096-.026.097-.027.097-.027.096-.028.096-.028.094-.028.096-.03.095-.028.096-.03.096-.03.095-.028.096-.03.095-.03.096-.03.094-.032.095-.032.094-.03.094-.033.094-.032.093-.03.095-.034.094-.033.093-.033.093-.033.094-.034.093-.034.093-.035.093-.035.09-.035.094-.035.093-.035.092-.036.09-.036.093-.037.092-.036.092-.036.092-.037.09-.037.092-.038.09-.038.092-.038.09-.038.092-.04.09-.037.09-.04.092-.038.09-.04.09-.04.09-.04.09-.04.09-.04.09-.042.09-.04.088-.043.09-.042.088-.042.09-.042.088-.042.088-.043.09-.043.087-.043.088-.045.088-.044.088-.043.088-.044.088-.045.087-.045.087-.045.087-.045.087-.046.087-.046.087-.045.087-.047.086-.046.086-.047.086-.048.086-.047.085-.048.086-.048.084-.048.085-.048.084-.05.085-.048.084-.05.084-.05.084-.048.085-.05.084-.05.085-.05.083-.052.084-.05.083-.052.083-.05.083-.053.084-.052.083-.052.082-.05.082-.054.082-.053.082-.053.08-.053.083-.054.08-.054.082-.055.08-.054.082-.054.08-.054.08-.055.082-.056.08-.054.08-.056.08-.056.08-.056.08-.056.08-.057.078-.057.08-.057.078-.057.08-.057.077-.058.078-.058.078-.058.078-.06.078-.057.077-.06.077-.06.077-.058.077-.06.078-.06.076-.06.077-.06.077-.06.076-.06.076-.062.075-.06.076-.063.076-.062.075-.06.076-.064.075-.062.076-.062.074-.063.074-.064.074-.063.074-.064.074-.064.073-.064.073-.064.073-.065.073-.064.07-.066.074-.065.072-.066.072-.065.072-.067.072-.065.07-.066.073-.067.07-.066.072-.068.07-.066.07-.068.07-.067.07-.066.07-.068.07-.068.07-.068.07-.068.07-.07.068-.067.07-.07.067-.068.068-.07.068-.07.068-.07.068-.07.067-.07.07-.07.066-.07.066-.07.067-.07.065-.072.067-.072.066-.07.065-.073.066-.072.064-.072.065-.072.064-.073.065-.072.064-.072.064-.073.064-.074.064-.074.063-.074.063-.074.063-.074.063-.074.062-.074.062-.075.063-.074.062-.075.06-.074.062-.076.062-.075.06-.076.062-.077.06-.076.06-.076.062-.076.06-.076.06-.077.06-.076.058-.078.06-.077.058-.08.06-.076.058-.078.058-.078.058-.08.058-.077.057-.078.058-.08.058-.078.057-.08.057-.078.056-.08.056-.08.056-.08.056-.08.055-.08.057-.08.055-.08.054-.082.055-.08.055-.082.054-.08.053-.083.054-.083.053-.08.053-.083.053-.083.053-.08.05-.083.053-.083.052-.083.052-.082.05-.083.052-.083.05-.084.05-.084.052-.084.05-.083.05-.085.05-.084.05-.084.048-.085.05-.086.048-.085.048-.086.048-.085.048-.087.048-.085.048-.086.047-.086.047-.086.046-.086.047-.087.046-.086.047-.086.046-.087.045-.087.045-.087.045-.087.045-.088.044-.087.045-.087.043-.088.044-.088.042-.088.043-.09.043-.088.043-.09.043-.088.042-.09.042-.088.042-.09.04-.09.04-.088.042-.09.04-.09.04-.09.04-.09.04-.09.04-.09.04-.09.038-.092.038-.09.04-.092.037-.09.037-.092.038-.092.037-.09.037-.093.037-.092.037-.092.037-.092.036-.09.035-.093.035-.093.036-.093.034-.092.035-.092.034-.093.033-.094.034-.094.033-.093.034-.094.032-.095.033-.094.03-.093.033-.094.032-.094.03-.095.033-.095.03-.094.03-.095.03-.094.032-.095.03-.094.03-.095.028-.095.03-.095.028-.096.028-.095.028-.097.028-.096.027-.096.027-.096.027-.096.028-.097.026-.095.026-.097.026-.097.025-.096.027-.097.025-.097.024-.097.024-.098.024-.097.024-.098.023-.098.025-.097.022-.098.023-.098.022-.1.022-.098.022-.098.02-.1.022-.097.02-.1.02-.098.02-.1.02-.1.02-.098.02-.1.02-.1.017-.1.02-.098.017-.1.017-.1.017-.1.017-.1.017-.1.017-.1.016-.1.016-.1.015-.102.015-.1.015-.1.014-.102.014-.1.014-.102.013-.1.015-.102.013-.102.013-.1.013-.103.012-.1.012-.102.01-.102.013-.102.01-.102.01-.102.01-.102.01-.102.01-.103.01-.102.01-.102.007-.103.01-.102.007-.103.007-.103.01-.103.006-.103.007-.102.006-.104.005-.103.006-.103.006-.103.005-.104.006-.104.005-.103.005-.104.003-.105.004-.104.003-.103.003-.105.002-.104.003-.104v-.105l.003-.105V36.3l.002-.104v-.522l-.002-.105-.002-.105v-.104l-.004-.104-.002-.105-.003-.105-.003-.104-.004-.103-.003-.104-.004-.104-.004-.105-.005-.103-.004-.104-.005-.104-.005-.103-.006-.102-.007-.104-.007-.103-.007-.102-.01-.103-.006-.103-.008-.103-.01-.104-.007-.102-.01-.103-.01-.1-.01-.103-.01-.103-.01-.102-.01-.102-.01-.102-.012-.102-.01-.102-.013-.102-.012-.1-.012-.103-.012-.102-.013-.102-.014-.1-.012-.102-.014-.1-.015-.102-.015-.1-.015-.102-.015-.1-.016-.1-.017-.1-.016-.102-.016-.1-.016-.1-.017-.1-.018-.1-.018-.1-.018-.1-.02-.1-.017-.1-.02-.098-.018-.1-.02-.1-.02-.098-.02-.1-.02-.098-.022-.098-.02-.1-.022-.098-.022-.098-.022-.098-.022-.1-.023-.097-.022-.098-.024-.098-.022-.098-.024-.098-.024-.098-.024-.097-.024-.098-.025-.097-.026-.097-.024-.097-.026-.096-.026-.097-.026-.097-.027-.096-.026-.096-.027-.096-.027-.097-.028-.096-.028-.096-.028-.096-.03-.096-.028-.095-.03-.096-.03-.094-.028-.095-.03-.094-.03-.095-.03-.094-.032-.094-.032-.095-.03-.094-.033-.094-.032-.096-.03-.093-.034-.093-.032-.094-.034-.094-.033-.094-.034-.093-.034-.093-.035-.094-.035-.093-.034-.092-.036-.092-.035-.092-.035-.093-.036-.092-.037-.09-.036-.093-.036-.092-.037-.092-.037-.09-.038-.093-.037-.09-.038-.092-.04-.09-.037-.092-.04-.09-.038-.09-.04-.092-.04-.09-.04-.09-.04-.09-.04-.09-.04-.09-.042-.09-.04-.09-.043-.088-.042-.09-.042-.088-.042-.09-.042-.088-.043-.088-.043-.088-.043-.09-.045-.087-.043-.088-.045-.088-.044-.088-.045-.088-.045-.087-.045-.088-.045-.087-.046-.087-.046-.087-.045-.085-.047-.087-.046-.086-.047-.086-.047-.086-.048-.086-.048-.085-.048-.087-.048-.085-.048-.085-.05-.085-.048-.085-.05-.085-.05-.084-.048-.084-.05-.084-.05-.085-.05-.082-.052-.084-.05-.084-.052-.083-.05-.083-.053-.083-.052-.082-.052-.083-.05-.082-.054-.083-.053-.082-.053-.082-.053-.08-.054-.083-.054-.082-.055-.08-.054-.08-.054-.082-.054-.08-.055-.08-.056-.082-.054-.08-.056-.08-.056-.08-.056-.08-.056-.08-.057-.08-.057-.078-.057-.08-.057-.078-.057-.08-.058-.077-.058-.08-.058-.077-.06-.078-.058-.078-.058-.077-.06-.078-.06-.077-.06-.077-.058-.076-.06-.076-.06-.077-.06-.075-.062-.076-.06-.077-.062-.076-.062-.075-.062-.076-.06-.075-.063-.074-.063-.075-.062-.074-.063-.074-.064-.074-.063-.074-.064-.074-.064-.074-.064-.073-.064-.074-.064-.074-.065-.072-.066-.073-.065-.072-.066-.072-.065-.072-.067-.072-.065-.072-.066-.07-.067-.072-.066-.072-.068-.07-.066-.07-.067-.072-.07-.07-.066-.07-.068-.07-.068-.07-.068-.07-.068-.07-.068-.068-.07-.07-.068-.067-.07-.07-.07-.068-.068-.068-.07-.068-.07-.068-.07-.067-.07-.066-.07-.068-.07-.066-.072-.067-.07-.066-.073-.066-.07-.066-.073-.065-.072-.067-.072-.065-.072-.065-.073-.065-.07-.065-.074-.064-.073-.066-.074-.064-.074-.064-.074-.063-.074-.064-.074-.064-.074-.063-.074-.063-.075-.062-.074-.062-.075-.063-.074-.06-.075-.063-.075-.06-.076-.063-.077-.06-.076-.062-.076-.06-.076-.06-.076-.06-.077-.06-.076-.06-.077-.06-.078-.06-.078-.057-.078-.06-.078-.058-.078-.058-.08-.058-.077-.058-.078-.057-.08-.06-.078-.056-.08-.057-.078-.056-.08-.056-.08-.056-.08-.056-.08-.056-.08-.055-.08-.055-.08-.055-.082-.054-.08-.055-.082-.053-.08-.054-.083-.054-.083-.055-.08-.053-.083-.053-.082-.054-.083-.053-.083-.052-.083-.05-.083-.053-.082-.052-.083-.05-.083-.052-.084-.05-.083-.052-.084-.05-.083-.05-.085-.05-.084-.05-.084-.05-.085-.048-.086-.05-.085-.048-.086-.048-.085-.048-.087-.048-.085-.048-.086-.047-.086-.048-.086-.047-.086-.046-.087-.047-.086-.046-.086-.045-.087-.046-.087-.046-.087-.045-.087-.046-.088-.045-.087-.045-.087-.044-.088-.043-.088-.044-.088-.043-.09-.043-.088-.043-.09-.043-.088-.04-.09-.043-.088-.042-.09-.04-.09-.043-.088-.04-.09-.042-.09-.04-.09-.04-.09-.04-.09-.04-.09-.04-.09-.04-.092-.038-.09-.038-.092-.038-.09-.04-.092-.036-.092-.038-.09-.037-.093-.037-.092-.037-.092-.035-.092-.037-.09-.035-.093-.036-.093-.035-.093-.035-.09-.035-.094-.035-.093-.034-.093-.034-.094-.035-.093-.033-.094-.033-.095-.034-.094-.033-.092-.032-.094-.03-.095-.033-.095-.03-.095-.033-.094-.03-.095-.03-.094-.03-.095-.032-.094-.03-.095-.03-.095-.028-.095-.03-.096-.028-.095-.028-.097-.028-.096-.028-.096-.027-.096-.027-.096-.027-.096-.026-.097-.026-.097-.026-.096-.026-.098-.025-.097-.025-.097-.025-.097-.024-.097-.024-.098-.024-.098-.024-.097-.023-.098-.022-.098-.023-.098-.023-.1-.022-.098-.022-.098-.022-.1-.02-.097-.022-.1-.02-.098-.02-.1-.02-.1-.02-.098-.02-.1-.02-.1-.02-.1-.017-.098-.02-.1-.016-.1-.017-.1-.017-.1-.018-.1-.016-.1-.017-.1-.016-.1-.017-.102-.015-.1-.016-.1-.015-.102-.014-.1-.014-.102-.016-.1-.013-.102-.013-.102-.013-.1-.012-.103-.013-.1-.013-.102-.012-.102-.01-.102-.013-.102-.01-.102-.01-.102-.01-.102-.01-.103-.01-.102-.01-.102-.01-.102-.007-.103-.01-.103-.007-.103-.007-.103-.007-.103-.007-.102-.007-.104-.007-.103-.006-.102-.006-.104-.004-.104-.005-.103-.004-.104-.005-.104-.003-.105-.003-.104-.004-.103-.003-.104-.003-.105-.002-.104-.002-.104-.002-.105-.002H36.3l-.104-.002h-.314z" fill="#333"/><path d="M8.443 46.618c-1.255-3.264-1.94-6.81-1.94-10.515C6.503 19.823 19.72 6.608 36 6.608c16.278 0 29.494 13.216 29.494 29.495 0 3.407-.58 6.68-1.65 9.724l-9.337-13.315-3.955 5.64-10.636-18.905-13.748 24.44-7.834-11.175-9.89 14.106z" fill="#333"/></g></svg>