<svg width="60" height="60" viewBox="0 0 60 60" fill="none" xmlns="http://www.w3.org/2000/svg">
<path fill-rule="evenodd" clip-rule="evenodd" d="M30.0035 0.149048C13.5282 0.149048 0.152344 13.5249 0.152344 30.0003C0.152344 46.4756 13.5282 59.8515 30.0035 59.8515C46.4789 59.8515 59.8548 46.4756 59.8548 30.0003C59.8548 13.5249 46.4789 0.149048 30.0035 0.149048ZM30.0035 3.0003C44.9053 3.0003 57.0036 15.0985 57.0036 30.0003C57.0036 44.902 44.9053 57.0003 30.0035 57.0003C15.1018 57.0003 3.00347 44.902 3.00347 30.0003C3.00347 15.0985 15.1018 3.0003 30.0035 3.0003Z" fill="#FFFDF5"/>
<path fill-rule="evenodd" clip-rule="evenodd" d="M7.07589 38.8517C6.03073 36.1343 5.46094 33.1823 5.46094 30.0984C5.46094 16.5461 16.4637 5.54333 30.016 5.54333C43.5683 5.54333 54.5709 16.5461 54.5709 30.0984C54.5709 32.9347 54.0891 35.6594 53.1966 38.1931L45.4245 27.1084L42.1315 31.8049L33.2773 16.0652L21.8323 36.4106L15.3099 27.1084L7.07589 38.8517Z" fill="#FFFDF5"/>
</svg>
