<svg width="100" height="55" viewBox="0 0 100 55" xmlns="http://www.w3.org/2000/svg" xmlns:xlink="http://www.w3.org/1999/xlink"><title>DSO logo</title><defs><path id="a" d="M.028.236v28.736h78.857V.236H.028z"/></defs><g fill="none" fill-rule="evenodd"><path d="M22.077 27.94v-4.067c0-3.537-1.478-7.18-3.432-7.18-1.848 0-2.957 1.266-2.904 9.345 0 7.71.74 10.19 2.8 10.19 2.323 0 3.537-3.8 3.537-8.29m-11.934-1.9c0-7.287 3.644-11.406 6.97-11.406 2.323 0 4.014 1.69 4.91 3.802V4.6c0-1.848-.368-2.324-2.587-2.324h-.37V.956L26.99.43v34.375c0 1.268.37 1.426 2.535 1.533v1.32l-7.5.263V33.8c-.632 1.954-2.216 4.49-5.068 4.49-3.644 0-6.812-4.7-6.812-12.252M35.436 34.962c-1.108 0-2.165 2.007-2.535 2.8h-1.213V25.88H32.9c2.536 5.703 6.232 10.825 9.665 10.825 2.693 0 4.12-2.324 4.014-5.228-.108-3.855-3.434-6.442-6.92-9.135-3.854-3.01-7.867-6.336-7.867-12.198 0-5.333 3.59-9.452 8.87-9.452 3.592 0 5.44 2.693 6.55 2.693.633 0 1.32-.633 2.058-2.218h1.058V11.94H49.06c-1.743-4.647-4.49-9.505-8.08-9.505-2.48 0-3.96 2.112-3.854 4.7.106 3.854 3.38 6.494 6.81 9.134 3.857 3.062 7.975 6.283 7.975 12.038 0 6.495-4.434 10.086-8.923 10.086-4.172 0-6.494-3.432-7.55-3.432" fill="#A02C33"/><path d="M59.82 36.298h1.16c1.798 0 3.952-1.158 3.952-6.933s-2.403-6.455-3.675-6.455H59.82v13.388zm-4.1-14.937h6.603c2.91 0 5.565 1.66 5.565 8.07 0 6.408-2.8 8.472-6.117 8.472h-6.114v-1.51h1.44V22.91h-1.377v-1.55z" fill="#333"/><g transform="translate(0 25.7)"><mask id="b" fill="#fff"><use xlink:href="#a"/></mask><path d="M71.73 5.017h4.337c0-2.35-.857-3.26-2.21-3.26-1.355 0-2.128 1.27-2.128 3.26zm2.126 5.803c.774 0 2.156-.636 2.156-2.57h2.68c-.387 1.96-1.714 4.062-5.028 4.062-3.316 0-4.808-2.847-4.808-6.022 0-3.178 1.6-6.054 5.027-6.054 3.426 0 5.002 2.46 5.002 6.494H71.7c-.302 3.648 1.383 4.09 2.156 4.09zM9.836 17.15v-4.982H8.26v1.448h-.137c-1.216-1.28-2.735-1.613-3.48-1.613-.748 0-4.643.718-4.643 4.614s3.675 4.585 4.2 4.807c.525.222 3.232.884 3.232 3.04 0 2.154-2.044 2.515-2.54 2.515-.5 0-3.07-.418-3.29-3.79H.03v5.418H1.63v-1.51c1.134 1.123 2.348 1.73 3.812 1.73 1.908 0 4.753-1.52 4.753-4.946 0-3.314-3.205-4.42-3.95-4.723-.747-.305-3.62-1.19-3.62-3.04 0-1.852 1.933-2.156 2.266-2.156.332 0 3.15.147 3.37 3.186h1.576M15.472 13.908h-1.408c0 2.322-1.163 3.242-1.963 3.242h-.883v1.593h1.52v7.35c0 1.742 1.85 2.957 3.343 2.875 1.492-.083 1.878-.36 1.878-.36l.056-1.88c-1.16.37-2.542.388-2.542-1.49V18.77h2.624v-1.62h-2.624v-3.242" fill="#333" mask="url(#b)"/></g><path d="M25.224 48.536c-1.574 0-3.26.794-3.26 2.457 0 1.493 1.023 1.63 1.66 1.63.634 0 1.573-.385 1.573-1.575 0-1.187.027-2.512.027-2.512zm-5.746-2.24c0-2.128.663-3.896 4.06-3.896 3.4 0 4.533 1.55 4.533 2.93v7.47h1.52v1.51h-4.255l-.138-1.05c-1.104.8-1.768 1.27-2.818 1.27s-3.4-.858-3.4-3.426 2.654-3.206 4.338-3.62c1.686-.413 2.045-.912 2.045-1.99 0-1.077-.995-1.545-1.88-1.545-.883 0-1.38.854-1.38 1.488 0 .637-.03.858-.03.858H19.48zM62.717 48.536c-1.573 0-3.26.794-3.26 2.457 0 1.493 1.022 1.63 1.66 1.63.633 0 1.572-.385 1.572-1.575 0-1.187.027-2.512.027-2.512zm-5.746-2.24c0-2.128.664-3.896 4.06-3.896 3.4 0 4.534 1.55 4.534 2.93v7.47h1.518v1.51H62.83l-.14-1.05c-1.105.8-1.77 1.27-2.818 1.27-1.05 0-3.4-.858-3.4-3.426s2.653-3.206 4.34-3.62c1.685-.413 2.044-.912 2.044-1.99 0-1.077-.996-1.545-1.88-1.545-.883 0-1.38.854-1.38 1.488 0 .637-.03.858-.03.858h-2.595zM74.212 48.536c-1.574 0-3.26.794-3.26 2.457 0 1.493 1.024 1.63 1.658 1.63.636 0 1.576-.385 1.576-1.575 0-1.187.026-2.512.026-2.512zm-5.748-2.24c0-2.128.665-3.896 4.064-3.896 3.398 0 4.532 1.55 4.532 2.93v7.47h1.517v1.51h-4.255l-.136-1.05c-1.107.8-1.77 1.27-2.818 1.27-1.05 0-3.402-.858-3.402-3.426s2.655-3.206 4.34-3.62c1.686-.413 2.044-.912 2.044-1.99 0-1.077-.993-1.545-1.877-1.545-.885 0-1.382.854-1.382 1.488 0 .637-.026.858-.026.858h-2.6zM30.53 42.85h4.31l-.028 1.235h.082c1.022-1.078 2.238-1.628 3.566-1.628 1.325 0 3.12.937 3.12 2.54V52.8h1.52v1.51h-5.884V52.8h1.49v-7.278c0-.718-.965-1.216-1.74-1.216-.773 0-2.044.637-2.044 1.908V52.8h1.437v1.51h-5.83V52.8h1.52v-8.328h-1.52v-1.62M88.404 42.63c-1.253-.44-2.873-.22-4.125 1.033l-.15-.074-.075-.74H79.82v1.29h1.513v8.66H79.82v1.51h5.895V52.8h-1.51v-6.523c0-1.693 1.732-1.914 2.137-1.914s1.55.287 2.065.876l-.003-2.61M48.764 52.665c-.718 0-2.14-.346-2.14-4.12 0-3.78 1.386-4.225 2.14-4.225.922 0 2.376.19 2.376 4.224s-1.474 4.12-2.376 4.12zm5.085.135V37.908h-4.22l-.01 1.548h1.52v4.437c-.497-.747-1.603-1.41-2.762-1.41-1.16 0-4.585.967-4.585 5.942 0 4.97 2.818 6.104 4.612 6.104 1.797 0 2.598-1.216 2.598-1.216h.137v.995h4.228V52.8h-1.52zM93.25 52.665c-.72 0-2.143-.346-2.143-4.12 0-3.78 1.387-4.225 2.142-4.225.92 0 2.375.19 2.375 4.224s-1.475 4.12-2.376 4.12zm5.08.135V37.908h-4.216l-.008 1.548h1.52v4.437c-.498-.747-1.605-1.41-2.764-1.41-1.16 0-4.587.967-4.587 5.942 0 4.97 2.818 6.104 4.614 6.104 1.797 0 2.597-1.216 2.597-1.216h.138v.995h4.228V52.8H98.33z" fill="#333"/></g></svg>