<?xml version="1.0" encoding="UTF-8" standalone="no"?>
<svg width="120px" height="60px" viewBox="0 0 120 60" version="1.1" xmlns="http://www.w3.org/2000/svg" xmlns:xlink="http://www.w3.org/1999/xlink">
    <!-- Generator: Sketch 3.6.1 (26313) - http://www.bohemiancoding.com/sketch -->
    <title>MH logo</title>
    <desc>Created with Sketch.</desc>
    <defs>
        <path id="path-1" d="M29.3225701,33.8562896 L0,33.8562896 L0,16.9405249 L0,0.024760181 L29.3225701,0.024760181 L29.3225701,33.8562896 L29.3225701,33.8562896 Z"></path>
    </defs>
    <g id="Page-1" stroke="none" stroke-width="1" fill="none" fill-rule="evenodd">
        <g id="Desktop" transform="translate(-540.000000, -584.000000)">
            <g id="Clients" transform="translate(172.000000, 426.000000)">
                <g id="List-(seperated)" transform="translate(1.000000, 136.000000)">
                    <g id="MH" transform="translate(346.000000, 0.000000)">
                        <g id="MH-logo" transform="translate(21.000000, 22.000000)">
                            <g id="Group-2" transform="translate(45.000000, 0.000000)">
                                <path d="M29.3225701,25.4174118 L14.6593303,16.9524706 L0,25.4174118 L0,8.4879638 L14.6593303,16.9524706 L29.3225701,8.4879638 L29.3225701,25.4174118" id="Fill-1" fill="#CBCDC9"></path>
                                <path d="M14.6593303,16.9524706 L0,8.4879638 L14.6593303,0.024760181 L14.6593303,16.9524706" id="Fill-2" fill="#EB8B2D"></path>
                                <g id="Group-6">
                                    <mask id="mask-2" fill="white">
                                        <use xlink:href="#path-1"></use>
                                    </mask>
                                    <g id="Clip-4"></g>
                                    <path d="M14.6593303,16.9524706 L14.6593303,0.024760181 L29.3225701,8.4879638 L14.6593303,16.9524706" id="Fill-3" fill="#C9452F" mask="url(#mask-2)"></path>
                                    <path d="M14.6593303,33.8823529 L0,25.4195837 L14.6593303,16.9524706 L29.3225701,25.4195837 L14.6593303,33.8823529" id="Fill-5" fill="#979D9C" mask="url(#mask-2)"></path>
                                </g>
                            </g>
                            <g id="Group-3" transform="translate(0.000000, 44.000000)" fill="#C9452F">
                                <path d="M7.71198948,11.2431364 L7.77066842,11.2431364 L11.4583556,0.663513638 L15.2149431,0.663513638 L15.2149431,15.0190312 L12.3358896,15.0190312 L12.3358896,5.21889188 L12.2764535,5.20942754 L8.72732435,15.0190312 L6.77539796,15.0190312 L3.22589024,5.18936313 L3.16683273,5.19958462 L3.16683273,15.0190312 L0.288157739,15.0190312 L0.288157739,0.663513638 L4.06329543,0.663513638 L7.71198948,11.2431364" id="Fill-7"></path>
                                <path d="M28.0792586,8.7093421 L22.7553756,8.7093421 L22.7553756,12.8108104 L29.0855077,12.8108104 L29.0855077,15.0190312 L19.8767006,15.0190312 L19.8767006,0.663513638 L29.0654433,0.663513638 L29.0654433,2.88195596 L22.7553756,2.88195596 L22.7553756,6.49089977 L28.0792586,6.49089977 L28.0792586,8.7093421" id="Fill-8"></path>
                                <path d="M36.0043221,2.88195596 L36.0043221,12.8108104 L38.1337995,12.8108104 C39.0806126,12.8108104 39.8430601,12.4572225 40.4211423,11.7508038 C40.999603,11.0440066 41.2888334,10.1388367 41.2888334,9.03453697 L41.2888334,6.63892212 C41.2888334,5.54105817 40.999603,4.64080973 40.4211423,3.93741965 C39.8430601,3.23402958 39.0806126,2.88195596 38.1337995,2.88195596 L36.0043221,2.88195596 L36.0043221,2.88195596 Z M33.1252685,15.0190312 L33.1252685,0.663513638 L38.1337995,0.663513638 C39.8888676,0.663513638 41.3346408,1.2241814 42.472255,2.34475978 C43.6091121,3.46533815 44.1777299,4.90353993 44.1777299,6.65822938 L44.1777299,9.03453697 C44.1777299,10.7964193 43.6091121,12.233864 42.472255,13.3480066 C41.3346408,14.4621492 39.8888676,15.0190312 38.1337995,15.0190312 L33.1252685,15.0190312 L33.1252685,15.0190312 Z" id="Fill-9"></path>
                                <path d="M48.2973697,15.0190312 L51.1768018,15.0190312 L51.1768018,0.663513638 L48.2973697,0.663513638 L48.2973697,15.0190312 Z" id="Fill-10"></path>
                                <path d="M59.7620979,9.66524088 L63.0064752,9.66524088 L61.4183582,4.60749523 L61.3596793,4.60749523 L59.7620979,9.66524088 L59.7620979,9.66524088 Z M63.705701,11.9234335 L59.0518935,11.9234335 L58.0861518,15.0190312 L55.0791403,15.0190312 L59.9195846,0.663513638 L62.8682958,0.663513638 L67.6894328,15.0190312 L64.6824213,15.0190312 L63.705701,11.9234335 L63.705701,11.9234335 Z" id="Fill-11"></path>
                                <path d="M81.7171055,15.0190312 L80.5340624,15.0190312 L80.5340624,8.4132974 L72.3803405,8.4132974 L72.3803405,15.0190312 L71.1972974,15.0190312 L71.1972974,0.663513638 L72.3803405,0.663513638 L72.3803405,7.40780546 L80.5340624,7.40780546 L80.5340624,0.663513638 L81.7171055,0.663513638 L81.7171055,15.0190312" id="Fill-12"></path>
                                <path d="M97.4907604,0.663513638 L97.4907604,10.1978942 C97.4907604,11.7754111 97.0077003,13.0080473 96.0408229,13.8954243 C95.0747026,14.7824226 93.8322235,15.2264896 92.3141426,15.2264896 C90.8157476,15.2264896 89.59144,14.7812869 88.6415984,13.8901242 C87.6917568,12.9997187 87.2170253,11.7689754 87.2170253,10.1978942 L87.2170253,0.663513638 L88.4000684,0.663513638 L88.4000684,10.1978942 C88.4000684,11.4339376 88.7669063,12.4148222 89.4994466,13.1413053 C90.2319869,13.8674098 91.1708498,14.230462 92.3141426,14.230462 C93.4843142,14.230462 94.4439987,13.8693027 95.1935748,13.1458482 C95.9423937,12.4227723 96.3171817,11.4403733 96.3171817,10.1978942 L96.3171817,0.663513638 L97.4907604,0.663513638" id="Fill-13"></path>
                                <path d="M103.275368,15.0190312 L104.458789,15.0190312 L104.458789,0.663513638 L103.275368,0.663513638 L103.275368,15.0190312 Z" id="Fill-14"></path>
                                <path d="M118.546277,11.5293382 C118.546277,10.7930122 118.253639,10.1850227 117.668364,9.70499113 C117.083468,9.22533815 116.091604,8.77483536 114.69126,8.35423989 C113.159172,7.934023 111.9943,7.40931975 111.195888,6.78164443 C110.397098,6.15434768 109.997702,5.30104239 109.997702,4.22286428 C109.997702,3.12575748 110.444798,2.22361617 111.338611,1.51681893 C112.232802,0.810400263 113.373066,0.456812356 114.76016,0.456812356 C116.219184,0.456812356 117.392384,0.855829116 118.279761,1.65461978 C119.166759,2.45378902 119.597955,3.46723102 119.571833,4.6960815 L119.55139,4.75551758 L118.447469,4.75551758 C118.447469,3.80908314 118.103724,3.02354256 117.41737,2.39889583 C116.730258,1.77500624 115.844396,1.46268288 114.76016,1.46268288 C113.642611,1.46268288 112.766969,1.72768452 112.13248,2.25617351 C111.49799,2.78541965 111.180745,3.4342951 111.180745,4.20317844 C111.180745,4.93269011 111.468461,5.53310812 112.043894,6.0025396 C112.618947,6.47272823 113.632389,6.91187381 115.085734,7.31921919 C116.597379,7.75950049 117.750515,8.30161814 118.546277,8.94557213 C119.340903,9.5899047 119.739541,10.4443457 119.739541,11.5096523 C119.739541,12.6268235 119.273895,13.5259362 118.344118,14.2054762 C117.413963,14.8865304 116.241898,15.2264896 114.829439,15.2264896 C113.416223,15.2264896 112.183587,14.866466 111.131909,14.1464187 C110.079853,13.4267499 109.570671,12.3773434 109.603228,10.9966849 L109.623671,10.9372488 L110.71775,10.9372488 C110.71775,12.0487414 111.134938,12.8744108 111.969693,13.416907 C112.804827,13.9594032 113.757697,14.230462 114.829439,14.230462 C115.926546,14.230462 116.821116,13.9790891 117.510499,13.4763431 C118.201017,12.9735971 118.546277,12.3243431 118.546277,11.5293382" id="Fill-15"></path>
                            </g>
                        </g>
                    </g>
                </g>
            </g>
        </g>
    </g>
</svg>