<svg width="120" height="60" viewBox="0 0 120 60" xmlns="http://www.w3.org/2000/svg" xmlns:xlink="http://www.w3.org/1999/xlink"><title>MH logo</title><defs><path id="a" d="M29.323 33.856H0V.026h29.323v33.83z"/></defs><g fill="none" fill-rule="evenodd"><path d="M74.323 25.417L59.66 16.952 45 25.417V8.487l14.66 8.465 14.663-8.464v16.93" fill="#CBCDC9"/><path d="M59.66 16.952L45 8.488 59.66.025v16.927" fill="#EB8B2D"/><g transform="translate(45)"><mask id="b" fill="#fff"><use xlink:href="#a"/></mask><path d="M14.66 16.952V.025l14.663 8.463-14.664 8.464" fill="#C9452F" mask="url(#b)"/><path d="M14.66 33.882L0 25.42l14.66-8.468 14.663 8.468-14.664 8.462" fill="#979D9C" mask="url(#b)"/></g><g fill="#C9452F"><path d="M7.712 55.243h.06l3.686-10.58h3.757V59.02h-2.88v-9.8l-.06-.01-3.548 9.81H6.775l-3.55-9.83-.058.01v9.82H.287V44.663h3.776l3.65 10.58M28.08 52.71h-5.325v4.1h6.33v2.21h-9.208V44.663h9.188v2.218h-6.31v3.61h5.324v2.217M36.004 46.882v9.93h2.13c.947 0 1.71-.355 2.287-1.06.58-.708.87-1.613.87-2.717V50.64c0-1.1-.29-2-.87-2.703-.577-.703-1.34-1.055-2.286-1.055h-2.13zm-2.88 12.137V44.663h5.01c1.755 0 3.2.56 4.338 1.68 1.137 1.12 1.706 2.56 1.706 4.314v2.377c0 1.76-.57 3.2-1.706 4.313-1.137 1.114-2.583 1.67-4.338 1.67h-5.01zM48.297 59.02h2.88V44.663h-2.88V59.02zM59.762 53.665h3.244l-1.588-5.058h-.058l-1.598 5.058zm3.944 2.258h-4.654l-.966 3.096H55.08l4.84-14.356h2.948l4.82 14.355h-3.006l-.976-3.097zM81.717 59.02h-1.183v-6.607H72.38v6.606h-1.183V44.663h1.183v6.744h8.154v-6.744h1.183V59.02M97.49 44.664v9.534c0 1.577-.482 2.81-1.45 3.697-.965.887-2.208 1.33-3.726 1.33-1.498 0-2.723-.444-3.672-1.335-.95-.89-1.425-2.12-1.425-3.692v-9.534H88.4v9.534c0 1.236.367 2.217 1.1 2.943.732.727 1.67 1.09 2.814 1.09 1.17 0 2.13-.36 2.88-1.084.748-.723 1.123-1.706 1.123-2.948v-9.534h1.174M103.275 59.02h1.184V44.663h-1.185V59.02zM118.546 55.53c0-.737-.292-1.345-.878-1.825-.585-.48-1.576-.93-2.977-1.35-1.53-.42-2.696-.946-3.494-1.573-.8-.628-1.198-1.48-1.198-2.56 0-1.096.447-1.998 1.34-2.705.895-.707 2.035-1.06 3.422-1.06 1.46 0 2.632.4 3.52 1.198.887.8 1.318 1.812 1.292 3.04l-.02.06h-1.105c0-.946-.343-1.73-1.03-2.356-.687-.625-1.573-.937-2.657-.937-1.117 0-1.993.265-2.628.793-.634.53-.95 1.178-.95 1.947 0 .73.286 1.33.862 1.8.575.47 1.588.91 3.042 1.316 1.51.44 2.665.982 3.46 1.626.795.644 1.194 1.498 1.194 2.564 0 1.117-.466 2.016-1.396 2.695-.93.682-2.102 1.02-3.515 1.02-1.414 0-2.646-.36-3.698-1.08-1.052-.718-1.56-1.768-1.53-3.148l.022-.06h1.094c0 1.112.417 1.937 1.252 2.48.835.542 1.788.813 2.86.813 1.097 0 1.99-.25 2.68-.754.69-.502 1.036-1.152 1.036-1.947"/></g></g></svg>