<svg width="120" height="35" viewBox="0 0 120 35" xmlns="http://www.w3.org/2000/svg" xmlns:xlink="http://www.w3.org/1999/xlink"><title>NRC logo</title><defs><path id="a" d="M19.27 32.936V.02H.257v32.916h19.01z"/></defs><g fill="none" fill-rule="evenodd"><path d="M21.64 1.348v4.17l3.292.64v14.715h-.237L13.463 1.348H0v4.17l3.242.59v23.385L0 30.083v4.11h13.033V30.02l-3.316-.544V11.23h.238L22.942 34.19h8.444V6.11l2.78-.593v-4.17H21.642zM36.015 30.06l3.29-.568V6.157l-3.14-.64v-4.17h16.553c8.817 0 12.536 3.626 12.536 9.573 0 4.48-2.56 6.54-5.782 7.797v.19l6.114 10.403 2.56.71v4.172h-9.503L51.297 20.85h-3.13v8.65l2.96.497v4.195H36.016v-4.13zm15.85-13.784c3.342 0 4.503-2.11 4.503-5.26 0-3.223-1.446-4.598-4.787-4.598h-3.413v9.858h3.7zM67.86 18.055C67.86 5.187 76.345.78 84.97.78c4.218 0 7.584.663 9.5 1.42l.268 8.92H89.88l-1.47-4.06c-.915-.45-2.018-.83-3.724-.83-5.38 0-7.442 4.208-7.442 10.877 0 8.922 2.204 11.844 7.75 11.844 1.753 0 2.92-.436 3.79-.943l1.47-3.712h4.86l-.4 8.642c-2.23 1.042-5.383 1.824-10.572 1.824-8.7 0-16.282-4.74-16.282-16.705" fill="#333"/><g transform="translate(100.52 1.255)"><mask id="b" fill="#fff"><use xlink:href="#a"/></mask><path d="M8.962 16.49L.258.02h6.72L19.27 16.478 6.98 32.936H.257L8.962 16.49z" fill="#BD252B" mask="url(#b)"/></g></g></svg>