<?xml version="1.0" encoding="UTF-8" standalone="no"?>
<svg width="120px" height="35px" viewBox="0 0 120 35" version="1.1" xmlns="http://www.w3.org/2000/svg" xmlns:xlink="http://www.w3.org/1999/xlink">
    <!-- Generator: Sketch 3.6.1 (26313) - http://www.bohemiancoding.com/sketch -->
    <title>NRC logo</title>
    <desc>Created with Sketch.</desc>
    <defs>
        <path id="path-1" d="M19.2693506,32.9362597 L19.2693506,0.0204155844 L0.257844156,0.0204155844 L0.257844156,32.9362597 L19.2693506,32.9362597 L19.2693506,32.9362597 Z"></path>
    </defs>
    <g id="Page-1" stroke="none" stroke-width="1" fill="none" fill-rule="evenodd">
        <g id="Desktop" transform="translate(-194.000000, -599.000000)">
            <g id="Clients" transform="translate(172.000000, 426.000000)">
                <g id="List-(seperated)" transform="translate(1.000000, 136.000000)">
                    <g id="NRC">
                        <g id="NRC-logo" transform="translate(21.000000, 37.000000)">
                            <path d="M21.6413766,1.34758442 L21.6413766,5.51719481 L24.932026,6.15693506 L24.932026,20.8732987 L24.6951429,20.8732987 L13.4626753,1.34758442 L7.79220779e-05,1.34758442 L7.79220779e-05,5.51719481 L3.24163636,6.1094026 L3.24163636,29.493039 L7.79220779e-05,30.0844675 L7.79220779e-05,34.1917403 L13.0325455,34.1917403 L13.0325455,30.0205714 L9.71696104,29.4758961 L9.71696104,11.2288831 L9.95462338,11.2288831 L22.9418961,34.1917403 L31.3855325,34.1917403 L31.3855325,6.1094026 L34.1673506,5.51719481 L34.1673506,1.34758442 L21.6413766,1.34758442 Z" id="Fill-1" fill="#333333"></path>
                            <g id="Group-9" transform="translate(35.844156, 0.475948)">
                                <path d="M0.170415584,29.5852987 L3.45950649,29.0164675 L3.45950649,5.68114286 L0.320805195,5.04218182 L0.320805195,0.871012987 L16.8737922,0.871012987 C25.6906753,0.871012987 29.4098961,4.49672727 29.4098961,10.4445195 C29.4098961,14.9234805 26.8501558,16.9852987 23.6280779,18.2414026 L23.6280779,18.4307532 L29.7418442,28.8341299 L32.3015844,29.5447792 L32.3015844,33.7159481 L22.798987,33.7159481 L15.4524935,20.3741299 L12.3231429,20.3741299 L12.3231429,29.0242597 L15.2841818,29.5214026 L15.2841818,33.7159481 L0.170415584,33.7159481 L0.170415584,29.5852987 Z M16.0221039,15.8001039 C19.3626234,15.8001039 20.5236623,13.6915325 20.5236623,10.5395844 C20.5236623,7.31672727 19.0782078,5.94218182 15.7369091,5.94218182 L12.3231429,5.94218182 L12.3231429,15.8001039 L16.0221039,15.8001039 Z" id="Fill-2" fill="#333333"></path>
                                <path d="M32.0157662,17.5789091 C32.0157662,4.71085714 40.5007013,0.303584416 49.1251169,0.303584416 C53.3438182,0.303584416 56.7100519,0.966701299 58.6261558,1.72488312 L58.8942078,10.6454026 L54.0357662,10.6454026 L52.5645974,6.58332468 C51.6505714,6.13293506 50.547974,5.75423377 48.8422597,5.75423377 C43.4617403,5.75423377 41.3999221,9.96202597 41.3999221,16.6305974 C41.3999221,25.5534545 43.6035584,28.4747532 49.1492727,28.4747532 C50.9025195,28.4747532 52.0697922,28.0376104 52.9394026,27.5311169 L54.4105714,23.8189091 L59.269013,23.8189091 L58.8684935,32.4612468 C56.6391429,33.5030649 53.4871948,34.2854026 48.2975844,34.2854026 C39.5983636,34.2854026 32.0157662,29.5454026 32.0157662,17.5789091" id="Fill-4" fill="#333333"></path>
                                <g id="Group-8" transform="translate(64.675325, 0.779221)">
                                    <mask id="mask-2" fill="white">
                                        <use xlink:href="#path-1"></use>
                                    </mask>
                                    <g id="Clip-7"></g>
                                    <path d="M8.96174026,16.4892468 L0.257844156,0.0204155844 L6.97862338,0.0204155844 L19.2700519,16.4783377 L6.97862338,32.9362597 L0.257844156,32.9362597 L8.96174026,16.4892468 Z" id="Fill-6" fill="#BD252B" mask="url(#mask-2)"></path>
                                </g>
                            </g>
                        </g>
                    </g>
                </g>
            </g>
        </g>
    </g>
</svg>