<?xml version="1.0" encoding="UTF-8" standalone="no"?>
<svg width="26px" height="26px" viewBox="0 0 26 26" version="1.1" xmlns="http://www.w3.org/2000/svg" xmlns:xlink="http://www.w3.org/1999/xlink">
    <!-- Generator: Sketch 3.6.1 (26313) - http://www.bohemiancoding.com/sketch -->
    <title>Github logo</title>
    <desc>Created with Sketch.</desc>
    <defs></defs>
    <g id="Page-1" stroke="none" stroke-width="1" fill="none" fill-rule="evenodd">
        <g id="Desktop" transform="translate(-618.000000, -72.000000)" fill="#333333">
            <g id="Header-(left)" transform="translate(172.000000, 49.000000)">
                <path d="M458.998803,23 C451.82105,23 446,28.8202523 446,36.000399 C446,41.7440376 449.724546,46.6161945 454.89039,48.3352159 C455.540808,48.454925 455.777832,48.0535007 455.777832,47.7087388 C455.777832,47.4006876 455.76666,46.582676 455.760275,45.4981123 C452.144265,46.2834034 451.381319,43.755149 451.381319,43.755149 C450.789957,42.2531999 449.937629,41.8533718 449.937629,41.8533718 C448.757298,41.0473311 450.027011,41.0632923 450.027011,41.0632923 C451.33184,41.1550692 452.018171,42.4032352 452.018171,42.4032352 C453.177753,44.3896068 455.061174,43.8158016 455.801774,43.4830105 C455.919887,42.6434513 456.25587,42.0704442 456.626968,41.7456337 C453.740385,41.417631 450.705362,40.301943 450.705362,35.3204518 C450.705362,33.901501 451.212131,32.7403235 452.043709,31.8321311 C451.909635,31.5033304 451.463519,30.1809448 452.171399,28.391694 C452.171399,28.391694 453.262347,28.0421437 455.74591,29.7244544 C456.78259,29.4355566 457.895086,29.2919058 459.000399,29.2863194 C460.104914,29.2919058 461.216612,29.4355566 462.254888,29.7244544 C464.736855,28.0421437 465.826207,28.391694 465.826207,28.391694 C466.535682,30.1809448 466.089567,31.5033304 465.956291,31.8321311 C466.789466,32.7403235 467.292243,33.901501 467.292243,35.3204518 C467.292243,40.3147119 464.252433,41.4136407 461.357071,41.7352589 C461.823138,42.1366831 462.238927,42.9299549 462.238927,44.1430062 C462.238927,45.8803831 462.222966,47.2825747 462.222966,47.7087388 C462.222966,48.056693 462.457595,48.4613094 463.116793,48.3344179 C468.278646,46.6114061 472,41.7424415 472,36.000399 C472,28.8202523 466.17895,23 458.998803,23" id="Github-logo"></path>
            </g>
        </g>
    </g>
</svg>