
    <svg style="position: absolute; width: 0; height: 0;" width="0" height="0" version="1.1" xmlns="http://www.w3.org/2000/svg" xmlns:xlink="http://www.w3.org/1999/xlink">
      <defs>
        <symbol id="twitter-icon" viewBox="0 0 26 26">
          <title>twitter</title>
          <path class="path1" d="M26 5.748c-0.955 0.427-1.986 0.711-3.062 0.838 1.102-0.66 1.945-1.706 2.346-2.95-1.031 0.609-2.173 1.056-3.387 1.295-0.975-1.036-2.361-1.681-3.895-1.681-2.945 0-5.332 2.387-5.332 5.332 0 0.416 0.046 0.823 0.137 1.214-4.433-0.223-8.364-2.346-10.994-5.576-0.457 0.787-0.721 1.706-0.721 2.681 0 1.848 0.939 3.484 2.371 4.438-0.873-0.025-1.696-0.269-2.417-0.665 0 0.020 0 0.046 0 0.066 0 2.585 1.838 4.743 4.281 5.23-0.447 0.122-0.919 0.188-1.407 0.188-0.345 0-0.675-0.036-1.005-0.096 0.68 2.118 2.651 3.661 4.982 3.707-1.828 1.432-4.123 2.285-6.627 2.285-0.432 0-0.853-0.025-1.275-0.076 2.366 1.518 5.17 2.397 8.181 2.397 9.811 0 15.179-8.13 15.179-15.179 0-0.234-0.005-0.462-0.015-0.691 1.041-0.746 1.945-1.686 2.661-2.757z"></path>
        </symbol>
        <symbol id="github-icon" viewBox="0 0 26 26">
          <title>github</title>
          <path class="path1" d="M13 0.321c-7.179 0-13 5.82-13 13 0 5.744 3.725 10.617 8.89 12.336 0.65 0.12 0.888-0.282 0.888-0.625 0-0.31-0.012-1.334-0.018-2.42-3.617 0.786-4.38-1.534-4.38-1.534-0.591-1.503-1.443-1.902-1.443-1.902-1.179-0.807 0.089-0.79 0.089-0.79 1.305 0.092 1.993 1.34 1.993 1.34 1.16 1.987 3.041 1.413 3.783 1.081 0.116-0.84 0.453-1.414 0.825-1.738-2.888-0.329-5.923-1.443-5.923-6.425 0-1.419 0.508-2.579 1.34-3.489-0.135-0.328-0.58-1.65 0.126-3.44 0 0 1.092-0.349 3.576 1.333 1.037-0.288 2.149-0.433 3.254-0.438 1.105 0.005 2.218 0.149 3.256 0.438 2.482-1.682 3.571-1.333 3.571-1.333 0.708 1.791 0.263 3.113 0.128 3.44 0.833 0.91 1.338 2.070 1.338 3.489 0 4.993-3.041 6.092-5.936 6.414 0.466 0.403 0.882 1.195 0.882 2.407 0 1.739-0.015 3.139-0.015 3.568 0 0.346 0.234 0.751 0.893 0.624 5.162-1.721 8.883-6.592 8.883-12.334 0-7.18-5.82-13-13-13z"></path>
        </symbol>
        <symbol id="email-icon" viewBox="0 0 26 26">
          <title>email</title>
          <path class="path1" d="M0.333 4c-0.184 0-0.333 0.149-0.333 0.333v17.333c0 0.184 0.149 0.333 0.333 0.333h25.333c0.184 0 0.333-0.149 0.333-0.333v-17.333c0-0.184-0.149-0.333-0.333-0.333h-25.333zM23.272 6l-10.272 7.531-10.272-7.531h20.544zM24 20h-22v-12.054l11 8.065 11-8.065v12.054z"></path>
        </symbol>
      </defs>
    </svg>