<?xml version="1.0" encoding="UTF-8" standalone="no"?>
<svg width="27px" height="19px" viewBox="0 0 27 19" version="1.1" xmlns="http://www.w3.org/2000/svg" xmlns:xlink="http://www.w3.org/1999/xlink">
    <!-- Generator: Sketch 3.6.1 (26313) - http://www.bohemiancoding.com/sketch -->
    <title>note</title>
    <desc>Created with Sketch.</desc>
    <defs></defs>
    <g id="Page-1" stroke="none" stroke-width="1" fill="none" fill-rule="evenodd">
        <g id="Desktop" transform="translate(-174.000000, -1201.000000)" fill="#333333">
            <g id="Footer" transform="translate(172.000000, 1177.000000)">
                <g id="note" transform="translate(2.000000, 24.000000)">
                    <path d="M26.9592137,1.8120832 L26.9592137,1.70725449 C26.9592137,1.31749429 26.7823263,0.858934747 26.4646248,0.541233279 L26.4285954,0.505203915 C26.4285954,0.505203915 26.3925661,0.505203915 26.3925661,0.469174551 C26.3205073,0.397115824 26.251708,0.36434584 26.1796933,0.292287113 C26.1436639,0.292287113 26.1436639,0.256257749 26.1076346,0.256257749 C26.0355759,0.220228385 25.9307471,0.184199021 25.8586884,0.151429038 C25.8226591,0.151429038 25.8226591,0.115399674 25.7866297,0.115399674 C25.681801,0.07937031 25.5737569,0.0433409462 25.4689282,0.0433409462 L25.3968695,0.0433409462 C25.2920408,0.0433409462 25.1479674,0.00731158238 25.0071093,0.00731158238 L1.91277162,0.00731158238 C1.77191354,0.00731158238 1.63109951,0.00731158238 1.48698206,0.0433409462 C1.45095269,0.0433409462 1.41492333,0.0433409462 1.38215334,0.07937031 C1.27732463,0.115399674 1.16923654,0.115399674 1.10048124,0.151429038 C1.06445188,0.151429038 1.06445188,0.187458401 1.02842251,0.187458401 C0.956363785,0.223487765 0.851535073,0.259517129 0.779476346,0.292287113 L0.743446982,0.328316476 C0.671388254,0.36434584 0.602588907,0.433145188 0.530530179,0.469174551 C0.494500816,0.505203915 0.458471452,0.541233279 0.425701468,0.574003263 C0.176887439,0.855719413 0.0360293638,1.17668026 0,1.53041109 L0,1.60246982 L0,17.34369 L0,17.4157488 C0.0720587276,17.9103377 0.317701468,18.3361272 0.6714323,18.58177 C0.989133768,18.7946427 1.37889396,18.9355008 1.83745351,18.9355008 L25.079168,18.9355008 L25.1151974,18.9355008 L25.1151974,18.9355008 C25.2200261,18.9355008 25.3640995,18.9355008 25.4689282,18.8994715 L25.5409869,18.8994715 C25.6458157,18.8634421 25.7539038,18.8634421 25.8226591,18.8274127 L25.8586884,18.8274127 C26.6382088,18.5457406 26.9559103,17.8710049 26.9559103,17.235602 L26.9559103,17.1307732 L26.9559103,17.0947439 L26.9559103,17.0587145 L26.9559103,1.91691191 L26.9559103,1.84485318 C26.9592137,1.84811256 26.9592137,1.84811256 26.9592137,1.8120832 L26.9592137,1.8120832 Z M24.6959706,1.31753834 L13.5532953,12.1752382 L11.0050767,9.6990783 L11.0050767,9.6990783 L2.26654649,1.31423491 L24.6959706,1.31423491 L24.6959706,1.31753834 L24.6959706,1.31753834 Z M1.31339804,16.9179005 L1.31339804,2.20188744 L9.55412398,10.1249119 L1.31339804,16.9179005 L1.31339804,16.9179005 Z M13.1995644,17.6581321 L2.47941925,17.6581321 L10.5105318,11.0780163 L13.0914763,13.5902055 C13.1963051,13.6950343 13.3043931,13.7310636 13.4091778,13.767093 L13.4452072,13.767093 L13.5172659,13.767093 L13.5172659,13.767093 L13.5893246,13.767093 L13.625354,13.767093 C13.7301827,13.7310636 13.8742561,13.6950343 13.9430555,13.5902055 L16.383186,11.2188744 L24.4470245,17.6581762 L13.1995644,17.6581762 L13.1995644,17.6581321 Z M25.649075,16.9506705 L17.3723638,10.2657259 L25.649075,2.20184339 L25.649075,16.9506705 L25.649075,16.9506705 Z" id="Shape"></path>
                </g>
            </g>
        </g>
    </g>
</svg>