<?xml version="1.0" encoding="UTF-8" standalone="no"?>
<svg width="26px" height="22px" viewBox="0 0 26 22" version="1.1" xmlns="http://www.w3.org/2000/svg" xmlns:xlink="http://www.w3.org/1999/xlink">
    <!-- Generator: Sketch 3.6.1 (26313) - http://www.bohemiancoding.com/sketch -->
    <title>Twitter logo</title>
    <desc>Created with Sketch.</desc>
    <defs>
        <path id="path-1" d="M0,0.000227316721 L25.8932689,0.000227316721 L25.8932689,21.0440728 L0,21.0440728 L0,0.000227316721 Z"></path>
    </defs>
    <g id="Page-1" stroke="none" stroke-width="1" fill="none" fill-rule="evenodd">
        <g id="Desktop" transform="translate(-749.000000, -75.000000)">
            <g id="Header-(left)" transform="translate(172.000000, 49.000000)">
                <g id="Twitter-logo" transform="translate(577.000000, 26.000000)">
                    <g id="g10" transform="translate(13.000000, 10.632537) scale(1, -1) translate(-13.000000, -10.632537) translate(0.000000, 0.047837)">
                        <g id="g12" transform="translate(0.000000, -0.000000)">
                            <g id="g14">
                                <g id="g16-Clipped">
                                    <mask id="mask-2" fill="white">
                                        <use xlink:href="#path-1"></use>
                                    </mask>
                                    <g id="path18"></g>
                                    <g id="g16" mask="url(#mask-2)" fill="#333333">
                                        <g transform="translate(-0.018943, 0.000000)" id="path22">
                                            <path d="M25.9122119,18.5526436 C24.9599443,18.1300429 23.9358825,17.8444195 22.8614321,17.7157392 C23.9580458,18.3734991 24.8000649,19.4145339 25.1967325,20.654755 C24.1703975,20.0457356 23.0338139,19.6039835 21.823163,19.3658692 C20.8546043,20.3980766 19.4738447,21.0432772 17.9458974,21.0432772 C15.0118068,21.0432772 12.6336951,18.664976 12.6336951,15.7310748 C12.6336951,15.3145548 12.6802382,14.9089839 12.7711838,14.5204239 C8.35593536,14.7416788 4.44154142,16.8572398 1.82133734,20.0709299 C1.36403293,19.2866872 1.10208829,18.3742568 1.10208829,17.4005267 C1.10208829,15.5572154 2.0395614,13.9314841 3.46542447,12.9784588 C2.59463094,13.00568 1.77536254,13.2447603 1.05908755,13.6429434 C1.058273,13.6205906 1.058273,13.5984651 1.058273,13.5762639 C1.058273,11.001902 2.88968805,8.85527442 5.3197038,8.36692233 C4.87431457,8.24549732 4.40511391,8.18128034 3.92056938,8.18128034 C3.57790836,8.18128034 3.24566603,8.21369192 2.92073572,8.27599565 C3.59721134,6.16554932 5.55874627,4.62945657 7.88381747,4.58645583 C6.064185,3.16136942 3.77393115,2.31253089 1.28481305,2.31253089 C0.856302089,2.31253089 0.433114126,2.33776305 0.0171813555,2.38659826 C2.3691517,0.87933685 5.16116933,0.000151544481 8.16156062,0.000151544481 C17.9327699,0.000151544481 23.2754706,8.09471056 23.2754706,15.1153875 C23.2754706,15.3456025 23.2701665,15.5742452 23.2605055,15.8020734 C24.2980169,16.5516693 25.19857,17.4870586 25.9112079,18.5526058"></path>
                                        </g>
                                    </g>
                                </g>
                            </g>
                        </g>
                    </g>
                </g>
            </g>
        </g>
    </g>
</svg>